<svg width="248" height="30" viewBox="0 0 248 30" fill="none" xmlns="http://www.w3.org/2000/svg">
<path d="M16.6836 17.541V18.541H17.6836V17.541H16.6836ZM6.55859 17.541V16.541H5.55859V17.541H6.55859ZM6.55859 28V29H7.55859V28H6.55859ZM1.28516 28H0.285156V29H1.28516V28ZM1.28516 2.40625V1.40625H0.285156V2.40625H1.28516ZM17.9492 2.40625H18.9492V1.40625H17.9492V2.40625ZM17.9492 6.67773V7.67773H18.9492V6.67773H17.9492ZM6.55859 6.67773V5.67773H5.55859V6.67773H6.55859ZM6.55859 13.2871H5.55859V14.2871H6.55859V13.2871ZM16.6836 13.2871H17.6836V12.2871H16.6836V13.2871ZM16.6836 16.541H6.55859V18.541H16.6836V16.541ZM5.55859 17.541V28H7.55859V17.541H5.55859ZM6.55859 27H1.28516V29H6.55859V27ZM2.28516 28V2.40625H0.285156V28H2.28516ZM1.28516 3.40625H17.9492V1.40625H1.28516V3.40625ZM16.9492 2.40625V6.67773H18.9492V2.40625H16.9492ZM17.9492 5.67773H6.55859V7.67773H17.9492V5.67773ZM5.55859 6.67773V13.2871H7.55859V6.67773H5.55859ZM6.55859 14.2871H16.6836V12.2871H6.55859V14.2871ZM15.6836 13.2871V17.541H17.6836V13.2871H15.6836ZM31.0977 28L30.2078 28.4563L30.4867 29H31.0977V28ZM30.5879 26.2949L31.5761 26.1416L31.2526 24.057L29.8436 25.627L30.5879 26.2949ZM21.1484 26.7344L20.4859 27.4834L20.4894 27.4865L21.1484 26.7344ZM21.5527 18.0156L20.9691 17.2036L20.9661 17.2058L21.5527 18.0156ZM28.0391 16.3809L28.0391 15.3809L28.0349 15.3809L28.0391 16.3809ZM30.377 16.3809V17.3809H31.377V16.3809H30.377ZM29.6914 13.1816L28.9273 13.8269L28.9357 13.8366L29.6914 13.1816ZM25.543 13.0059L24.9027 12.2376L24.8937 12.2453L25.543 13.0059ZM24.8223 14.6934V15.6934H25.8223V14.6934H24.8223ZM19.7422 14.6934H18.7422V15.6934H19.7422V14.6934ZM23.6445 9.4375L24.0353 10.358L24.0426 10.3548L23.6445 9.4375ZM33.4004 10.4043L32.7469 11.1613L32.7539 11.1672L33.4004 10.4043ZM35.4746 23.6055L34.4746 23.6055L34.4746 23.612L35.4746 23.6055ZM36.2305 27.7012H37.2305V27.4519L37.1134 27.2317L36.2305 27.7012ZM36.2305 28V29H37.2305V28H36.2305ZM28.9707 23.9746L29.431 24.8624L29.4374 24.859L29.4438 24.8556L28.9707 23.9746ZM30.377 22.6211L31.2562 23.0974L31.377 22.8745V22.6211H30.377ZM30.377 19.3516H31.377V18.3516H30.377V19.3516ZM24.418 21.9883L23.4223 21.8954L23.4207 21.9124L23.4197 21.9296L24.418 21.9883ZM24.4004 22.2871L23.4021 22.2284L23.4004 22.2577V22.2871H24.4004ZM31.9875 27.5437C31.8152 27.2078 31.6703 26.7491 31.5761 26.1416L29.5997 26.4483C29.7164 27.2001 29.9113 27.8781 30.2078 28.4563L31.9875 27.5437ZM29.8436 25.627C28.8171 26.7709 27.4958 27.3516 25.7891 27.3516V29.3516C28.0198 29.3516 29.8978 28.5611 31.3321 26.9628L29.8436 25.627ZM25.7891 27.3516C24.1323 27.3516 22.8302 26.8784 21.8074 25.9822L20.4894 27.4865C21.9276 28.7466 23.7193 29.3516 25.7891 29.3516V27.3516ZM21.811 25.9854C20.8089 25.0989 20.3203 24.0131 20.3203 22.6562H18.3203C18.3203 24.5806 19.0505 26.2136 20.4859 27.4834L21.811 25.9854ZM20.3203 22.6562C20.3203 20.9251 20.9386 19.6953 22.1394 18.8255L20.9661 17.2058C19.1903 18.4922 18.3203 20.3561 18.3203 22.6562H20.3203ZM22.1364 18.8276C23.3995 17.9197 25.3238 17.3921 28.0432 17.3809L28.0349 15.3809C25.1059 15.393 22.7059 15.9553 20.9691 17.2036L22.1364 18.8276ZM28.0391 17.3809H30.377V15.3809H28.0391V17.3809ZM31.377 16.3809V15.291H29.377V16.3809H31.377ZM31.377 15.291C31.377 14.2359 31.0993 13.2793 30.4471 12.5267L28.9357 13.8366C29.1976 14.1387 29.377 14.5883 29.377 15.291H31.377ZM30.4554 12.5365C29.7519 11.7033 28.7062 11.3906 27.5645 11.3906V13.3906C28.368 13.3906 28.7403 13.6053 28.9274 13.8268L30.4554 12.5365ZM27.5645 11.3906C26.5539 11.3906 25.6272 11.634 24.9028 12.2376L26.1832 13.7741C26.4431 13.5574 26.864 13.3906 27.5645 13.3906V11.3906ZM24.8937 12.2453C24.1599 12.8717 23.8223 13.729 23.8223 14.6934H25.8223C25.8223 14.2281 25.9651 13.9603 26.1922 13.7664L24.8937 12.2453ZM24.8223 13.6934H19.7422V15.6934H24.8223V13.6934ZM20.7422 14.6934C20.7422 13.8138 21.0086 12.9978 21.5713 12.2217L19.9521 11.0478C19.1554 12.1467 18.7422 13.3698 18.7422 14.6934H20.7422ZM21.5713 12.2217C22.1277 11.4543 22.9324 10.8262 24.0353 10.358L23.2538 8.51701C21.8723 9.10348 20.7551 9.94026 19.9521 11.0478L21.5713 12.2217ZM24.0426 10.3548C25.1425 9.87753 26.3988 9.62891 27.8281 9.62891V7.62891C26.1637 7.62891 24.6309 7.91934 23.2464 8.52015L24.0426 10.3548ZM27.8281 9.62891C30.004 9.62891 31.6054 10.1759 32.7469 11.1613L34.0538 9.64733C32.4532 8.26554 30.3397 7.62891 27.8281 7.62891V9.62891ZM32.7539 11.1672C33.8721 12.1148 34.4746 13.4649 34.4746 15.3613H36.4746C36.4746 12.9921 35.6943 11.0375 34.0469 9.6414L32.7539 11.1672ZM34.4746 15.3613V23.6055H36.4746V15.3613H34.4746ZM34.4746 23.612C34.4867 25.477 34.7431 27.0338 35.3475 28.1706L37.1134 27.2317C36.7334 26.517 36.4859 25.3433 36.4746 23.599L34.4746 23.612ZM35.2305 27.7012V28H37.2305V27.7012H35.2305ZM36.2305 27H31.0977V29H36.2305V27ZM26.8965 25.4668C27.7981 25.4668 28.6485 25.2681 29.431 24.8624L28.5104 23.0869C28.0273 23.3374 27.4949 23.4668 26.8965 23.4668V25.4668ZM29.4438 24.8556C30.2268 24.4351 30.8474 23.8521 31.2562 23.0974L29.4977 22.1448C29.2971 22.5151 28.9802 22.8344 28.4976 23.0936L29.4438 24.8556ZM31.377 22.6211V19.3516H29.377V22.6211H31.377ZM30.377 18.3516H28.4785V20.3516H30.377V18.3516ZM28.4785 18.3516C27.1158 18.3516 25.9189 18.5829 25.0115 19.172C24.0519 19.7952 23.5297 20.7447 23.4223 21.8954L25.4136 22.0812C25.4703 21.474 25.7069 21.1052 26.1008 20.8494C26.5469 20.5597 27.2982 20.3516 28.4785 20.3516V18.3516ZM23.4197 21.9296L23.4021 22.2284L25.3987 22.3458L25.4162 22.047L23.4197 21.9296ZM23.4004 22.2871C23.4004 23.1851 23.7297 23.9781 24.3909 24.5871L25.7458 23.116C25.5164 22.9047 25.4004 22.6547 25.4004 22.2871H23.4004ZM24.3909 24.5871C25.0678 25.2106 25.9442 25.4668 26.8965 25.4668V23.4668C26.3019 23.4668 25.9595 23.3129 25.7458 23.116L24.3909 24.5871ZM48.7461 21.2852L48.234 22.1441L48.2437 22.1499L48.2535 22.1554L48.7461 21.2852ZM45.793 20.3184L45.5876 21.297L45.5904 21.2976L45.793 20.3184ZM41.0996 10.334L41.7275 11.1123L41.7282 11.1117L41.0996 10.334ZM52.3848 10.334L51.7655 11.1192L51.7686 11.1216L52.3848 10.334ZM54.5645 14.7637V15.7637H55.5645V14.7637H54.5645ZM49.4844 14.7637H48.4844V15.7637H49.4844V14.7637ZM48.7812 12.9707L48.0654 13.6691L48.0741 13.6778L48.7812 12.9707ZM44.6855 15.6777L44.1308 16.5098L44.1415 16.5169L44.1522 16.5237L44.6855 15.6777ZM47.3926 16.5742L47.193 17.5541L47.2017 17.5558L47.3926 16.5742ZM50.5918 17.418L50.9362 16.4791L50.9346 16.4785L50.5918 17.418ZM52.3848 26.752L52.9672 27.5648L52.9714 27.5618L52.3848 26.752ZM42.3652 27.5078L41.9423 28.4141L41.9527 28.4188L42.3652 27.5078ZM39.4648 25.1699L38.6479 25.7466L38.6511 25.7512L39.4648 25.1699ZM38.4102 21.9531V20.9531H37.4102V21.9531H38.4102ZM43.2266 21.9531L44.2252 21.9012L44.176 20.9531H43.2266V21.9531ZM48.9219 24.2031L49.5157 25.0077L49.5189 25.0054L48.9219 24.2031ZM50.6777 22.7441C50.6777 21.7025 50.1172 20.9122 49.2387 20.4149L48.2535 22.1554C48.6172 22.3613 48.6777 22.5436 48.6777 22.7441H50.6777ZM49.2582 20.4262C48.5001 19.9743 47.3804 19.6256 45.9956 19.3391L45.5904 21.2976C46.9243 21.5736 47.7733 21.8695 48.234 22.1441L49.2582 20.4262ZM45.9983 19.3397C43.8173 18.882 42.3038 18.2121 41.3516 17.403C40.4378 16.6265 40.0078 15.6981 40.0078 14.5527H38.0078C38.0078 16.3019 38.7086 17.7817 40.0566 18.9271C41.3661 20.0398 43.2452 20.8055 45.5876 21.297L45.9983 19.3397ZM40.0078 14.5527C40.0078 13.1884 40.5516 12.0609 41.7275 11.1123L40.4717 9.55567C38.8586 10.857 38.0078 12.542 38.0078 14.5527H40.0078ZM41.7282 11.1117C42.9157 10.1519 44.5099 9.62891 46.6016 9.62891V7.62891C44.1698 7.62891 42.0961 8.24268 40.471 9.55629L41.7282 11.1117ZM46.6016 9.62891C48.862 9.62891 50.5492 10.16 51.7655 11.1192L53.004 9.54877C51.3375 8.23452 49.1692 7.62891 46.6016 7.62891V9.62891ZM51.7686 11.1216C52.9839 12.0723 53.5645 13.2605 53.5645 14.7637H55.5645C55.5645 12.634 54.6919 10.8691 53.0009 9.54635L51.7686 11.1216ZM54.5645 13.7637H49.4844V15.7637H54.5645V13.7637ZM50.4844 14.7637C50.4844 13.7999 50.1636 12.9388 49.4884 12.2636L48.0741 13.6778C48.3364 13.9401 48.4844 14.2743 48.4844 14.7637H50.4844ZM49.497 12.2724C48.7654 11.5225 47.7196 11.25 46.584 11.25V13.25C47.4405 13.25 47.8596 13.458 48.0655 13.669L49.497 12.2724ZM46.584 11.25C45.5896 11.25 44.6699 11.4741 43.9613 12.0587L45.234 13.6015C45.4629 13.4126 45.8674 13.25 46.584 13.25V11.25ZM43.9613 12.0587C43.2667 12.6317 42.8945 13.4047 42.8945 14.3066H44.8945C44.8945 14.0132 44.9911 13.8019 45.234 13.6015L43.9613 12.0587ZM42.8945 14.3066C42.8945 15.2503 43.3666 16.0003 44.1308 16.5098L45.2402 14.8457C44.9498 14.6521 44.8945 14.488 44.8945 14.3066H42.8945ZM44.1522 16.5237C44.8525 16.9651 45.9051 17.2917 47.193 17.5541L47.5922 15.5943C46.3488 15.3411 45.5968 15.0701 45.2188 14.8318L44.1522 16.5237ZM47.2017 17.5558C48.4343 17.7955 49.4464 18.0645 50.249 18.3574L50.9346 16.4785C50.0028 16.1386 48.8821 15.8451 47.5834 15.5926L47.2017 17.5558ZM50.2474 18.3568C51.4692 18.8049 52.2997 19.386 52.825 20.0535C53.3408 20.7089 53.6172 21.5167 53.6172 22.5332H55.6172C55.6172 21.124 55.2227 19.8663 54.3967 18.8166C53.5802 17.7791 52.398 17.0154 50.9362 16.4791L50.2474 18.3568ZM53.6172 22.5332C53.6172 23.9252 53.0449 25.0389 51.7981 25.9421L52.9714 27.5618C54.7012 26.3087 55.6172 24.61 55.6172 22.5332H53.6172ZM51.8023 25.9391C50.5268 26.853 48.8255 27.3516 46.6191 27.3516V29.3516C49.1237 29.3516 51.2662 28.7837 52.9672 27.5648L51.8023 25.9391ZM46.6191 27.3516C45.1439 27.3516 43.8703 27.0916 42.7777 26.5969L41.9527 28.4188C43.3446 29.049 44.9069 29.3516 46.6191 29.3516V27.3516ZM42.7881 26.6016C41.6943 26.0912 40.8698 25.4164 40.2786 24.5887L38.6511 25.7512C39.4662 26.8922 40.5753 27.776 41.9423 28.414L42.7881 26.6016ZM40.2818 24.5932C39.69 23.7549 39.4102 22.882 39.4102 21.9531H37.4102C37.4102 23.3212 37.8334 24.5928 38.6479 25.7466L40.2818 24.5932ZM38.4102 22.9531H43.2266V20.9531H38.4102V22.9531ZM42.2279 22.005C42.2874 23.1496 42.7291 24.1317 43.6166 24.8183L44.8404 23.2364C44.4857 22.962 44.2595 22.5614 44.2252 21.9012L42.2279 22.005ZM43.6166 24.8183C44.4628 25.4728 45.5327 25.748 46.7246 25.748V23.748C45.8306 23.748 45.2365 23.5428 44.8404 23.2364L43.6166 24.8183ZM46.7246 25.748C47.7942 25.748 48.7767 25.5531 49.5157 25.0077L48.328 23.3986C48.0826 23.5797 47.6004 23.748 46.7246 23.748V25.748ZM49.5189 25.0054C50.2612 24.4529 50.6777 23.6763 50.6777 22.7441H48.6777C48.6777 23.0073 48.5903 23.2033 48.3249 23.4009L49.5189 25.0054ZM63.9863 4.30469H64.9863V3.30469H63.9863V4.30469ZM63.9863 8.98047H62.9863V9.98047H63.9863V8.98047ZM67.2383 8.98047H68.2383V7.98047H67.2383V8.98047ZM67.2383 12.707V13.707H68.2383V12.707H67.2383ZM63.9863 12.707V11.707H62.9863V12.707H63.9863ZM67.4316 24.0449H68.4316V22.838L67.2457 23.0624L67.4316 24.0449ZM67.4316 27.8945L67.7241 28.8508L68.4316 28.6344V27.8945H67.4316ZM58.9062 22.9551H57.9062V22.9648L57.9064 22.9746L58.9062 22.9551ZM58.9062 12.707H59.9062V11.707H58.9062V12.707ZM56.1289 12.707H55.1289V13.707H56.1289V12.707ZM56.1289 8.98047V7.98047H55.1289V8.98047H56.1289ZM58.9062 8.98047V9.98047H59.9062V8.98047H58.9062ZM58.9062 4.30469V3.30469H57.9062V4.30469H58.9062ZM62.9863 4.30469V8.98047H64.9863V4.30469H62.9863ZM63.9863 9.98047H67.2383V7.98047H63.9863V9.98047ZM66.2383 8.98047V12.707H68.2383V8.98047H66.2383ZM67.2383 11.707H63.9863V13.707H67.2383V11.707ZM62.9863 12.707V22.1992H64.9863V12.707H62.9863ZM62.9863 22.1992C62.9863 22.9839 63.128 23.7928 63.6416 24.3735L65.1396 23.0484C65.1142 23.0197 64.9863 22.8208 64.9863 22.1992H62.9863ZM63.6416 24.3735C64.2125 25.0188 65.1175 25.168 65.9375 25.168V23.168C65.6161 23.168 65.3992 23.135 65.2628 23.0947C65.1284 23.055 65.116 23.0217 65.1396 23.0484L63.6416 24.3735ZM65.9375 25.168C66.5463 25.168 67.1087 25.1238 67.6175 25.0275L67.2457 23.0624C66.8874 23.1301 66.4537 23.168 65.9375 23.168V25.168ZM66.4316 24.0449V27.8945H68.4316V24.0449H66.4316ZM67.1391 26.9383C66.239 27.2136 65.3123 27.3516 64.3555 27.3516V29.3516C65.508 29.3516 66.6321 29.1848 67.7241 28.8508L67.1391 26.9383ZM64.3555 27.3516C62.7325 27.3516 61.6824 26.943 61.0249 26.2919C60.3657 25.639 59.9382 24.5812 59.9061 22.9355L57.9064 22.9746C57.9446 24.9266 58.4605 26.567 59.6176 27.713C60.7765 28.8607 62.416 29.3516 64.3555 29.3516V27.3516ZM59.9062 22.9551V12.707H57.9062V22.9551H59.9062ZM58.9062 11.707H56.1289V13.707H58.9062V11.707ZM57.1289 12.707V8.98047H55.1289V12.707H57.1289ZM56.1289 9.98047H58.9062V7.98047H56.1289V9.98047ZM59.9062 8.98047V4.30469H57.9062V8.98047H59.9062ZM58.9062 5.30469H63.9863V3.30469H58.9062V5.30469ZM94.7656 17.541V18.541H95.7656V17.541H94.7656ZM84.6406 17.541V16.541H83.6406V17.541H84.6406ZM84.6406 28V29H85.6406V28H84.6406ZM79.3672 28H78.3672V29H79.3672V28ZM79.3672 2.40625V1.40625H78.3672V2.40625H79.3672ZM96.0312 2.40625H97.0312V1.40625H96.0312V2.40625ZM96.0312 6.67773V7.67773H97.0312V6.67773H96.0312ZM84.6406 6.67773V5.67773H83.6406V6.67773H84.6406ZM84.6406 13.2871H83.6406V14.2871H84.6406V13.2871ZM94.7656 13.2871H95.7656V12.2871H94.7656V13.2871ZM94.7656 16.541H84.6406V18.541H94.7656V16.541ZM83.6406 17.541V28H85.6406V17.541H83.6406ZM84.6406 27H79.3672V29H84.6406V27ZM80.3672 28V2.40625H78.3672V28H80.3672ZM79.3672 3.40625H96.0312V1.40625H79.3672V3.40625ZM95.0312 2.40625V6.67773H97.0312V2.40625H95.0312ZM96.0312 5.67773H84.6406V7.67773H96.0312V5.67773ZM83.6406 6.67773V13.2871H85.6406V6.67773H83.6406ZM84.6406 14.2871H94.7656V12.2871H84.6406V14.2871ZM93.7656 13.2871V17.541H95.7656V13.2871H93.7656ZM101.797 9.8418L101.289 8.98042L101.286 8.98235L101.797 9.8418ZM112.836 10.9844L112.139 11.7018L112.142 11.7043L112.836 10.9844ZM115.561 17.3828L116.56 17.3558L116.56 17.3346L116.558 17.3134L115.561 17.3828ZM115.596 18.6836H116.596V18.6701L116.595 18.6566L115.596 18.6836ZM113.152 25.7148L113.886 26.3945L113.888 26.3921L113.152 25.7148ZM100.021 25.7148L99.288 26.3945L99.2904 26.3972L100.021 25.7148ZM103.678 22.832L102.861 23.4095L102.865 23.4142L103.678 22.832ZM109.479 22.8496L110.283 23.4432L110.287 23.4384L109.479 22.8496ZM103.678 14.2012L104.494 14.7786L104.497 14.774L103.678 14.2012ZM98.5781 18.3145C98.5781 16.5583 98.9155 15.0314 99.5652 13.711L97.7707 12.828C96.9673 14.4608 96.5781 16.2971 96.5781 18.3145H98.5781ZM99.5652 13.711C100.21 12.4008 101.122 11.4067 102.308 10.7012L101.286 8.98235C99.7529 9.89408 98.5791 11.1851 97.7707 12.828L99.5652 13.711ZM102.305 10.7032C103.502 9.99697 104.91 9.62891 106.561 9.62891V7.62891C104.602 7.62891 102.834 8.06944 101.289 8.98043L102.305 10.7032ZM106.561 9.62891C108.906 9.62891 110.735 10.3382 112.139 11.7018L113.533 10.2669C111.703 8.48995 109.348 7.62891 106.561 7.62891V9.62891ZM112.142 11.7043C113.559 13.0706 114.389 14.9532 114.563 17.4522L116.558 17.3134C116.357 14.4218 115.371 12.0388 113.53 10.2644L112.142 11.7043ZM114.561 17.4098L114.596 18.7106L116.595 18.6566L116.56 17.3558L114.561 17.4098ZM114.596 18.6836C114.596 21.407 113.841 23.4903 112.417 25.0376L113.888 26.3921C115.722 24.4003 116.596 21.7961 116.596 18.6836H114.596ZM112.419 25.0351C111.007 26.5585 109.104 27.3516 106.596 27.3516V29.3516C109.572 29.3516 112.04 28.3869 113.886 26.3945L112.419 25.0351ZM106.596 27.3516C104.088 27.3516 102.177 26.5584 100.753 25.0325L99.2904 26.3972C101.148 28.3869 103.619 29.3516 106.596 29.3516V27.3516ZM100.755 25.0351C99.3389 23.5071 98.5781 21.383 98.5781 18.543H96.5781C96.5781 21.7498 97.4462 24.407 99.288 26.3945L100.755 25.0351ZM98.5781 18.543V18.3145H96.5781V18.543H98.5781ZM101.658 18.6836C101.658 20.5919 102.014 22.2114 102.861 23.4095L104.494 22.2546C103.982 21.5308 103.658 20.3847 103.658 18.6836H101.658ZM102.865 23.4142C103.75 24.6504 105.039 25.2559 106.596 25.2559V23.2559C105.621 23.2559 104.965 22.9121 104.491 22.2498L102.865 23.4142ZM106.596 25.2559C108.123 25.2559 109.391 24.6526 110.283 23.4432L108.674 22.2561C108.183 22.9216 107.53 23.2559 106.596 23.2559V25.2559ZM110.287 23.4384C111.167 22.2304 111.516 20.4569 111.516 18.3145H109.516C109.516 20.3204 109.173 21.5704 108.67 22.2608L110.287 23.4384ZM111.516 18.3145C111.516 16.4324 111.151 14.8275 110.294 13.6218L108.663 14.7806C109.189 15.5202 109.516 16.6574 109.516 18.3145H111.516ZM110.294 13.6218C109.404 12.3698 108.119 11.7422 106.561 11.7422V13.7422C107.51 13.7422 108.171 14.0872 108.663 14.7806L110.294 13.6218ZM106.561 11.7422C105.01 11.7422 103.735 12.3735 102.858 13.6284L104.497 14.774C104.98 14.0836 105.627 13.7422 106.561 13.7422V11.7422ZM102.861 13.6237C102.003 14.8368 101.658 16.5826 101.658 18.6836H103.658C103.658 16.7299 103.993 15.4874 104.494 14.7786L102.861 13.6237ZM122.152 9.8418L121.644 8.98042L121.641 8.98235L122.152 9.8418ZM133.191 10.9844L132.495 11.7018L132.497 11.7043L133.191 10.9844ZM135.916 17.3828L136.916 17.3558L136.915 17.3346L136.914 17.3134L135.916 17.3828ZM135.951 18.6836H136.951V18.6701L136.951 18.6566L135.951 18.6836ZM133.508 25.7148L134.241 26.3945L134.244 26.3921L133.508 25.7148ZM120.377 25.7148L119.643 26.3945L119.646 26.3972L120.377 25.7148ZM124.033 22.832L123.217 23.4095L123.22 23.4142L124.033 22.832ZM129.834 22.8496L130.639 23.4432L130.642 23.4384L129.834 22.8496ZM124.033 14.2012L124.85 14.7786L124.853 14.774L124.033 14.2012ZM118.934 18.3145C118.934 16.5583 119.271 15.0314 119.921 13.711L118.126 12.828C117.323 14.4608 116.934 16.2971 116.934 18.3145H118.934ZM119.921 13.711C120.565 12.4008 121.478 11.4067 122.664 10.7012L121.641 8.98235C120.108 9.89408 118.935 11.1851 118.126 12.828L119.921 13.711ZM122.66 10.7032C123.858 9.99697 125.266 9.62891 126.916 9.62891V7.62891C124.957 7.62891 123.189 8.06944 121.644 8.98043L122.66 10.7032ZM126.916 9.62891C129.261 9.62891 131.09 10.3382 132.495 11.7018L133.888 10.2669C132.058 8.48995 129.704 7.62891 126.916 7.62891V9.62891ZM132.497 11.7043C133.915 13.0706 134.745 14.9532 134.918 17.4522L136.914 17.3134C136.712 14.4218 135.726 12.0388 133.885 10.2644L132.497 11.7043ZM134.916 17.4098L134.952 18.7106L136.951 18.6566L136.916 17.3558L134.916 17.4098ZM134.951 18.6836C134.951 21.407 134.196 23.4903 132.772 25.0376L134.244 26.3921C136.077 24.4003 136.951 21.7961 136.951 18.6836H134.951ZM132.774 25.0351C131.363 26.5585 129.459 27.3516 126.951 27.3516V29.3516C129.928 29.3516 132.395 28.3869 134.241 26.3945L132.774 25.0351ZM126.951 27.3516C124.443 27.3516 122.532 26.5584 121.108 25.0325L119.646 26.3972C121.503 28.3869 123.975 29.3516 126.951 29.3516V27.3516ZM121.11 25.0351C119.694 23.5071 118.934 21.383 118.934 18.543H116.934C116.934 21.7498 117.802 24.407 119.643 26.3945L121.11 25.0351ZM118.934 18.543V18.3145H116.934V18.543H118.934ZM122.014 18.6836C122.014 20.5919 122.369 22.2114 123.217 23.4095L124.85 22.2546C124.338 21.5308 124.014 20.3847 124.014 18.6836H122.014ZM123.22 23.4142C124.105 24.6504 125.395 25.2559 126.951 25.2559V23.2559C125.976 23.2559 125.32 22.9121 124.846 22.2498L123.22 23.4142ZM126.951 25.2559C128.478 25.2559 129.747 24.6526 130.639 23.4432L129.029 22.2561C128.538 22.9216 127.885 23.2559 126.951 23.2559V25.2559ZM130.642 23.4384C131.522 22.2304 131.871 20.4569 131.871 18.3145H129.871C129.871 20.3204 129.529 21.5704 129.026 22.2608L130.642 23.4384ZM131.871 18.3145C131.871 16.4324 131.506 14.8275 130.649 13.6218L129.019 14.7806C129.545 15.5202 129.871 16.6574 129.871 18.3145H131.871ZM130.649 13.6218C129.759 12.3698 128.474 11.7422 126.916 11.7422V13.7422C127.866 13.7422 128.526 14.0872 129.019 14.7806L130.649 13.6218ZM126.916 11.7422C125.365 11.7422 124.09 12.3735 123.214 13.6284L124.853 14.774C125.335 14.0836 125.982 13.7422 126.916 13.7422V11.7422ZM123.217 13.6237C122.359 14.8368 122.014 16.5826 122.014 18.6836H124.014C124.014 16.7299 124.348 15.4874 124.85 14.7786L123.217 13.6237ZM140.275 11.2656L139.479 10.6605L139.477 10.6639L140.275 11.2656ZM150.33 10.7031L149.577 11.3607L151.33 13.3694V10.7031H150.33ZM150.33 1V0H149.33V1H150.33ZM155.428 1H156.428V0H155.428V1ZM155.428 28V29H156.428V28H155.428ZM150.84 28L149.847 28.1208L149.954 29H150.84V28ZM150.594 25.9785L151.586 25.8577L151.299 23.4962L149.813 25.3538L150.594 25.9785ZM140.311 25.7148L139.515 26.3207L139.519 26.3266L140.311 25.7148ZM150.33 22.252L151.229 22.6896L151.33 22.4824V22.252H150.33ZM150.33 14.7461H151.33V14.5194L151.232 14.3149L150.33 14.7461ZM139.289 18.3496C139.289 15.5272 139.919 13.4003 141.074 11.8673L139.477 10.6639C137.983 12.6465 137.289 15.2423 137.289 18.3496H139.289ZM141.072 11.8707C142.209 10.3747 143.729 9.62891 145.742 9.62891V7.62891C143.138 7.62891 141.014 8.64095 139.479 10.6605L141.072 11.8707ZM145.742 9.62891C147.308 9.62891 148.561 10.1976 149.577 11.3607L151.083 10.0455C149.685 8.44298 147.88 7.62891 145.742 7.62891V9.62891ZM151.33 10.7031V1H149.33V10.7031H151.33ZM150.33 2H155.428V0H150.33V2ZM154.428 1V28H156.428V1H154.428ZM155.428 27H150.84V29H155.428V27ZM151.833 27.8792L151.586 25.8577L149.601 26.0994L149.847 28.1208L151.833 27.8792ZM149.813 25.3538C148.733 26.7033 147.389 27.3516 145.707 27.3516V29.3516C148.009 29.3516 149.923 28.4178 151.375 26.6032L149.813 25.3538ZM145.707 27.3516C143.776 27.3516 142.27 26.6139 141.102 25.1031L139.519 26.3266C141.07 28.3314 143.162 29.3516 145.707 29.3516V27.3516ZM141.106 25.109C139.936 23.5725 139.289 21.3592 139.289 18.3496H137.289C137.289 21.6212 137.99 24.3181 139.515 26.3207L141.106 25.109ZM142.369 18.7188C142.369 20.5925 142.692 22.1817 143.464 23.362L145.138 22.2669C144.668 21.5488 144.369 20.4075 144.369 18.7188H142.369ZM143.464 23.362C144.279 24.6079 145.504 25.2383 147.008 25.2383V23.2383C146.144 23.2383 145.564 22.9194 145.138 22.2669L143.464 23.362ZM147.008 25.2383C147.934 25.2383 148.79 25.042 149.529 24.6C150.272 24.1556 150.834 23.501 151.229 22.6896L149.431 21.8143C149.181 22.3271 148.867 22.6657 148.503 22.8834C148.135 23.1035 147.651 23.2383 147.008 23.2383V25.2383ZM151.33 22.252V14.7461H149.33V22.252H151.33ZM151.232 14.3149C150.844 13.5032 150.289 12.8467 149.551 12.4005C148.816 11.9565 147.965 11.7598 147.043 11.7598V13.7598C147.68 13.7598 148.155 13.8941 148.517 14.1122C148.874 14.3281 149.183 14.6648 149.428 15.1773L151.232 14.3149ZM147.043 11.7598C145.492 11.7598 144.241 12.4189 143.436 13.7247C142.68 14.9511 142.369 16.6621 142.369 18.7188H144.369C144.369 16.8027 144.67 15.5343 145.139 14.7743C145.558 14.0938 146.144 13.7598 147.043 13.7598V11.7598ZM173.691 28V29H174.691V28H173.691ZM168.594 28H167.594V29H168.594V28ZM168.594 1V0H167.594V1H168.594ZM173.691 1H174.691V0H173.691V1ZM173.691 27H168.594V29H173.691V27ZM169.594 28V1H167.594V28H169.594ZM168.594 2H173.691V0H168.594V2ZM172.691 1V28H174.691V1H172.691ZM181.32 9.8418L180.812 8.98042L180.809 8.98235L181.32 9.8418ZM192.359 10.9844L191.663 11.7018L191.665 11.7043L192.359 10.9844ZM195.084 17.3828L196.084 17.3558L196.083 17.3346L196.082 17.3134L195.084 17.3828ZM195.119 18.6836H196.119V18.6701L196.119 18.6566L195.119 18.6836ZM192.676 25.7148L193.409 26.3945L193.412 26.3921L192.676 25.7148ZM179.545 25.7148L178.811 26.3945L178.814 26.3972L179.545 25.7148ZM183.201 22.832L182.385 23.4095L182.388 23.4142L183.201 22.832ZM189.002 22.8496L189.807 23.4432L189.81 23.4384L189.002 22.8496ZM183.201 14.2012L184.018 14.7786L184.021 14.774L183.201 14.2012ZM178.102 18.3145C178.102 16.5583 178.439 15.0314 179.089 13.711L177.294 12.828C176.491 14.4608 176.102 16.2971 176.102 18.3145H178.102ZM179.089 13.711C179.733 12.4008 180.646 11.4067 181.832 10.7012L180.809 8.98235C179.276 9.89408 178.103 11.1851 177.294 12.828L179.089 13.711ZM181.828 10.7032C183.026 9.99697 184.434 9.62891 186.084 9.62891V7.62891C184.125 7.62891 182.357 8.06944 180.812 8.98043L181.828 10.7032ZM186.084 9.62891C188.429 9.62891 190.258 10.3382 191.663 11.7018L193.056 10.2669C191.226 8.48995 188.871 7.62891 186.084 7.62891V9.62891ZM191.665 11.7043C193.083 13.0706 193.913 14.9532 194.086 17.4522L196.082 17.3134C195.88 14.4218 194.894 12.0388 193.053 10.2644L191.665 11.7043ZM194.084 17.4098L194.12 18.7106L196.119 18.6566L196.084 17.3558L194.084 17.4098ZM194.119 18.6836C194.119 21.407 193.364 23.4903 191.94 25.0376L193.412 26.3921C195.245 24.4003 196.119 21.7961 196.119 18.6836H194.119ZM191.942 25.0351C190.531 26.5585 188.627 27.3516 186.119 27.3516V29.3516C189.096 29.3516 191.563 28.3869 193.409 26.3945L191.942 25.0351ZM186.119 27.3516C183.611 27.3516 181.7 26.5584 180.276 25.0325L178.814 26.3972C180.671 28.3869 183.143 29.3516 186.119 29.3516V27.3516ZM180.278 25.0351C178.862 23.5071 178.102 21.383 178.102 18.543H176.102C176.102 21.7498 176.97 24.407 178.811 26.3945L180.278 25.0351ZM178.102 18.543V18.3145H176.102V18.543H178.102ZM181.182 18.6836C181.182 20.5919 181.537 22.2114 182.385 23.4095L184.018 22.2546C183.506 21.5308 183.182 20.3847 183.182 18.6836H181.182ZM182.388 23.4142C183.273 24.6504 184.563 25.2559 186.119 25.2559V23.2559C185.144 23.2559 184.488 22.9121 184.014 22.2498L182.388 23.4142ZM186.119 25.2559C187.646 25.2559 188.915 24.6526 189.807 23.4432L188.197 22.2561C187.706 22.9216 187.053 23.2559 186.119 23.2559V25.2559ZM189.81 23.4384C190.69 22.2304 191.039 20.4569 191.039 18.3145H189.039C189.039 20.3204 188.697 21.5704 188.194 22.2608L189.81 23.4384ZM191.039 18.3145C191.039 16.4324 190.674 14.8275 189.817 13.6218L188.187 14.7806C188.713 15.5202 189.039 16.6574 189.039 18.3145H191.039ZM189.817 13.6218C188.927 12.3698 187.642 11.7422 186.084 11.7422V13.7422C187.034 13.7422 187.694 14.0872 188.187 14.7806L189.817 13.6218ZM186.084 11.7422C184.533 11.7422 183.258 12.3735 182.381 13.6284L184.021 14.774C184.503 14.0836 185.15 13.7422 186.084 13.7422V11.7422ZM182.385 13.6237C181.527 14.8368 181.182 16.5826 181.182 18.6836H183.182C183.182 16.7299 183.516 15.4874 184.018 14.7786L182.385 13.6237ZM205.086 21.7949L204.122 22.0607L205.086 25.5571L206.05 22.0607L205.086 21.7949ZM208.619 8.98047V7.98047H207.858L207.655 8.71467L208.619 8.98047ZM213.928 8.98047L214.875 9.30011L215.32 7.98047H213.928V8.98047ZM207.512 28V29H208.23L208.459 28.3196L207.512 28ZM202.66 28L201.713 28.3196L201.942 29H202.66V28ZM196.244 8.98047V7.98047H194.851L195.297 9.30011L196.244 8.98047ZM201.553 8.98047L202.517 8.71467L202.314 7.98047H201.553V8.98047ZM206.05 22.0607L209.583 9.24627L207.655 8.71467L204.122 21.5291L206.05 22.0607ZM208.619 9.98047H213.928V7.98047H208.619V9.98047ZM212.98 8.66083L206.564 27.6804L208.459 28.3196L214.875 9.30011L212.98 8.66083ZM207.512 27H202.66V29H207.512V27ZM203.608 27.6804L197.192 8.66083L195.297 9.30011L201.713 28.3196L203.608 27.6804ZM196.244 9.98047H201.553V7.98047H196.244V9.98047ZM200.589 9.24627L204.122 22.0607L206.05 21.5291L202.517 8.71467L200.589 9.24627ZM217.865 25.7852L217.165 26.4994L217.168 26.5018L217.865 25.7852ZM216.354 13.3398L217.251 13.7814L217.252 13.7787L216.354 13.3398ZM219.482 9.85938L219.997 10.7169L219.999 10.7156L219.482 9.85938ZM230.258 11.0898L229.517 11.7617L229.52 11.7646L230.258 11.0898ZM232.508 20.1426V21.1426H233.508V20.1426H232.508ZM220.396 20.1426V19.1426H219.256L219.405 20.2735L220.396 20.1426ZM221.873 23.1309L221.198 23.8689L221.204 23.8736L221.873 23.1309ZM229.607 22.1289L230.353 21.4628L229.554 20.5677L228.818 21.5154L229.607 22.1289ZM232.104 24.9238L232.92 25.5009L233.379 24.8511L232.849 24.2577L232.104 24.9238ZM229.01 27.4551L229.427 28.3638L229.434 28.3606L229.01 27.4551ZM221.645 13.7617L220.913 13.0803L220.906 13.0871L221.645 13.7617ZM220.449 16.6797L219.459 16.5421L219.301 17.6797H220.449V16.6797ZM227.516 16.6797V17.6797H228.516V16.6797H227.516ZM227.516 16.2754H228.516V16.265L228.515 16.2546L227.516 16.2754ZM226.602 13.6738L225.874 14.3601L225.881 14.3669L226.602 13.6738ZM224.686 27.3516C222.118 27.3516 220.108 26.5725 218.563 25.0686L217.168 26.5018C219.138 28.4197 221.675 29.3516 224.686 29.3516V27.3516ZM218.565 25.0709C217.043 23.5792 216.246 21.5742 216.246 18.9473H214.246C214.246 22.0156 215.196 24.5693 217.165 26.4994L218.565 25.0709ZM216.246 18.9473V18.4551H214.246V18.9473H216.246ZM216.246 18.4551C216.246 16.6761 216.589 15.1257 217.251 13.7814L215.456 12.8982C214.641 14.554 214.246 16.4137 214.246 18.4551H216.246ZM217.252 13.7787C217.912 12.4279 218.827 11.4189 219.997 10.7169L218.968 9.00188C217.443 9.91705 216.272 11.2284 215.455 12.901L217.252 13.7787ZM219.999 10.7156C221.188 9.99793 222.553 9.62891 224.123 9.62891V7.62891C222.224 7.62891 220.495 8.0802 218.966 9.00319L219.999 10.7156ZM224.123 9.62891C226.496 9.62891 228.252 10.3669 229.517 11.7617L230.998 10.418C229.287 8.53155 226.953 7.62891 224.123 7.62891V9.62891ZM229.52 11.7646C230.799 13.1639 231.508 15.2166 231.508 18.0684H233.508C233.508 14.8967 232.716 12.297 230.996 10.4151L229.52 11.7646ZM231.508 18.0684V20.1426H233.508V18.0684H231.508ZM232.508 19.1426H220.396V21.1426H232.508V19.1426ZM219.405 20.2735C219.596 21.7174 220.182 22.9398 221.198 23.8689L222.548 22.3928C221.923 21.8219 221.525 21.0521 221.388 20.0116L219.405 20.2735ZM221.204 23.8736C222.243 24.8109 223.541 25.2559 225.02 25.2559V23.2559C223.967 23.2559 223.167 22.9508 222.543 22.3881L221.204 23.8736ZM225.02 25.2559C227.253 25.2559 229.087 24.4284 230.397 22.7424L228.818 21.5154C227.924 22.6654 226.7 23.2559 225.02 23.2559V25.2559ZM228.862 22.795L231.358 25.5899L232.849 24.2577L230.353 21.4628L228.862 22.795ZM231.287 24.3468C230.634 25.2709 229.743 26.0071 228.586 26.5495L229.434 28.3606C230.878 27.6843 232.05 26.733 232.92 25.5009L231.287 24.3468ZM228.592 26.5464C227.436 27.0778 226.139 27.3516 224.686 27.3516V29.3516C226.396 29.3516 227.982 29.0277 229.427 28.3638L228.592 26.5464ZM224.105 11.7422C222.846 11.7422 221.752 12.1789 220.913 13.0803L222.376 14.4431C222.803 13.9852 223.349 13.7422 224.105 13.7422V11.7422ZM220.906 13.0871C220.105 13.9639 219.652 15.1514 219.459 16.5421L221.44 16.8173C221.598 15.6767 221.942 14.9189 222.383 14.4363L220.906 13.0871ZM220.449 17.6797H227.516V15.6797H220.449V17.6797ZM228.516 16.6797V16.2754H226.516V16.6797H228.516ZM228.515 16.2546C228.489 14.9633 228.134 13.8243 227.322 12.9807L225.881 14.3669C226.241 14.7421 226.496 15.3375 226.516 16.2962L228.515 16.2546ZM227.329 12.9876C226.507 12.1165 225.382 11.7422 224.105 11.7422V13.7422C224.985 13.7422 225.524 13.989 225.874 14.36L227.329 12.9876ZM246.096 13.7441L245.961 14.7351L247.079 14.8867L247.096 13.7585L246.096 13.7441ZM240.488 15.5547L239.58 15.1372L239.488 15.3359V15.5547H240.488ZM240.488 28V29H241.488V28H240.488ZM235.408 28H234.408V29H235.408V28ZM235.408 8.98047V7.98047H234.408V8.98047H235.408ZM240.207 8.98047L241.205 8.91857L241.147 7.98047H240.207V8.98047ZM240.348 11.248L239.35 11.3099L239.553 14.592L241.211 11.7523L240.348 11.248ZM246.166 8.85742L247.166 8.87181L247.177 8.12344L246.462 7.90214L246.166 8.85742ZM246.23 12.7532C245.507 12.6552 244.852 12.6035 244.268 12.6035V14.6035C244.738 14.6035 245.301 14.6456 245.961 14.7351L246.23 12.7532ZM244.268 12.6035C242.114 12.6035 240.398 13.3569 239.58 15.1372L241.397 15.9722C241.774 15.1509 242.578 14.6035 244.268 14.6035V12.6035ZM239.488 15.5547V28H241.488V15.5547H239.488ZM240.488 27H235.408V29H240.488V27ZM236.408 28V8.98047H234.408V28H236.408ZM235.408 9.98047H240.207V7.98047H235.408V9.98047ZM239.209 9.04237L239.35 11.3099L241.346 11.1862L241.205 8.91857L239.209 9.04237ZM241.211 11.7523C242.077 10.2687 243.183 9.62891 244.584 9.62891V7.62891C242.375 7.62891 240.657 8.73519 239.484 10.7438L241.211 11.7523ZM244.584 9.62891C245.055 9.62891 245.482 9.69259 245.87 9.81271L246.462 7.90214C245.865 7.71756 245.238 7.62891 244.584 7.62891V9.62891ZM245.166 8.84303L245.096 13.7298L247.096 13.7585L247.166 8.87181L245.166 8.84303Z" fill="#E25822"/>
</svg>
