<svg width="550" height="37" viewBox="0 0 550 37" fill="none" xmlns="http://www.w3.org/2000/svg">
<path fill-rule="evenodd" clip-rule="evenodd" d="M19.8965 29H1.12695V25.2784L10.2396 15.1532C11.5357 13.6832 12.3746 12.5476 12.8104 11.7278L12.8125 11.7238C13.2437 10.9216 13.4492 10.1165 13.4492 9.29688C13.4492 8.17921 13.1187 7.34111 12.5096 6.69668C11.9179 6.07071 11.1183 5.72656 10.002 5.72656C8.58276 5.72656 7.60821 6.12645 6.93889 6.8131M10.9863 15.8184L2.12695 25.6621V28H18.8965V25.3457H6.04688L12.9023 17.9102C16.1133 14.4297 17.7188 11.4297 17.7188 8.91016C17.7188 6.83594 17.0273 5.17773 15.6445 3.93555C14.2617 2.68164 12.3809 2.05469 10.002 2.05469C7.45898 2.05469 5.42578 2.78125 3.90234 4.23438C2.61069 5.47596 1.87085 7.04693 1.68282 8.94727C1.65078 9.27104 1.63477 9.60437 1.63477 9.94727H4.88672C4.88672 8.30664 5.33203 7.0293 6.22266 6.11523C7.125 5.18945 8.38477 4.72656 10.002 4.72656C11.3496 4.72656 12.4277 5.1543 13.2363 6.00977C14.0449 6.86523 14.4492 7.96094 14.4492 9.29688C14.4492 10.293 14.1973 11.2598 13.6934 12.1973C13.2012 13.123 12.2988 14.3301 10.9863 15.8184ZM16.3145 3.19319C14.7017 1.7316 12.5578 1.05469 10.002 1.05469C7.2586 1.05469 4.95888 1.84464 3.21213 3.51077L3.20935 3.51343C1.4764 5.17921 0.634766 7.3566 0.634766 9.94727V10.9473H5.88672V9.94727C5.88672 8.48986 6.27806 7.49139 6.93889 6.8131M16.3145 3.19319C17.9331 4.64803 18.7188 6.58957 18.7188 8.91016C18.7188 11.8248 16.8862 15.0666 13.6375 18.588C13.6375 18.5881 13.6376 18.5879 13.6375 18.588L8.32903 24.3457H19.8965V29M39.8652 4.44727L28.9146 29H23.2935L33.8579 6.07812H20.5684V1.40625H39.8652V4.44727ZM35.4199 5.07812L24.8555 28H28.2656L38.8652 4.23438V2.40625H21.5684V5.07812H35.4199ZM51.8359 32.8331C52.8793 32.8172 53.6944 32.5949 54.2812 32.166C54.9023 31.7207 55.4121 30.9062 55.8105 29.7227L56.5312 27.7891L49.7461 8.98047H53.2969L58.043 23.2363L62.4727 8.98047H65.9531L58.3066 30.9355C57.123 34.0996 55.2422 35.6816 52.6641 35.6816L52.0488 35.6289L50.8359 35.4004V32.7637L51.7148 32.834C51.7555 32.834 51.7959 32.8337 51.8359 32.8331ZM51.7535 31.8339C52.7139 31.8287 53.3206 31.6295 53.6912 31.3586L53.6985 31.3533C54.0716 31.0858 54.4925 30.5036 54.8628 29.4036L54.8679 29.3884L55.4661 27.7834L48.3223 7.98047H54.0179L58.0101 19.9719L61.7362 7.98047H67.3603L59.2473 31.2752L59.2433 31.2859C58.6127 32.9715 57.7644 34.3248 56.652 35.2604C55.522 36.2109 54.1761 36.6816 52.6641 36.6816H52.6213L51.9132 36.6209L49.8359 36.2296V31.6805L51.7535 31.8339ZM69.5026 26.5122L69.5002 26.5097C67.6705 24.5871 66.7988 22.0533 66.7988 19.0176V18.4199C66.7988 16.4049 67.1812 14.5707 67.971 12.9393L67.9725 12.9363C68.7721 11.2983 69.8971 9.99398 71.3507 9.05534C72.809 8.10949 74.4034 7.62891 76.1133 7.62891C78.828 7.62891 81.0512 8.53606 82.644 10.4283C84.2201 12.3008 84.9355 14.8962 84.9355 18.0684V20.4219H72.1372C72.3157 21.611 72.7569 22.5567 73.4258 23.3023C74.2827 24.2333 75.3464 24.6973 76.6934 24.6973C77.7063 24.6973 78.4942 24.4911 79.1043 24.1322C79.7851 23.7317 80.3876 23.1979 80.9118 22.5194L81.5256 21.7251L85.0286 24.4532L84.5276 25.2231C82.7303 27.9852 80.0069 29.3516 76.5176 29.3516C73.6979 29.3516 71.3289 28.4179 69.5026 26.5122ZM72.6855 23.9746C71.8347 23.0282 71.3154 21.844 71.1274 20.4219C71.085 20.1007 71.0594 19.7673 71.0508 19.4219H83.9355V18.0684C83.9355 15.0332 83.25 12.7012 81.8789 11.0723C80.5078 9.44336 78.5859 8.62891 76.1133 8.62891C74.6016 8.62891 73.1953 9.05078 71.8945 9.89453C70.6055 10.7266 69.5977 11.8867 68.8711 13.375C68.1562 14.8516 67.7988 16.5332 67.7988 18.4199V19.0176C67.7988 21.8535 68.6074 24.1211 70.2246 25.8203C71.8418 27.5078 73.9395 28.3516 76.5176 28.3516C79.7051 28.3516 82.0957 27.127 83.6895 24.6777L81.7031 23.1309C81.6903 23.1474 81.6775 23.1639 81.6646 23.1803C81.0756 23.9308 80.3912 24.5354 79.6113 24.9941C78.8145 25.4629 77.8418 25.6973 76.6934 25.6973C75.0762 25.6973 73.7402 25.123 72.6855 23.9746ZM73.542 13.422L73.5379 13.4264C73.0138 13.985 72.6073 14.7452 72.354 15.75H79.6031C79.4402 14.669 79.0853 13.8855 78.5981 13.3338L78.5939 13.329C78.0112 12.6606 77.2227 12.3008 76.1133 12.3008C75.0786 12.3008 74.243 12.6656 73.542 13.422ZM80.613 15.75C80.6453 15.992 80.6688 16.2433 80.6836 16.5039V16.75H71.1562C71.199 16.4008 71.2557 16.0674 71.3264 15.75C71.6045 14.5016 72.0985 13.499 72.8086 12.7422C73.6992 11.7812 74.8008 11.3008 76.1133 11.3008C77.4727 11.3008 78.5508 11.7578 79.3477 12.6719C80.0188 13.4319 80.4406 14.4579 80.613 15.75ZM98.839 29L98.5626 28.4472C98.4797 28.2814 98.4067 28.0897 98.3418 27.876C96.9465 28.8527 95.3544 29.3516 93.5859 29.3516C91.5124 29.3516 89.7244 28.7629 88.3049 27.5226L88.2971 27.5158C86.8851 26.256 86.1699 24.635 86.1699 22.7266C86.1699 20.4515 87.0532 18.6046 88.8321 17.3121C90.5772 16.0409 92.9349 15.4688 95.7832 15.4688H97.9473V14.9746C97.9473 14.0505 97.6789 13.4251 97.2268 12.9808L97.2206 12.9747C96.7902 12.5442 96.0831 12.248 94.9219 12.248C93.9363 12.248 93.1842 12.4939 92.602 12.9284C92.019 13.3635 91.8262 13.7959 91.8262 14.2539V15.2539H86.5566V14.2539C86.5566 13.0518 86.9846 11.93 87.7624 10.9066L87.7636 10.905C88.5563 9.86638 89.6099 9.06533 90.8912 8.49007L90.8946 8.48853C92.1937 7.91117 93.6051 7.62891 95.1152 7.62891C97.4706 7.62891 99.4507 8.2228 100.928 9.53167C102.413 10.8362 103.146 12.6244 103.199 14.7744L103.199 14.7866V23.5527C103.199 25.2301 103.416 26.4662 103.785 27.3223L103.867 27.5121V29H98.839ZM100.266 10.2812C99.0234 9.17969 97.3066 8.62891 95.1152 8.62891C93.7324 8.62891 92.4609 8.88672 91.3008 9.40234C90.1523 9.91797 89.2383 10.6211 88.5586 11.5117C88.1283 12.0779 87.8366 12.6586 87.6835 13.2539C87.5989 13.5828 87.5566 13.9161 87.5566 14.2539H90.8262C90.8262 13.4219 91.2188 12.7129 92.0039 12.127C92.7891 11.541 93.7617 11.248 94.9219 11.248C96.2461 11.248 97.248 11.5879 97.9277 12.2676C98.6074 12.9355 98.9473 13.8379 98.9473 14.9746V16.4688H95.7832C93.0527 16.4688 90.9316 17.0195 89.4199 18.1211C87.9199 19.2109 87.1699 20.7461 87.1699 22.7266C87.1699 24.3555 87.7676 25.7031 88.9629 26.7695C90.1699 27.8242 91.7109 28.3516 93.5859 28.3516C95.2843 28.3516 96.7906 27.8369 98.1048 26.8075C98.4138 26.5655 98.7122 26.295 99 25.9961C99.0573 26.4659 99.123 26.8657 99.1971 27.1955C99.2746 27.5402 99.3612 27.8083 99.457 28H102.867V27.7188C102.771 27.4959 102.685 27.2563 102.61 27C102.336 26.0705 102.199 24.9214 102.199 23.5527V14.7988C102.152 12.877 101.508 11.3711 100.266 10.2812ZM94.0605 24.5215C94.8983 24.5215 95.6935 24.3072 96.4612 23.8643C97.1476 23.4683 97.63 22.9877 97.9473 22.4281V19.7715H96.3984C94.4711 19.7715 93.1896 20.0593 92.4212 20.509C91.7354 20.9104 91.4219 21.4541 91.4219 22.2695C91.4219 23.0426 91.6662 23.541 92.0868 23.8963C92.5518 24.2891 93.1814 24.5215 94.0605 24.5215ZM96.3984 18.7715C92.4141 18.7715 90.4219 19.9375 90.4219 22.2695C90.4219 23.2891 90.7617 24.0859 91.4414 24.6602C92.1211 25.2344 92.9941 25.5215 94.0605 25.5215C95.0801 25.5215 96.0469 25.2578 96.9609 24.7305C97.875 24.2031 98.5371 23.5176 98.9473 22.6738V18.7715H96.3984ZM117.49 13.0789L116.326 12.8848C115.895 12.8131 115.418 12.7754 114.891 12.7754C113.966 12.7754 113.266 12.9716 112.737 13.3036C112.256 13.6057 111.854 14.0583 111.549 14.7111V29H106.297V7.98047H111.437L111.455 8.71229C112.467 7.99631 113.672 7.62891 115.049 7.62891C115.74 7.62891 116.404 7.71378 116.937 7.98057L117.49 8.25697V13.0789ZM111.485 9.97743C111.128 10.3144 110.804 10.7145 110.514 11.1777L110.461 8.98047H107.297V28H110.549V14.5C111.311 12.6836 112.758 11.7754 114.891 11.7754C115.096 11.7754 115.296 11.7806 115.49 11.7911C115.841 11.8099 116.174 11.8457 116.49 11.8984V8.875C116.162 8.71094 115.682 8.62891 115.049 8.62891C113.625 8.62891 112.437 9.07841 111.485 9.97743ZM127.756 12.8484L127.758 12.8427C128.572 11.2025 129.713 9.90753 131.185 8.99251L131.188 8.99039C132.672 8.07624 134.351 7.62891 136.195 7.62891C139.045 7.62891 141.418 8.62882 143.217 10.6531C143.218 10.6534 143.218 10.6537 143.218 10.654L142.471 11.3184L143.216 10.6513C143.216 10.6519 143.217 10.6525 143.217 10.6531C145.022 12.6699 145.879 15.3117 145.879 18.4727V18.7012C145.879 20.6839 145.495 22.4998 144.707 24.1286C143.925 25.7557 142.786 27.0452 141.294 27.9699M143.807 23.6934C143.104 25.1582 142.09 26.3008 140.766 27.1211C139.453 27.9414 137.941 28.3516 136.23 28.3516C133.652 28.3516 131.561 27.4551 129.955 25.6621C128.361 23.8691 127.564 21.4961 127.564 18.543V18.3145C127.564 16.4512 127.928 14.7754 128.654 13.2871C129.393 11.7988 130.412 10.6504 131.713 9.8418M139.342 13.8634L139.335 13.8554C138.541 12.8061 137.525 12.3008 136.195 12.3008C134.902 12.3008 133.899 12.7942 133.103 13.8272C132.304 14.8638 131.834 16.4424 131.834 18.7012C131.834 20.6586 132.284 22.1173 133.086 23.1726C133.877 24.1981 134.894 24.6973 136.23 24.6973C137.577 24.6973 138.59 24.1937 139.369 23.163C140.166 22.0959 140.627 20.5202 140.627 18.3145C140.627 16.3871 140.168 14.9335 139.342 13.8634ZM140.168 23.7637C139.195 25.0527 137.883 25.6973 136.23 25.6973C134.59 25.6973 133.277 25.0586 132.293 23.7812C131.32 22.5039 130.834 20.8105 130.834 18.7012C130.834 16.3223 131.326 14.4941 132.311 13.2168C133.295 11.9395 134.59 11.3008 136.195 11.3008C137.836 11.3008 139.148 11.9512 140.133 13.252C141.129 14.541 141.627 16.2285 141.627 18.3145C141.627 20.6465 141.141 22.4629 140.168 23.7637ZM153.49 29H148.238V0H153.49V29ZM168.892 26.8955C169.227 26.6224 169.537 26.3109 169.822 25.9609L169.98 28H172.969V1H169.717V10.9141C169.409 10.554 169.076 10.2364 168.717 9.96144C167.556 9.07308 166.126 8.62891 164.426 8.62891C162.188 8.62891 160.377 9.51953 158.994 11.3008C157.611 13.0703 156.92 15.4141 156.92 18.332V18.5781C156.92 21.4844 157.611 23.8398 158.994 25.6445C160.389 27.4492 162.188 28.3516 164.391 28.3516C166.201 28.3516 167.702 27.8662 168.892 26.8955ZM168.983 28.0709C167.697 28.9308 166.153 29.3516 164.391 29.3516C161.865 29.3516 159.779 28.2957 158.203 26.256L158.2 26.2528C156.651 24.2301 155.92 21.6425 155.92 18.5781V18.332C155.92 15.2588 156.649 12.678 158.205 10.6863C159.776 8.66401 161.876 7.62891 164.426 7.62891C166.049 7.62891 167.491 7.99827 168.717 8.74976V0H173.969V29H169.055L168.983 28.0709ZM161.172 18.7012C161.172 20.7331 161.593 22.1855 162.315 23.1737C163.009 24.1228 163.933 24.5918 165.199 24.5918C166.077 24.5918 166.781 24.3964 167.352 24.0456C167.872 23.7255 168.332 23.2452 168.717 22.5631V14.3426C168.326 13.6897 167.867 13.2276 167.352 12.9185C166.784 12.5773 166.09 12.3887 165.234 12.3887C163.943 12.3887 163.01 12.8648 162.318 13.8207C161.604 14.8066 161.172 16.3829 161.172 18.7012ZM169.717 14.0781V22.8145C168.768 24.666 167.262 25.5918 165.199 25.5918C163.629 25.5918 162.398 24.9824 161.508 23.7637C160.617 22.5449 160.172 20.8574 160.172 18.7012C160.172 16.2871 160.617 14.4648 161.508 13.2344C162.398 12.0039 163.641 11.3887 165.234 11.3887C167.25 11.3887 168.744 12.2852 169.717 14.0781ZM207.421 18.8789L207.29 19.995C206.951 22.8926 205.862 25.2335 203.95 26.9069C202.049 28.5683 199.561 29.3516 196.594 29.3516C193.298 29.3516 190.584 28.154 188.552 25.7443L188.55 25.7418C186.544 23.3477 185.592 20.198 185.592 16.3984V13.9375C185.592 11.4403 186.035 9.1991 186.952 7.23858L186.954 7.23376C187.884 5.27163 189.215 3.73498 190.952 2.66351C192.687 1.58173 194.678 1.05469 196.893 1.05469C199.806 1.05469 202.247 1.87612 204.11 3.60544C205.966 5.31599 207.003 7.65972 207.292 10.5329L207.402 11.6328H202.038L201.914 10.775C201.638 8.84755 201.056 7.63037 200.308 6.93592L200.303 6.93185C199.569 6.24156 198.479 5.83203 196.893 5.83203C195.022 5.83203 193.632 6.50386 192.606 7.83123C191.571 9.1859 190.984 11.206 190.984 14.0254V16.5039C190.984 19.1514 191.538 21.1352 192.541 22.5535C193.506 23.9173 194.818 24.5918 196.594 24.5918C198.333 24.5918 199.502 24.1994 200.253 23.5638M191.812 7.22266C193.043 5.62891 194.736 4.83203 196.893 4.83203C198.65 4.83203 200.016 5.28906 200.988 6.20312C201.973 7.11719 202.611 8.59375 202.904 10.6328H206.297C206.262 10.2899 206.217 9.95658 206.16 9.63281C205.772 7.42272 204.863 5.6584 203.432 4.33984C201.791 2.81641 199.611 2.05469 196.893 2.05469C194.842 2.05469 193.037 2.54102 191.479 3.51367C189.92 4.47461 188.713 5.85742 187.857 7.66211C187.014 9.4668 186.592 11.5586 186.592 13.9375V16.3984C186.592 20.0312 187.5 22.9316 189.316 25.0996C191.145 27.2676 193.57 28.3516 196.594 28.3516C199.383 28.3516 201.615 27.6191 203.291 26.1543C204.765 24.8649 205.715 23.1065 206.143 20.8789C206.206 20.5555 206.257 20.2221 206.297 19.8789H202.904C202.576 21.9883 201.908 23.4707 200.9 24.3262C199.904 25.1699 198.469 25.5918 196.594 25.5918C194.508 25.5918 192.885 24.7715 191.725 23.1309C190.564 21.4902 189.984 19.2812 189.984 16.5039V14.0254C189.984 11.084 190.594 8.81641 191.812 7.22266ZM207.421 18.8789H206.297ZM206.297 18.8789H202.048ZM202.048 18.8789L201.916 19.7252ZM201.916 19.7252C201.604 21.7336 200.995 22.9337 200.254 23.5631ZM226.369 15.4239L226.369 15.4316L226.369 29H221.117V15.4191C221.106 14.1756 220.817 13.4575 220.442 13.0604L220.435 13.0535C220.087 12.6786 219.453 12.3887 218.303 12.3887C217.437 12.3887 216.716 12.6158 216.102 13.0494C215.506 13.4704 215.026 14.0117 214.662 14.6881V29H209.41V0H214.662V8.99786C215.986 8.08807 217.537 7.62891 219.287 7.62891C221.485 7.62891 223.308 8.25443 224.568 9.66308C225.807 11.0493 226.351 13.0292 226.369 15.4239ZM214.662 10.2559C214.308 10.5566 213.975 10.8991 213.662 11.2832V1H210.41V28H213.662V14.4473C214.107 13.5332 214.729 12.7949 215.525 12.2324C216.322 11.6699 217.248 11.3887 218.303 11.3887C219.604 11.3887 220.559 11.7168 221.168 12.373C221.789 13.0293 222.105 14.043 222.117 15.4141V28H225.369V15.4316C225.334 10.8965 223.307 8.62891 219.287 8.62891C217.48 8.62891 215.938 9.17124 214.662 10.2559ZM234.771 29H229.52V7.98047H234.771V29ZM229.982 1.93602L229.988 1.92932C230.558 1.29872 231.344 1.05469 232.172 1.05469C233 1.05469 233.786 1.29872 234.355 1.92932C234.863 2.49128 235.105 3.18137 235.105 3.93555C235.105 4.68956 234.863 5.38091 234.344 5.93622C233.772 6.54902 232.99 6.78125 232.172 6.78125C231.354 6.78125 230.571 6.54902 229.999 5.93622L229.993 5.9296L229.987 5.92287C229.486 5.36615 229.256 4.67935 229.256 3.93555C229.256 3.19139 229.486 2.50592 229.976 1.94283L229.982 1.93602ZM243.025 7.98047L243.075 9.11852C244.436 8.12943 246.043 7.62891 247.869 7.62891C250.067 7.62891 251.89 8.25443 253.15 9.66308C254.389 11.0493 254.933 13.0292 254.951 15.4239L254.951 15.4316L254.951 29H249.699V15.4191C249.688 14.1756 249.4 13.4575 249.024 13.0604L249.017 13.0535C248.669 12.6786 248.035 12.3887 246.885 12.3887C246.019 12.3887 245.298 12.6158 244.684 13.0494C244.088 13.4704 243.608 14.0117 243.244 14.6881V29H237.992V7.98047H243.025ZM242.244 14.4473C242.689 13.5332 243.311 12.7949 244.107 12.2324C244.904 11.6699 245.83 11.3887 246.885 11.3887C248.186 11.3887 249.141 11.7168 249.75 12.373C250.371 13.0293 250.688 14.043 250.699 15.4141V28H253.951V15.4316C253.916 10.8965 251.889 8.62891 247.869 8.62891C246.009 8.62891 244.429 9.20473 243.13 10.3564C242.792 10.6557 242.474 10.9939 242.174 11.3711L242.068 8.98047H238.992V28H242.244V14.4473ZM259.733 26.5122L259.731 26.5097C257.901 24.5871 257.029 22.0533 257.029 19.0176V18.4199C257.029 16.4049 257.412 14.5707 258.202 12.9393L258.203 12.9363C259.003 11.2983 260.128 9.99398 261.581 9.05534C263.04 8.10949 264.634 7.62891 266.344 7.62891C269.059 7.62891 271.282 8.53606 272.874 10.4283C274.451 12.3008 275.166 14.8962 275.166 18.0684V20.4219H262.368C262.546 21.6103 262.987 22.5555 263.655 23.301C264.512 24.2328 265.576 24.6973 266.924 24.6973C267.937 24.6973 268.725 24.4911 269.335 24.1322C270.016 23.7317 270.618 23.1979 271.142 22.5194L271.756 21.7251L275.259 24.4532L274.758 25.2231C272.961 27.9852 270.237 29.3516 266.748 29.3516C263.928 29.3516 261.559 28.4179 259.733 26.5122ZM261.358 20.4219C261.546 21.844 262.065 23.0282 262.916 23.9746C263.971 25.123 265.307 25.6973 266.924 25.6973C268.072 25.6973 269.045 25.4629 269.842 24.9941C270.622 24.5354 271.306 23.9307 271.895 23.1801C271.908 23.1638 271.921 23.1474 271.934 23.1309L273.92 24.6777C272.326 27.127 269.936 28.3516 266.748 28.3516C264.17 28.3516 262.072 27.5078 260.455 25.8203C258.838 24.1211 258.029 21.8535 258.029 19.0176V18.4199C258.029 16.5332 258.387 14.8516 259.102 13.375C259.828 11.8867 260.836 10.7266 262.125 9.89453C263.426 9.05078 264.832 8.62891 266.344 8.62891C268.816 8.62891 270.738 9.44336 272.109 11.0723C273.48 12.7012 274.166 15.0332 274.166 18.0684V19.4219H261.281C261.29 19.7673 261.315 20.1007 261.358 20.4219ZM263.772 13.422L263.768 13.4264C263.244 13.985 262.838 14.7452 262.584 15.75H269.834C269.671 14.669 269.316 13.8855 268.829 13.3338L268.824 13.329C268.242 12.6606 267.453 12.3008 266.344 12.3008C265.309 12.3008 264.474 12.6656 263.772 13.422ZM270.843 15.75C270.876 15.992 270.899 16.2433 270.914 16.5039V16.75H261.387C261.429 16.4008 261.486 16.0674 261.557 15.75C261.835 14.5016 262.329 13.499 263.039 12.7422C263.93 11.7812 265.031 11.3008 266.344 11.3008C267.703 11.3008 268.781 11.7578 269.578 12.6719C270.249 13.4319 270.671 14.4579 270.843 15.75ZM287.426 21.722L287.418 21.716C286.946 21.3625 285.976 20.9752 284.347 20.6285L284.345 20.6282C282.66 20.2672 281.262 19.8229 280.183 19.277L280.179 19.2748C279.115 18.7297 278.254 18.046 277.667 17.1947L277.66 17.185C277.077 16.3173 276.805 15.3078 276.805 14.2012C276.805 12.314 277.619 10.722 279.139 9.47337L279.142 9.4706C280.679 8.21959 282.603 7.62891 284.836 7.62891C287.168 7.62891 289.159 8.23427 290.714 9.53061C292.288 10.8318 293.096 12.5364 293.096 14.5703V15.5703H287.826V14.5703C287.826 14.0114 287.605 13.5112 287.038 13.031L287.032 13.026C286.492 12.562 285.786 12.3008 284.836 12.3008C283.786 12.3008 283.104 12.5303 282.67 12.8658C282.243 13.1952 282.057 13.5787 282.057 14.0957C282.057 14.5664 282.215 14.8286 282.528 15.0294C282.989 15.3248 283.954 15.6762 285.563 16.0377C287.238 16.411 288.641 16.8668 289.748 17.42C290.861 17.9764 291.756 18.6847 292.358 19.5766C292.985 20.4759 293.271 21.5446 293.271 22.7266C293.271 24.7401 292.444 26.3996 290.837 27.619L290.832 27.6223C289.257 28.8036 287.266 29.3516 284.941 29.3516C283.3 29.3516 281.805 29.0607 280.481 28.4515C279.164 27.8457 278.098 26.9859 277.318 25.8637L277.31 25.8523C276.547 24.7219 276.154 23.4797 276.154 22.1465V21.1465H281.354L281.405 22.0928C281.449 22.9124 281.757 23.5062 282.324 23.9611C282.924 24.4213 283.766 24.6973 284.941 24.6973C286.047 24.6973 286.817 24.4752 287.338 24.1279C287.839 23.7911 288.02 23.4211 288.02 22.9551C288.02 22.3722 287.82 22.0059 287.434 21.7278L287.426 21.722ZM287.895 24.959C287.156 25.4512 286.172 25.6973 284.941 25.6973C283.605 25.6973 282.527 25.3809 281.707 24.748C280.898 24.1035 280.465 23.2363 280.406 22.1465H277.154C277.154 22.4868 277.184 22.8201 277.244 23.1465C277.383 23.899 277.681 24.6145 278.139 25.293C278.807 26.2539 279.727 27.0039 280.898 27.543C282.07 28.082 283.418 28.3516 284.941 28.3516C287.109 28.3516 288.873 27.8418 290.232 26.8223C291.592 25.791 292.271 24.4258 292.271 22.7266C292.271 21.707 292.025 20.8457 291.533 20.1426C291.053 19.4277 290.309 18.8184 289.301 18.3145C288.293 17.8105 286.975 17.377 285.346 17.0137C283.729 16.6504 282.609 16.2695 281.988 15.8711C281.367 15.4727 281.057 14.8809 281.057 14.0957C281.057 13.2637 281.391 12.5898 282.059 12.0742C282.727 11.5586 283.652 11.3008 284.836 11.3008C285.984 11.3008 286.934 11.623 287.684 12.2676C288.445 12.9121 288.826 13.6797 288.826 14.5703H292.096C292.096 14.2246 292.069 13.8913 292.015 13.5703C291.8 12.2807 291.153 11.1902 290.074 10.2988C288.738 9.18555 286.992 8.62891 284.836 8.62891C282.785 8.62891 281.098 9.16797 279.773 10.2461C278.461 11.3242 277.805 12.6426 277.805 14.2012C277.805 15.1387 278.033 15.9473 278.49 16.627C278.959 17.3066 279.674 17.8926 280.635 18.3848C281.607 18.877 282.914 19.2988 284.555 19.6504C286.207 20.002 287.361 20.4238 288.018 20.916C288.686 21.3965 289.02 22.0762 289.02 22.9551C289.02 23.7871 288.645 24.4551 287.895 24.959ZM297.385 26.5122L297.383 26.5097C295.553 24.5871 294.682 22.0533 294.682 19.0176V18.4199C294.682 16.4049 295.064 14.5707 295.854 12.9393L295.855 12.9363C296.655 11.2983 297.78 9.99398 299.234 9.05534C300.692 8.10949 302.286 7.62891 303.996 7.62891C306.711 7.62891 308.934 8.53606 310.527 10.4283C312.103 12.3008 312.818 14.8962 312.818 18.0684V20.4219H300.02C300.198 21.6103 300.639 22.5555 301.307 23.301C302.165 24.2328 303.229 24.6973 304.576 24.6973C305.589 24.6973 306.377 24.4911 306.987 24.1322C307.668 23.7317 308.27 23.1979 308.795 22.5194L309.408 21.7251L312.911 24.4532L312.41 25.2231C310.613 27.9852 307.89 29.3516 304.4 29.3516C301.581 29.3516 299.212 28.4179 297.385 26.5122ZM299.01 20.4219C299.198 21.844 299.718 23.0282 300.568 23.9746C301.623 25.123 302.959 25.6973 304.576 25.6973C305.725 25.6973 306.697 25.4629 307.494 24.9941C308.274 24.5354 308.958 23.9307 309.548 23.1801C309.56 23.1638 309.573 23.1474 309.586 23.1309L311.572 24.6777C309.979 27.127 307.588 28.3516 304.4 28.3516C301.822 28.3516 299.725 27.5078 298.107 25.8203C296.49 24.1211 295.682 21.8535 295.682 19.0176V18.4199C295.682 16.5332 296.039 14.8516 296.754 13.375C297.48 11.8867 298.488 10.7266 299.777 9.89453C301.078 9.05078 302.484 8.62891 303.996 8.62891C306.469 8.62891 308.391 9.44336 309.762 11.0723C311.133 12.7012 311.818 15.0332 311.818 18.0684V19.4219H298.934C298.942 19.7673 298.968 20.1007 299.01 20.4219ZM301.425 13.422L301.421 13.4264C300.897 13.985 300.49 14.7452 300.237 15.75H307.486C307.323 14.669 306.968 13.8855 306.481 13.3338L306.477 13.329C305.894 12.6606 305.106 12.3008 303.996 12.3008C302.961 12.3008 302.126 12.6656 301.425 13.422ZM308.496 15.75C308.528 15.992 308.552 16.2433 308.566 16.5039V16.75H299.039C299.082 16.4008 299.139 16.0674 299.209 15.75C299.487 14.5016 299.981 13.499 300.691 12.7422C301.582 11.7812 302.684 11.3008 303.996 11.3008C305.355 11.3008 306.434 11.7578 307.23 12.6719C307.902 13.4319 308.323 14.4579 308.496 15.75ZM339.423 26.3174L339.421 26.3199C337.892 28.3321 335.802 29.3516 333.246 29.3516C331.421 29.3516 329.83 28.9021 328.519 27.9865L328.446 29H323.527V0H328.779V8.8329C330.034 8.02639 331.523 7.62891 333.211 7.62891C335.812 7.62891 337.926 8.63244 339.439 10.6438C340.938 12.6196 341.629 15.249 341.629 18.4199V18.7012C341.629 21.7573 340.926 24.3272 339.423 26.3174ZM338.643 11.248C337.33 9.50195 335.52 8.62891 333.211 8.62891C331.441 8.62891 329.964 9.10765 328.779 10.0651C328.419 10.3565 328.086 10.6922 327.779 11.0723V1H324.527V28H327.516L327.674 25.8027C327.959 26.1715 328.269 26.5003 328.605 26.789C329.818 27.8307 331.365 28.3516 333.246 28.3516C335.496 28.3516 337.289 27.4727 338.625 25.7148C339.961 23.9453 340.629 21.6074 340.629 18.7012V18.4199C340.629 15.3848 339.967 12.9941 338.643 11.248ZM336.377 18.332C336.377 16.227 335.967 14.7504 335.278 13.7775C334.628 12.8603 333.716 12.3887 332.402 12.3887C331.49 12.3887 330.764 12.5987 330.181 12.9756C329.641 13.3244 329.168 13.8526 328.779 14.6091V22.3588C329.192 23.1184 329.682 23.651 330.231 24.003C330.824 24.3835 331.546 24.5918 332.438 24.5918C333.693 24.5918 334.595 24.1287 335.264 23.1978C335.954 22.238 336.377 20.6694 336.377 18.332ZM327.779 22.6035V14.377C328.717 12.3848 330.258 11.3887 332.402 11.3887C334.008 11.3887 335.238 11.9922 336.094 13.1992C336.949 14.4062 337.377 16.1172 337.377 18.332C337.377 20.7578 336.943 22.5742 336.076 23.7812C335.209 24.9883 333.996 25.5918 332.438 25.5918C330.328 25.5918 328.775 24.5957 327.779 22.6035ZM344.072 12.8484L344.075 12.8427C344.888 11.2025 346.029 9.90753 347.501 8.99251L347.505 8.99039C348.989 8.07624 350.667 7.62891 352.512 7.62891C355.36 7.62891 357.733 8.62823 359.532 10.6513C361.338 12.6684 362.195 15.3107 362.195 18.4727V18.7012C362.195 20.6829 361.812 22.4979 361.025 24.1261C360.243 25.7544 359.103 27.0447 357.611 27.9699C356.123 28.8993 354.424 29.3516 352.547 29.3516C349.707 29.3516 347.336 28.3504 345.526 26.3292L345.524 26.3265C343.732 24.3107 342.881 21.682 342.881 18.543V18.3145C342.881 16.3183 343.271 14.4895 344.072 12.8484ZM357.082 27.1211C358.406 26.3008 359.42 25.1582 360.123 23.6934C360.838 22.2168 361.195 20.5527 361.195 18.7012V18.4727C361.195 15.4961 360.393 13.1113 358.787 11.3184C357.193 9.52539 355.102 8.62891 352.512 8.62891C350.836 8.62891 349.342 9.0332 348.029 9.8418C346.729 10.6504 345.709 11.7988 344.971 13.2871C344.244 14.7754 343.881 16.4512 343.881 18.3145V18.543C343.881 21.4961 344.678 23.8691 346.271 25.6621C347.877 27.4551 349.969 28.3516 352.547 28.3516C354.258 28.3516 355.77 27.9414 357.082 27.1211ZM355.658 13.8634L355.652 13.8554C354.858 12.8061 353.841 12.3008 352.512 12.3008C351.218 12.3008 350.215 12.7942 349.419 13.8272C348.62 14.8638 348.15 16.4424 348.15 18.7012C348.15 20.6586 348.6 22.1173 349.403 23.1726C350.194 24.1981 351.211 24.6973 352.547 24.6973C353.893 24.6973 354.905 24.1944 355.684 23.1648C356.481 22.0978 356.943 20.5215 356.943 18.3145C356.943 16.3871 356.485 14.9335 355.658 13.8634ZM375.467 13.0789L374.302 12.8848C373.872 12.8131 373.394 12.7754 372.867 12.7754C371.942 12.7754 371.243 12.9716 370.714 13.3036C370.232 13.6057 369.831 14.0583 369.525 14.7111V29H364.273V7.98047H369.414L369.431 8.71228C370.444 7.99631 371.648 7.62891 373.025 7.62891C373.716 7.62891 374.38 7.71378 374.914 7.98057L375.467 8.25697V13.0789ZM369.462 9.97741C369.105 10.3144 368.781 10.7145 368.49 11.1777L368.438 8.98047H365.273V28H368.525V14.5C369.287 12.6836 370.734 11.7754 372.867 11.7754C373.072 11.7754 373.272 11.7806 373.467 11.7911C373.817 11.8099 374.15 11.8457 374.467 11.8984V8.875C374.139 8.71094 373.658 8.62891 373.025 8.62891C371.602 8.62891 370.414 9.07841 369.462 9.97741ZM381.506 7.98047L381.556 9.11852C382.917 8.12943 384.524 7.62891 386.35 7.62891C388.547 7.62891 390.371 8.25443 391.63 9.66308C392.87 11.0493 393.413 13.0292 393.432 15.4239L393.432 15.4316L393.432 29H388.18L388.18 15.4226C388.18 15.4214 388.18 15.4203 388.18 15.4191C388.169 14.1756 387.88 13.4575 387.504 13.0604L387.498 13.0535C387.15 12.6786 386.515 12.3887 385.365 12.3887C384.499 12.3887 383.779 12.6158 383.165 13.0494C382.568 13.4704 382.089 14.0117 381.725 14.6881V29H376.473V7.98047H381.506ZM380.725 14.4473C381.17 13.5332 381.791 12.7949 382.588 12.2324C383.385 11.6699 384.311 11.3887 385.365 11.3887C386.666 11.3887 387.621 11.7168 388.23 12.373C388.852 13.0293 389.168 14.043 389.18 15.4141V28H392.432V15.4316C392.396 10.8965 390.369 8.62891 386.35 8.62891C384.489 8.62891 382.91 9.20473 381.611 10.3564C381.273 10.6557 380.954 10.9939 380.654 11.3711L380.549 8.98047H377.473V28H380.725V14.4473ZM410.799 29H405.547V7.98047H410.799V29ZM406.01 1.93602L406.016 1.92932C406.585 1.29872 407.371 1.05469 408.199 1.05469C409.027 1.05469 409.813 1.29872 410.383 1.92932C410.89 2.49128 411.133 3.18137 411.133 3.93555C411.133 4.68956 410.89 5.38091 410.372 5.93622C409.8 6.54902 409.017 6.78125 408.199 6.78125C407.381 6.78125 406.599 6.54902 406.027 5.93622L406.021 5.9296L406.015 5.92287C405.513 5.36615 405.283 4.67935 405.283 3.93555C405.283 3.19139 405.513 2.50592 406.004 1.94283L406.01 1.93602ZM419.053 7.98047L419.103 9.11852C420.464 8.12943 422.071 7.62891 423.896 7.62891C426.094 7.62891 427.918 8.25443 429.177 9.66308C430.416 11.0493 430.96 13.0292 430.978 15.4239L430.979 15.4316L430.979 29H425.727L425.727 15.4226C425.727 15.4214 425.727 15.4203 425.727 15.4191C425.715 14.1756 425.427 13.4575 425.051 13.0604L425.045 13.0535C424.696 12.6786 424.062 12.3887 422.912 12.3887C422.046 12.3887 421.326 12.6158 420.711 13.0494C420.115 13.4704 419.636 14.0117 419.271 14.6881V29H414.02V7.98047H419.053ZM418.271 14.4473C418.717 13.5332 419.338 12.7949 420.135 12.2324C420.932 11.6699 421.857 11.3887 422.912 11.3887C424.213 11.3887 425.168 11.7168 425.777 12.373C426.398 13.0293 426.715 14.043 426.727 15.4141V28H429.979V15.4316C429.943 10.8965 427.916 8.62891 423.896 8.62891C422.036 8.62891 420.457 9.20473 419.157 10.3564C418.82 10.6557 418.501 10.9939 418.201 11.3711L418.096 8.98047H415.02V28H418.271V14.4473ZM459.438 17.6973H448.697V29H443.322V1.40625H461.178V6.18359H448.697V12.9375H459.438V17.6973ZM447.697 13.9375V5.18359H460.178V2.40625H444.322V28H447.697V16.6973H458.438V13.9375H447.697ZM473.447 13.0789L472.283 12.8848C471.852 12.8131 471.375 12.7754 470.848 12.7754C469.923 12.7754 469.223 12.9716 468.694 13.3036C468.213 13.6057 467.811 14.0583 467.506 14.7111V29H462.254V7.98047H467.394L467.412 8.71228C468.424 7.99631 469.629 7.62891 471.006 7.62891C471.697 7.62891 472.361 7.71378 472.894 7.98057L473.447 8.25697V13.0789ZM467.442 9.97741C467.085 10.3144 466.761 10.7145 466.471 11.1777L466.418 8.98047H463.254V28H466.506V14.5C467.268 12.6836 468.715 11.7754 470.848 11.7754C471.053 11.7754 471.253 11.7806 471.447 11.7911C471.798 11.8099 472.131 11.8457 472.447 11.8984V8.875C472.119 8.71094 471.639 8.62891 471.006 8.62891C469.582 8.62891 468.395 9.07841 467.442 9.97741ZM485.874 29L485.598 28.4472C485.515 28.2814 485.442 28.0897 485.377 27.876C483.982 28.8527 482.39 29.3516 480.621 29.3516C478.548 29.3516 476.76 28.7629 475.34 27.5226L475.332 27.5158C473.92 26.256 473.205 24.635 473.205 22.7266C473.205 20.452 474.088 18.6054 475.866 17.3129C477.611 16.0412 479.969 15.4688 482.818 15.4688H484.982V14.9746C484.982 14.0505 484.714 13.4251 484.262 12.9808L484.256 12.9747C483.825 12.5442 483.118 12.248 481.957 12.248C480.971 12.248 480.219 12.4939 479.637 12.9284C479.054 13.3635 478.861 13.7959 478.861 14.2539V15.2539H473.592V14.2539C473.592 13.0518 474.02 11.93 474.798 10.9066L474.799 10.905C475.591 9.86638 476.645 9.06533 477.926 8.49007L477.93 8.48853C479.229 7.91117 480.64 7.62891 482.15 7.62891C484.506 7.62891 486.485 8.22269 487.962 9.53131C489.448 10.8358 490.182 12.6242 490.234 14.7744L490.234 14.7866V23.5527C490.234 25.2301 490.451 26.4662 490.82 27.3223L490.902 27.5121V29H485.874ZM487.301 10.2812C486.059 9.17969 484.342 8.62891 482.15 8.62891C480.768 8.62891 479.496 8.88672 478.336 9.40234C477.188 9.91797 476.273 10.6211 475.594 11.5117C475.163 12.0779 474.872 12.6586 474.719 13.2539C474.634 13.5828 474.592 13.9161 474.592 14.2539H477.861C477.861 13.4219 478.254 12.7129 479.039 12.127C479.824 11.541 480.797 11.248 481.957 11.248C483.281 11.248 484.283 11.5879 484.963 12.2676C485.643 12.9355 485.982 13.8379 485.982 14.9746V16.4688H482.818C480.088 16.4688 477.967 17.0195 476.455 18.1211C474.955 19.2109 474.205 20.7461 474.205 22.7266C474.205 24.3555 474.803 25.7031 475.998 26.7695C477.205 27.8242 478.746 28.3516 480.621 28.3516C482.319 28.3516 483.826 27.8369 485.14 26.8075C485.449 26.5655 485.747 26.295 486.035 25.9961C486.092 26.4659 486.158 26.8657 486.232 27.1955C486.31 27.5402 486.396 27.8083 486.492 28H489.902V27.7188C489.806 27.4959 489.72 27.2563 489.645 27C489.371 26.0705 489.234 24.9214 489.234 23.5527V14.7988C489.188 12.877 488.543 11.3711 487.301 10.2812ZM481.096 24.5215C481.934 24.5215 482.729 24.3072 483.496 23.8643C484.183 23.4683 484.665 22.9877 484.982 22.4281V19.7715H483.434C481.506 19.7715 480.225 20.0593 479.456 20.509C478.771 20.9104 478.457 21.4541 478.457 22.2695C478.457 23.0426 478.701 23.541 479.122 23.8963C479.587 24.2891 480.217 24.5215 481.096 24.5215ZM483.434 18.7715C479.449 18.7715 477.457 19.9375 477.457 22.2695C477.457 23.2891 477.797 24.0859 478.477 24.6602C479.156 25.2344 480.029 25.5215 481.096 25.5215C482.115 25.5215 483.082 25.2578 483.996 24.7305C484.91 24.2031 485.572 23.5176 485.982 22.6738V18.7715H483.434ZM498.365 7.98047L498.415 9.11852C499.776 8.12943 501.383 7.62891 503.209 7.62891C505.407 7.62891 507.23 8.25443 508.49 9.66308C509.729 11.0493 510.272 13.0292 510.291 15.4239L510.291 15.4316L510.291 29H505.039L505.039 15.4226C505.039 15.4214 505.039 15.4203 505.039 15.4191C505.028 14.1756 504.739 13.4575 504.364 13.0604L504.357 13.0535C504.009 12.6786 503.375 12.3887 502.225 12.3887C501.359 12.3887 500.638 12.6158 500.024 13.0494C499.428 13.4704 498.948 14.0117 498.584 14.6881V29H493.332V7.98047H498.365ZM497.584 14.4473C498.029 13.5332 498.65 12.7949 499.447 12.2324C500.244 11.6699 501.17 11.3887 502.225 11.3887C503.525 11.3887 504.48 11.7168 505.09 12.373C505.711 13.0293 506.027 14.043 506.039 15.4141V28H509.291V15.4316C509.256 10.8965 507.229 8.62891 503.209 8.62891C501.349 8.62891 499.769 9.20473 498.47 10.3564C498.132 10.6557 497.813 10.9939 497.514 11.3711L497.408 8.98047H494.332V28H497.584V14.4473ZM525.392 21.0059H530.438L530.381 22.0595C530.312 23.3554 529.864 24.5704 529.076 25.692C528.283 26.8207 527.228 27.71 525.934 28.3638C524.645 29.0213 523.271 29.3516 521.824 29.3516C518.988 29.3516 516.639 28.3958 514.89 26.4329L514.885 26.4275C513.159 24.4616 512.352 21.8345 512.352 18.666V18.1211C512.352 16.1458 512.715 14.3499 513.467 12.7551C514.222 11.1531 515.319 9.88322 516.756 8.97799L516.76 8.97578C518.219 8.06554 519.914 7.62891 521.807 7.62891C524.154 7.62891 526.172 8.33833 527.785 9.80193C529.416 11.2716 530.277 13.1881 530.382 15.4736L530.43 16.5195H525.38L525.31 15.5955C525.233 14.5963 524.865 13.8293 524.219 13.2282L524.214 13.2233L524.209 13.2183C523.576 12.6126 522.799 12.3008 521.807 12.3008C520.431 12.3008 519.456 12.78 518.751 13.7012C518.035 14.6416 517.604 16.1076 517.604 18.2441V18.8594C517.604 20.931 518.032 22.3714 518.752 23.3156C519.44 24.2174 520.416 24.6973 521.824 24.6973C522.765 24.6973 523.554 24.4185 524.235 23.8658C524.905 23.3228 525.242 22.6866 525.311 21.9173L525.392 21.0059ZM517.957 13.0938C518.871 11.8984 520.154 11.3008 521.807 11.3008C523.037 11.3008 524.068 11.6992 524.9 12.4961C525.744 13.2812 526.213 14.2891 526.307 15.5195H529.383C529.367 15.1753 529.332 14.842 529.279 14.5195C529.015 12.9315 528.294 11.6067 527.115 10.5449C525.709 9.26758 523.939 8.62891 521.807 8.62891C520.072 8.62891 518.566 9.02734 517.289 9.82422C516.023 10.6211 515.051 11.7402 514.371 13.1816C513.691 14.623 513.352 16.2695 513.352 18.1211V18.666C513.352 21.666 514.113 24.0332 515.637 25.7676C517.172 27.4902 519.234 28.3516 521.824 28.3516C523.113 28.3516 524.332 28.0586 525.48 27.4727C526.641 26.8867 527.566 26.1016 528.258 25.1172C528.734 24.4385 529.061 23.7347 529.237 23.0059C529.316 22.6776 529.365 22.3443 529.383 22.0059H526.307C526.213 23.0605 525.732 23.9395 524.865 24.6426C523.998 25.3457 522.984 25.6973 521.824 25.6973C520.148 25.6973 518.859 25.1055 517.957 23.9219C517.055 22.7383 516.604 21.0508 516.604 18.8594V18.2441C516.604 15.9941 517.055 14.2773 517.957 13.0938ZM533.917 26.5122L533.914 26.5097C532.085 24.5871 531.213 22.0533 531.213 19.0176V18.4199C531.213 16.4049 531.595 14.5707 532.385 12.9393L532.387 12.9363C533.186 11.2983 534.311 9.99422 535.764 9.05557C537.223 8.10956 538.817 7.62891 540.527 7.62891C543.242 7.62891 545.465 8.53606 547.058 10.4283C548.634 12.3008 549.35 14.8962 549.35 18.0684V20.4219H536.551C536.73 21.611 537.171 22.5567 537.84 23.3023C538.697 24.2333 539.76 24.6973 541.107 24.6973C542.12 24.6973 542.908 24.4911 543.518 24.1322C544.199 23.7317 544.802 23.1979 545.326 22.5194L545.94 21.7251L549.443 24.4532L548.942 25.2231C547.144 27.9852 544.421 29.3516 540.932 29.3516C538.112 29.3516 535.743 28.4179 533.917 26.5122ZM535.542 20.4219C535.729 21.844 536.249 23.0282 537.1 23.9746C538.154 25.123 539.49 25.6973 541.107 25.6973C542.256 25.6973 543.229 25.4629 544.025 24.9941C544.805 24.5354 545.49 23.9309 546.079 23.1804C546.091 23.164 546.104 23.1475 546.117 23.1309L548.104 24.6777C546.51 27.127 544.119 28.3516 540.932 28.3516C538.354 28.3516 536.256 27.5078 534.639 25.8203C533.021 24.1211 532.213 21.8535 532.213 19.0176V18.4199C532.213 16.5332 532.57 14.8516 533.285 13.375C534.012 11.8867 535.02 10.7266 536.309 9.89453C537.609 9.05078 539.016 8.62891 540.527 8.62891C543 8.62891 544.922 9.44336 546.293 11.0723C547.664 12.7012 548.35 15.0332 548.35 18.0684V19.4219H535.465C535.474 19.7673 535.499 20.1007 535.542 20.4219ZM537.956 13.422L537.952 13.4264C537.428 13.985 537.021 14.7452 536.768 15.75H544.017C543.854 14.669 543.499 13.8855 543.012 13.3338L543.008 13.329C542.425 12.6606 541.637 12.3008 540.527 12.3008C539.493 12.3008 538.657 12.6656 537.956 13.422ZM545.027 15.75C545.059 15.992 545.083 16.2433 545.098 16.5039V16.75H535.57C535.613 16.4008 535.67 16.0674 535.74 15.75C536.018 14.5016 536.513 13.499 537.223 12.7422C538.113 11.7812 539.215 11.3008 540.527 11.3008C541.887 11.3008 542.965 11.7578 543.762 12.6719C544.433 13.4319 544.855 14.4579 545.027 15.75ZM152.49 28V1H149.238V28H152.49ZM233.771 28V8.98047H230.52V28H233.771ZM230.73 2.59961C230.414 2.96289 230.256 3.4082 230.256 3.93555C230.256 4.46289 230.414 4.90234 230.73 5.25391C231.059 5.60547 231.539 5.78125 232.172 5.78125C232.805 5.78125 233.285 5.60547 233.613 5.25391C233.941 4.90234 234.105 4.46289 234.105 3.93555C234.105 3.4082 233.941 2.96289 233.613 2.59961C233.285 2.23633 232.805 2.05469 232.172 2.05469C231.539 2.05469 231.059 2.23633 230.73 2.59961ZM348.609 23.7812C347.637 22.5039 347.15 20.8105 347.15 18.7012C347.15 16.3223 347.643 14.4941 348.627 13.2168C349.611 11.9395 350.906 11.3008 352.512 11.3008C354.152 11.3008 355.465 11.9512 356.449 13.252C357.445 14.541 357.943 16.2285 357.943 18.3145C357.943 20.6465 357.457 22.4629 356.484 23.7637C355.512 25.0527 354.199 25.6973 352.547 25.6973C350.906 25.6973 349.594 25.0586 348.609 23.7812ZM409.799 28V8.98047H406.547V28H409.799ZM406.758 2.59961C406.441 2.96289 406.283 3.4082 406.283 3.93555C406.283 4.46289 406.441 4.90234 406.758 5.25391C407.086 5.60547 407.566 5.78125 408.199 5.78125C408.832 5.78125 409.312 5.60547 409.641 5.25391C409.969 4.90234 410.133 4.46289 410.133 3.93555C410.133 3.4082 409.969 2.96289 409.641 2.59961C409.312 2.23633 408.832 2.05469 408.199 2.05469C407.566 2.05469 407.086 2.23633 406.758 2.59961Z" fill="#605C5C"/>
</svg>
