<svg width="208" height="28" viewBox="0 0 208 28" fill="none" xmlns="http://www.w3.org/2000/svg">
<path d="M8.86133 23.2559C9.79883 23.2559 10.5605 22.998 11.1465 22.4824C11.7324 21.9668 12.0371 21.2812 12.0605 20.4258H16.8242C16.8125 21.7148 16.4609 22.8984 15.7695 23.9766C15.0781 25.043 14.1289 25.875 12.9219 26.4727C11.7266 27.0586 10.4023 27.3516 8.94922 27.3516C6.23047 27.3516 4.08594 26.4902 2.51562 24.7676C0.945312 23.0332 0.160156 20.6426 0.160156 17.5957V17.2617C0.160156 14.332 0.939453 11.9941 2.49805 10.248C4.05664 8.50195 6.19531 7.62891 8.91406 7.62891C11.293 7.62891 13.1973 8.30859 14.627 9.66797C16.0684 11.0156 16.8008 12.8145 16.8242 15.0645H12.0605C12.0371 14.0801 11.7324 13.2832 11.1465 12.6738C10.5605 12.0527 9.78711 11.7422 8.82617 11.7422C7.64258 11.7422 6.74609 12.1758 6.13672 13.043C5.53906 13.8984 5.24023 15.293 5.24023 17.2266V17.7539C5.24023 19.7109 5.53906 21.1172 6.13672 21.9727C6.73438 22.8281 7.64258 23.2559 8.86133 23.2559ZM31.1152 25.0664C29.8613 26.5898 28.127 27.3516 25.9121 27.3516C23.873 27.3516 22.3145 26.7656 21.2363 25.5938C20.1699 24.4219 19.625 22.7051 19.6016 20.4434V7.98047H24.6816V20.2676C24.6816 22.248 25.584 23.2383 27.3887 23.2383C29.1113 23.2383 30.2949 22.6406 30.9395 21.4453V7.98047H36.0371V27H31.2559L31.1152 25.0664ZM50.5566 12.7441C49.8652 12.6504 49.2559 12.6035 48.7285 12.6035C46.8066 12.6035 45.5469 13.2539 44.9492 14.5547V27H39.8691V7.98047H44.668L44.8086 10.248C45.8281 8.50195 47.2402 7.62891 49.0449 7.62891C49.6074 7.62891 50.1348 7.70508 50.627 7.85742L50.5566 12.7441ZM58.3789 27H53.2812V7.98047H58.3789V27ZM52.9824 3.05859C52.9824 2.29688 53.2344 1.66992 53.7383 1.17773C54.2539 0.685547 54.9512 0.439453 55.8301 0.439453C56.6973 0.439453 57.3887 0.685547 57.9043 1.17773C58.4199 1.66992 58.6777 2.29688 58.6777 3.05859C58.6777 3.83203 58.4141 4.46484 57.8867 4.95703C57.3711 5.44922 56.6855 5.69531 55.8301 5.69531C54.9746 5.69531 54.2832 5.44922 53.7559 4.95703C53.2402 4.46484 52.9824 3.83203 52.9824 3.05859ZM61.7891 17.3145C61.7891 15.4277 62.1523 13.7461 62.8789 12.2695C63.6055 10.793 64.6484 9.65039 66.0078 8.8418C67.3789 8.0332 68.9668 7.62891 70.7715 7.62891C73.3379 7.62891 75.4297 8.41406 77.0469 9.98438C78.6758 11.5547 79.584 13.6875 79.7715 16.3828L79.8066 17.6836C79.8066 20.6016 78.9922 22.9453 77.3633 24.7148C75.7344 26.4727 73.5488 27.3516 70.8066 27.3516C68.0645 27.3516 65.873 26.4727 64.2324 24.7148C62.6035 22.957 61.7891 20.5664 61.7891 17.543V17.3145ZM66.8691 17.6836C66.8691 19.4883 67.209 20.8711 67.8887 21.832C68.5684 22.7812 69.541 23.2559 70.8066 23.2559C72.0371 23.2559 72.998 22.7871 73.6895 21.8496C74.3809 20.9004 74.7266 19.3887 74.7266 17.3145C74.7266 15.5449 74.3809 14.1738 73.6895 13.2012C72.998 12.2285 72.0254 11.7422 70.7715 11.7422C69.5293 11.7422 68.5684 12.2285 67.8887 13.2012C67.209 14.1621 66.8691 15.6562 66.8691 17.6836ZM94.3262 25.0664C93.0723 26.5898 91.3379 27.3516 89.123 27.3516C87.084 27.3516 85.5254 26.7656 84.4473 25.5938C83.3809 24.4219 82.8359 22.7051 82.8125 20.4434V7.98047H87.8926V20.2676C87.8926 22.248 88.7949 23.2383 90.5996 23.2383C92.3223 23.2383 93.5059 22.6406 94.1504 21.4453V7.98047H99.248V27H94.4668L94.3262 25.0664ZM113.381 21.7441C113.381 21.123 113.07 20.6367 112.449 20.2852C111.84 19.9219 110.855 19.5996 109.496 19.3184C104.973 18.3691 102.711 16.4473 102.711 13.5527C102.711 11.8652 103.408 10.459 104.803 9.33398C106.209 8.19727 108.043 7.62891 110.305 7.62891C112.719 7.62891 114.646 8.19727 116.088 9.33398C117.541 10.4707 118.268 11.9473 118.268 13.7637H113.188C113.188 13.0371 112.953 12.4395 112.484 11.9707C112.016 11.4902 111.283 11.25 110.287 11.25C109.432 11.25 108.77 11.4434 108.301 11.8301C107.832 12.2168 107.598 12.709 107.598 13.3066C107.598 13.8691 107.861 14.3262 108.389 14.6777C108.928 15.0176 109.83 15.3164 111.096 15.5742C112.361 15.8203 113.428 16.1016 114.295 16.418C116.979 17.4023 118.32 19.1074 118.32 21.5332C118.32 23.2676 117.576 24.6738 116.088 25.752C114.6 26.8184 112.678 27.3516 110.322 27.3516C108.729 27.3516 107.311 27.0703 106.068 26.5078C104.838 25.9336 103.871 25.1543 103.168 24.1699C102.465 23.1738 102.113 22.1016 102.113 20.9531H106.93C106.977 21.8555 107.311 22.5469 107.932 23.0273C108.553 23.5078 109.385 23.748 110.428 23.748C111.4 23.748 112.133 23.5664 112.625 23.2031C113.129 22.8281 113.381 22.3418 113.381 21.7441ZM135.336 7.98047L135.494 10.1074C136.842 8.45508 138.664 7.62891 140.961 7.62891C143.41 7.62891 145.092 8.5957 146.006 10.5293C147.342 8.5957 149.246 7.62891 151.719 7.62891C153.781 7.62891 155.316 8.23242 156.324 9.43945C157.332 10.6348 157.836 12.4395 157.836 14.8535V27H152.738V14.8711C152.738 13.793 152.527 13.0078 152.105 12.5156C151.684 12.0117 150.939 11.7598 149.873 11.7598C148.35 11.7598 147.295 12.4863 146.709 13.9395L146.727 27H141.646V14.8887C141.646 13.7871 141.43 12.9902 140.996 12.498C140.562 12.0059 139.824 11.7598 138.781 11.7598C137.34 11.7598 136.297 12.3574 135.652 13.5527V27H130.572V7.98047H135.336ZM167.117 27H162.02V7.98047H167.117V27ZM161.721 3.05859C161.721 2.29688 161.973 1.66992 162.477 1.17773C162.992 0.685547 163.689 0.439453 164.568 0.439453C165.436 0.439453 166.127 0.685547 166.643 1.17773C167.158 1.66992 167.416 2.29688 167.416 3.05859C167.416 3.83203 167.152 4.46484 166.625 4.95703C166.109 5.44922 165.424 5.69531 164.568 5.69531C163.713 5.69531 163.021 5.44922 162.494 4.95703C161.979 4.46484 161.721 3.83203 161.721 3.05859ZM175.994 7.98047L176.152 10.1777C177.512 8.47852 179.334 7.62891 181.619 7.62891C183.635 7.62891 185.135 8.2207 186.119 9.4043C187.104 10.5879 187.607 12.3574 187.631 14.7129V27H182.551V14.8359C182.551 13.7578 182.316 12.9785 181.848 12.498C181.379 12.0059 180.6 11.7598 179.51 11.7598C178.08 11.7598 177.008 12.3691 176.293 13.5879V27H171.213V7.98047H175.994ZM190.707 17.3496C190.707 14.3848 191.369 12.0234 192.693 10.2656C194.029 8.50781 195.852 7.62891 198.16 7.62891C200.012 7.62891 201.541 8.32031 202.748 9.70312V0H207.846V27H203.258L203.012 24.9785C201.746 26.5605 200.117 27.3516 198.125 27.3516C195.887 27.3516 194.088 26.4727 192.729 24.7148C191.381 22.9453 190.707 20.4902 190.707 17.3496ZM195.787 17.7188C195.787 19.5 196.098 20.8652 196.719 21.8145C197.34 22.7637 198.242 23.2383 199.426 23.2383C200.996 23.2383 202.104 22.5762 202.748 21.252V13.7461C202.115 12.4219 201.02 11.7598 199.461 11.7598C197.012 11.7598 195.787 13.7461 195.787 17.7188Z" fill="#454545"/>
</svg>
