<svg width="632" height="40" viewBox="0 0 632 40" fill="none" xmlns="http://www.w3.org/2000/svg">
<path fill-rule="evenodd" clip-rule="evenodd" d="M27.2423 30H21.9337L17.7677 12.8789L13.6017 30H8.29309L2.61535 4.40625H7.87121L11.3341 22.582L15.5529 4.40625H20.0177L24.2189 22.6172L27.6642 4.40625H32.92L27.2423 30ZM24.0253 12.8811L21.6088 2.40625H13.9639L11.5267 12.9066L9.52614 2.40625H0.123047L6.68814 32H15.1734L17.7677 21.3381L20.362 32H28.8472L35.4123 2.40625H26.0071L24.0253 12.8811ZM37.2941 10.1229L37.3005 10.1191C39.0189 9.10568 40.9669 8.62891 43.0802 8.62891C46.0875 8.62891 48.7037 9.56504 50.7463 11.547C51.8653 12.6266 52.6906 13.901 53.2443 15.3378V8.98047H61.9229L61.9297 9.09067C62.6867 8.78842 63.5183 8.62891 64.42 8.62891C65.0939 8.62891 65.7542 8.71171 66.3927 8.88808V1H75.4728V12.4185L78.403 8.98047H89.8068L81.0672 19.0612L85.3276 25.3865C84.8278 24.032 84.5861 22.544 84.5861 20.9473V20.4551C84.5861 18.2836 85.007 16.2703 85.8976 14.4595L85.899 14.4566L87.6935 15.3398L85.8963 14.4622L85.8976 14.4595C86.7926 12.6281 88.0899 11.1672 89.7907 10.146L89.789 10.147L90.8224 11.8594L89.7934 10.1444L89.7907 10.146C91.49 9.12101 93.3998 8.62891 95.463 8.62891C98.5195 8.62891 101.142 9.61292 103.076 11.7429L103.074 11.7403L101.598 13.0898L103.079 11.7461L103.076 11.7429C103.862 12.6032 104.466 13.5864 104.907 14.6732C104.285 16.2813 103.985 18.0952 103.959 20.0684C103.958 20.1618 103.957 20.2555 103.957 20.3496C103.957 20.9628 103.981 21.5609 104.029 22.1426C104.087 22.8332 104.181 23.5007 104.312 24.1426H103.641L101.855 22.1426H99.9579L99.368 22.9019C98.8778 23.5329 98.2675 23.954 97.446 24.1426H95.457C95.0906 24.0388 94.8009 23.8683 94.5572 23.6499C94.1776 23.3009 93.8965 22.832 93.7618 22.1426H91.7364C91.8366 22.901 92.0591 23.5676 92.4039 24.1426H94.1039L93.213 25.1309L94.1166 24.1426H95.457C95.716 24.2159 96.0132 24.2559 96.3595 24.2559C96.7589 24.2559 97.1192 24.2176 97.446 24.1426H100.932L99.4557 25.4611L99.4603 25.4663C100.017 25.1315 100.509 24.6903 100.937 24.1426C100.94 24.138 100.944 24.1335 100.947 24.1289L102.296 25.6393C102.375 25.5473 102.451 25.4528 102.527 25.3559L100.965 24.1426H103.641L104.561 25.1723C104.617 25.3723 104.678 25.5694 104.743 25.7636C104.946 26.3738 105.192 26.955 105.482 27.5046L105.077 28.0779C104.098 29.4641 102.785 30.523 101.198 31.2662L101.191 31.2693L101.185 31.2724C99.5956 32.0026 97.8652 32.3516 96.0255 32.3516C92.9238 32.3516 90.2212 31.4234 88.0788 29.4714L89.782 32H79.0936L75.4728 26.3474V32H66.3927V17.8249L65.663 17.726C65.0341 17.6407 64.5177 17.6035 64.1036 17.6035C63.0331 17.6035 62.5615 17.8432 62.3243 18.1059V32H53.2443V25.6921C52.7586 26.9377 52.0636 28.0698 51.1435 29.0694L51.139 29.0743C49.0755 31.3011 46.3261 32.3516 43.1153 32.3516C39.9044 32.3516 37.1526 31.3012 35.079 29.0795L35.0741 29.0743C33.0195 26.857 32.0978 23.9332 32.0978 20.543V20.3145C32.0978 18.1665 32.5128 16.1755 33.3931 14.3865C34.2834 12.5773 35.5879 11.1378 37.2941 10.1229ZM60.3243 17.5547C60.9042 16.2927 62.1072 15.6429 63.9335 15.6052C63.9897 15.6041 64.0463 15.6035 64.1036 15.6035C64.631 15.6035 65.2403 15.6504 65.9318 15.7441L66.0021 10.8574C65.5099 10.7051 64.9825 10.6289 64.42 10.6289C63.5415 10.6289 62.7561 10.8358 62.0636 11.2495C61.3336 11.6858 60.7069 12.3519 60.1837 13.248L60.0431 10.9805H55.2443V30H60.3243V17.5547ZM80.1876 30H86.0236L78.5528 18.9082L85.4259 10.9805H79.3263L74.4571 16.6934L73.4728 17.959V3H68.3927V30H73.4728V24.1992L75.3009 22.3711L80.1876 30ZM116.698 31.6807C115.687 32.1245 114.574 32.3516 113.375 32.3516C110.523 32.3516 108.138 31.1901 106.397 28.9383L106.392 28.9325L106.388 28.9266C106.047 28.48 105.746 28.0054 105.482 27.5046L105.995 26.7784L104.561 25.1723C104.466 24.837 104.383 24.4936 104.312 24.1426H105.848V20.0684C105.848 18.0875 105.553 16.2687 104.907 14.6732C105.272 13.7288 105.749 12.8553 106.346 12.0622L106.351 12.0554C108.085 9.77409 110.51 8.62891 113.41 8.62891C114.324 8.62891 115.19 8.76217 115.998 9.02594V11.1714C116.742 11.5169 117.408 12.0275 117.998 12.7031V10.0252C117.379 9.59206 116.711 9.25834 115.998 9.02594V1H125.096V32H116.737L116.698 31.6807ZM116.441 29.5728L116.698 31.6807C117.344 31.3971 117.948 31.0249 118.508 30.5669C118.723 30.3906 118.932 30.2016 119.134 30H118.508L118.262 27.9785C117.721 28.6543 117.114 29.1857 116.441 29.5728ZM49.3556 12.9844C47.7384 11.4141 45.6466 10.6289 43.0802 10.6289C41.2755 10.6289 39.6876 11.0332 38.3165 11.8418C36.9571 12.6504 35.9142 13.793 35.1876 15.2695C34.4611 16.7461 34.0978 18.4277 34.0978 20.3145V20.543C34.0978 23.5664 34.9122 25.957 36.5411 27.7148C38.1818 29.4727 40.3732 30.3516 43.1153 30.3516C45.8575 30.3516 48.0431 29.4727 49.672 27.7148C51.3009 25.9453 52.1153 23.6016 52.1153 20.6836L52.0802 19.3828C51.8927 16.6875 50.9845 14.5547 49.3556 12.9844ZM41.8302 17.3561C41.5073 17.8127 41.1778 18.8036 41.1778 20.6836C41.1778 22.2759 41.484 23.1845 41.8269 23.6724C42.095 24.0447 42.4343 24.2559 43.1153 24.2559C43.7498 24.2559 44.0954 24.0577 44.3849 23.6675C44.6984 23.2334 45.0353 22.2453 45.0353 20.3145C45.0353 18.7699 44.7281 17.8665 44.368 17.3599C44.0737 16.9459 43.7254 16.7422 43.0802 16.7422C42.4549 16.7422 42.122 16.9386 41.8368 17.3468L41.8302 17.3561ZM45.9982 24.8496C45.3068 25.7871 44.3458 26.2559 43.1153 26.2559C41.8497 26.2559 40.8771 25.7812 40.1974 24.832C39.5177 23.8711 39.1778 22.4883 39.1778 20.6836C39.1778 18.6562 39.5177 17.1621 40.1974 16.2012C40.8771 15.2285 41.838 14.7422 43.0802 14.7422C44.3341 14.7422 45.3068 15.2285 45.9982 16.2012C46.6896 17.1738 47.0353 18.5449 47.0353 20.3145C47.0353 22.3887 46.6896 23.9004 45.9982 24.8496ZM98.5721 16.6797C98.7484 17.1365 98.8429 17.6684 98.8556 18.2754V18.6797H91.7892C91.8971 17.9026 92.089 17.2359 92.3648 16.6797C92.5382 16.3301 92.7448 16.0241 92.9845 15.7617C93.6173 15.082 94.4376 14.7422 95.4454 14.7422C96.5236 14.7422 97.3556 15.0527 97.9415 15.6738C98.2113 15.9544 98.4215 16.2897 98.5721 16.6797ZM143.359 32H134.262V8.98047H134.964C134.285 8.14672 133.963 7.13714 133.963 6.05859C133.963 4.80685 134.399 3.64814 135.321 2.74698L135.33 2.73896L135.338 2.73102C136.308 1.80517 137.544 1.43945 138.811 1.43945C140.074 1.43945 141.301 1.8099 142.266 2.73102C143.206 3.62854 143.658 4.79214 143.658 6.05859C143.658 7.14238 143.329 8.15093 142.645 8.98047H143.359V32ZM140.867 7.95703C141.395 7.46484 141.658 6.83203 141.658 6.05859C141.658 5.29688 141.401 4.66992 140.885 4.17773C140.369 3.68555 139.678 3.43945 138.811 3.43945C137.932 3.43945 137.234 3.68555 136.719 4.17773C136.215 4.66992 135.963 5.29688 135.963 6.05859C135.963 6.83203 136.221 7.46484 136.736 7.95703C137.264 8.44922 137.955 8.69531 138.811 8.69531C139.666 8.69531 140.352 8.44922 140.867 7.95703ZM152.281 11.5272C151.576 11.9371 150.947 12.4873 150.395 13.1777L150.236 10.9805H145.455V30H150.535V16.5879C151.25 15.3691 152.322 14.7598 153.752 14.7598C154.842 14.7598 155.621 15.0059 156.09 15.498C156.559 15.9785 156.793 16.7578 156.793 17.8359V30H161.873V17.7129C161.85 15.3574 161.346 13.5879 160.361 12.4043C159.377 11.2207 157.877 10.6289 155.861 10.6289C154.505 10.6289 153.311 10.9283 152.281 11.5272ZM152.535 17.22V32H143.455V8.98047H152.098L152.126 9.36791C153.256 8.87515 154.509 8.62891 155.861 8.62891C158.274 8.62891 160.425 9.35248 161.899 11.1254C163.298 12.8079 163.847 15.1097 163.873 17.693L163.873 17.7029V32H154.793V17.8359C154.793 17.4327 154.748 17.1723 154.702 17.0189C154.681 16.9485 154.662 16.9091 154.652 16.8911C154.636 16.8825 154.604 16.8681 154.552 16.8515C154.409 16.8066 154.156 16.7598 153.752 16.7598C153.202 16.7598 152.833 16.8971 152.535 17.22ZM182.787 4.30469V8.98047H184.746V1H193.826V9.18074C194.777 8.81575 195.807 8.62891 196.906 8.62891C199.364 8.62891 201.544 9.3567 203.076 11.1111C204.19 12.3877 204.8 14.0284 205.049 15.8849C205.216 15.3962 205.413 14.92 205.641 14.4571L207.436 15.3398M210.565 11.8594C211.924 11.0391 213.471 10.6289 215.205 10.6289C217.807 10.6289 219.852 11.4492 221.34 13.0898C222.84 14.7305 223.59 17.0566 223.59 20.0684V22.1426H211.479C211.579 22.901 211.801 23.5676 212.146 24.1426C212.366 24.5093 212.636 24.8388 212.955 25.1309C213.787 25.8809 214.836 26.2559 216.102 26.2559C217.294 26.2559 218.328 25.9927 219.202 25.4663C219.759 25.1315 220.251 24.6903 220.679 24.1426C220.682 24.138 220.686 24.1335 220.69 24.1289L223.186 26.9238C222.424 28.002 221.393 28.8457 220.092 29.4551C218.791 30.0527 217.35 30.3516 215.768 30.3516C212.979 30.3516 210.705 29.4961 208.947 27.7852M223.383 24.1426L225.737 26.7784L224.819 28.0779C223.84 29.4641 222.527 30.523 220.94 31.2662L220.934 31.2693L220.927 31.2724C219.338 32.0026 217.607 32.3516 215.768 32.3516C212.535 32.3516 209.736 31.3433 207.552 29.2183L207.548 29.2137C206.496 28.1829 205.712 26.996 205.182 25.6771V32H196.102V17.959C196.102 17.1446 195.928 16.9092 195.919 16.8962L195.918 16.8954C195.878 16.8698 195.666 16.7598 195.061 16.7598C194.443 16.7598 194.079 16.8979 193.826 17.1356V32H184.746V31.8286C183.581 32.1776 182.382 32.3516 181.156 32.3516C179.059 32.3516 177.124 31.8195 175.715 30.4235C174.309 29.031 173.749 27.0994 173.708 24.9942L173.707 24.9746V16.707H170.93V8.98047H173.707V4.30469H182.787M175.707 10.9805H172.93V14.707H175.707V24.9551C175.777 28.5527 177.594 30.3516 181.156 30.3516C182.211 30.3516 183.236 30.1992 184.233 29.8945V26.0449C183.799 26.127 183.301 26.168 182.738 26.168C182.556 26.168 182.387 26.1592 182.233 26.1416C181.743 26.0861 181.396 25.9425 181.192 25.7109C180.922 25.4062 180.787 24.9023 180.787 24.1992V14.707H184.039V10.9805H180.787V6.30469H175.707V10.9805ZM182.787 16.707V24.1678C183.234 24.1655 183.588 24.1315 183.861 24.0798L184.746 23.9123V16.707H182.787ZM191.826 16.4824C192.494 15.334 193.572 14.7598 195.061 14.7598C196.151 14.7598 196.93 15.0234 197.399 15.5508C197.867 16.0664 198.102 16.8691 198.102 17.959V30H203.182V17.8184C203.123 13.0254 201.031 10.6289 196.906 10.6289C195.773 10.6289 194.746 10.8788 193.826 11.3785C193.091 11.7778 192.425 12.3365 191.826 13.0547V3H186.746V30H191.826V16.4824ZM223.383 24.1426H225.59V20.0684C225.59 16.7389 224.758 13.8672 222.82 11.7443C220.886 9.61334 218.262 8.62891 215.205 8.62891C213.143 8.62891 211.233 9.1207 209.535 10.145M217.188 24.1426H215.199C215.458 24.2159 215.755 24.2559 216.102 24.2559C216.501 24.2559 216.861 24.2176 217.188 24.1426ZM218.314 16.6797C218.491 17.1365 218.585 17.6684 218.598 18.2754V18.6797H211.531C211.639 17.9026 211.831 17.2359 212.107 16.6797C212.28 16.3301 212.487 16.0241 212.727 15.7617C213.359 15.082 214.18 14.7422 215.188 14.7422C216.266 14.7422 217.098 15.0527 217.684 15.6738C217.954 15.9544 218.164 16.2897 218.314 16.6797ZM234.844 32V16.707H232.014V8.98047H234.85C234.921 6.61209 235.665 4.52337 237.286 2.96485M234.844 32H236.844ZM246.354 6.91992C245.932 6.81445 245.416 6.76172 244.807 6.76172C244.65 6.76172 244.499 6.76777 244.355 6.77987C242.907 6.90155 242.11 7.63509 241.966 8.98047C241.95 9.12983 241.942 9.28673 241.942 9.45117V10.9805H245.721V14.707H241.942V30H236.844V14.707H234.014V10.9805H236.844V9.36328C236.844 7.23047 237.453 5.57812 238.672 4.40625C239.902 3.22266 241.619 2.63086 243.822 2.63086C244.526 2.63086 245.387 2.74805 246.406 2.98242L246.354 6.91992ZM243.942 16.707V32H236.844M243.942 16.707H246.005C245.709 17.8495 245.567 19.055 245.567 20.3145V20.543C245.567 23.9332 246.488 26.857 248.543 29.0743L248.548 29.0795C250.621 31.3012 253.373 32.3516 256.584 32.3516C259.795 32.3516 262.544 31.3011 264.608 29.0743L264.612 29.0694C265.561 28.0392 266.27 26.8682 266.757 25.5773C267.243 26.8776 267.95 28.0512 268.898 29.0743L268.903 29.0795C270.977 31.3012 273.729 32.3516 276.94 32.3516C280.15 32.3516 282.9 31.3011 284.963 29.0743L284.968 29.0694C285.878 28.0807 286.568 26.9623 287.053 25.7327C287.443 26.9109 287.988 27.9816 288.708 28.9266L288.712 28.9325L288.717 28.9383C290.458 31.1901 292.843 32.3516 295.695 32.3516C296.895 32.3516 298.007 32.1245 299.018 31.6807L299.057 32H307.416V1H298.318V9.02594C297.51 8.76217 296.645 8.62891 295.731 8.62891C292.83 8.62891 290.405 9.77409 288.671 12.0554L288.666 12.0622C287.953 13.0092 287.412 14.0709 287.027 15.2311C286.474 13.838 285.662 12.6 284.571 11.5472C282.528 9.56511 279.912 8.62891 276.904 8.62891C274.791 8.62891 272.843 9.10568 271.125 10.1191L271.118 10.1229C269.412 11.1378 268.108 12.5773 267.217 14.3865C267.046 14.7342 266.893 15.0896 266.756 15.4522C266.203 13.9687 265.364 12.6553 264.215 11.5472C262.173 9.56511 259.556 8.62891 256.549 8.62891C254.436 8.62891 252.488 9.10568 250.769 10.1191L250.763 10.1229C249.541 10.8494 248.526 11.7935 247.721 12.935V9.32327L248.32 9.47297L248.428 1.39495L246.854 1.03326C245.752 0.779787 244.73 0.630859 243.822 0.630859C241.258 0.630859 238.988 1.32781 237.286 2.96485M246.35 8.98047L245.869 8.86021C245.654 8.80668 245.312 8.76172 244.807 8.76172C244.261 8.76172 244.067 8.86673 244.029 8.8912C244.02 8.9064 244.007 8.93456 243.993 8.98047H246.35ZM244.04 8.87666C244.04 8.87666 244.038 8.88112 244.031 8.88766C244.036 8.87947 244.04 8.87666 244.04 8.87666ZM262.824 12.9844C261.207 11.4141 259.115 10.6289 256.549 10.6289C254.744 10.6289 253.156 11.0332 251.785 11.8418C250.426 12.6504 249.383 13.793 248.656 15.2695C247.93 16.7461 247.567 18.4277 247.567 20.3145V20.543C247.567 23.5664 248.381 25.957 250.01 27.7148C251.651 29.4727 253.842 30.3516 256.584 30.3516C259.326 30.3516 261.512 29.4727 263.141 27.7148C264.77 25.9453 265.584 23.6016 265.584 20.6836L265.549 19.3828C265.361 16.6875 264.453 14.5547 262.824 12.9844ZM283.18 12.9844C281.563 11.4141 279.471 10.6289 276.904 10.6289C275.1 10.6289 273.512 11.0332 272.141 11.8418C270.781 12.6504 269.738 13.793 269.012 15.2695C268.285 16.7461 267.922 18.4277 267.922 20.3145V20.543C267.922 23.5664 268.736 25.957 270.365 27.7148C272.006 29.4727 274.197 30.3516 276.94 30.3516C279.682 30.3516 281.867 29.4727 283.496 27.7148C285.125 25.9453 285.94 23.6016 285.94 20.6836L285.904 19.3828C285.717 16.6875 284.809 14.5547 283.18 12.9844ZM300.318 12.7031C299.729 12.0275 299.062 11.5169 298.318 11.1714C297.54 10.8097 296.678 10.6289 295.731 10.6289C293.422 10.6289 291.6 11.5078 290.264 13.2656C288.94 15.0234 288.277 17.3848 288.277 20.3496C288.277 23.4902 288.951 25.9453 290.299 27.7148C291.658 29.4727 293.457 30.3516 295.695 30.3516C296.837 30.3516 297.859 30.092 298.761 29.5728C299.435 29.1857 300.042 28.6543 300.582 27.9785L300.828 30H305.416V3H300.318V12.7031ZM255.306 17.3468L255.299 17.3561C254.976 17.8127 254.647 18.8036 254.647 20.6836C254.647 22.2755 254.953 23.184 255.295 23.672C255.564 24.0445 255.903 24.2559 256.584 24.2559C257.218 24.2559 257.564 24.0578 257.854 23.6676C258.167 23.2337 258.504 22.2456 258.504 20.3145C258.504 18.7699 258.197 17.8665 257.837 17.3599C257.542 16.9459 257.194 16.7422 256.549 16.7422C255.924 16.7422 255.591 16.9386 255.306 17.3468ZM259.467 24.8496C258.776 25.7871 257.815 26.2559 256.584 26.2559C255.318 26.2559 254.346 25.7812 253.666 24.832C252.986 23.8711 252.647 22.4883 252.647 20.6836C252.647 18.6562 252.986 17.1621 253.666 16.2012C254.346 15.2285 255.307 14.7422 256.549 14.7422C257.803 14.7422 258.776 15.2285 259.467 16.2012C260.158 17.1738 260.504 18.5449 260.504 20.3145C260.504 22.3887 260.158 23.9004 259.467 24.8496ZM275.661 17.3468L275.654 17.3561C275.331 17.8127 275.002 18.8036 275.002 20.6836C275.002 22.2773 275.309 23.1861 275.652 23.6737C275.92 24.0452 276.259 24.2559 276.94 24.2559C277.574 24.2559 277.92 24.0575 278.21 23.6669C278.523 23.2325 278.859 22.2445 278.859 20.3145C278.859 18.7699 278.552 17.8665 278.192 17.3599C277.898 16.9459 277.55 16.7422 276.904 16.7422C276.279 16.7422 275.946 16.9386 275.661 17.3468ZM279.822 24.8496C279.131 25.7871 278.17 26.2559 276.94 26.2559C275.674 26.2559 274.701 25.7812 274.022 24.832C273.342 23.8711 273.002 22.4883 273.002 20.6836C273.002 18.6562 273.342 17.1621 274.022 16.2012C274.701 15.2285 275.662 14.7422 276.904 14.7422C278.158 14.7422 279.131 15.2285 279.822 16.2012C280.514 17.1738 280.859 18.5449 280.859 20.3145C280.859 22.3887 280.514 23.9004 279.822 24.8496ZM325.68 32H316.582V8.98047H317.284C316.606 8.14672 316.283 7.13714 316.283 6.05859C316.283 4.80685 316.719 3.64814 317.642 2.74698L317.65 2.73896L317.658 2.73102C318.628 1.80517 319.864 1.43945 321.131 1.43945C322.395 1.43945 323.621 1.8099 324.586 2.73102C325.526 3.62854 325.979 4.79214 325.979 6.05859C325.979 7.14238 325.649 8.15093 324.965 8.98047H325.68V32ZM323.188 7.95703C323.715 7.46484 323.979 6.83203 323.979 6.05859C323.979 5.29688 323.721 4.66992 323.205 4.17773C322.69 3.68555 321.998 3.43945 321.131 3.43945C320.252 3.43945 319.555 3.68555 319.039 4.17773C318.535 4.66992 318.283 5.29688 318.283 6.05859C318.283 6.83203 318.541 7.46484 319.057 7.95703C319.584 8.44922 320.276 8.69531 321.131 8.69531C321.986 8.69531 322.672 8.44922 323.188 7.95703ZM334.601 11.5272C333.896 11.9371 333.267 12.4873 332.715 13.1777L332.557 10.9805H327.776V30H332.856V16.5879C333.57 15.3691 334.643 14.7598 336.072 14.7598C337.162 14.7598 337.942 15.0059 338.41 15.498C338.879 15.9785 339.113 16.7578 339.113 17.8359V30H344.193V17.7129C344.17 15.3574 343.666 13.5879 342.682 12.4043C341.697 11.2207 340.197 10.6289 338.182 10.6289C336.825 10.6289 335.632 10.9283 334.601 11.5272ZM334.856 17.22V32H325.776V8.98047H334.418L334.446 9.36791C335.577 8.87515 336.829 8.62891 338.182 8.62891C340.595 8.62891 342.745 9.35248 344.219 11.1254C345.169 12.2674 345.727 13.6947 345.996 15.3017C346.382 14.1139 346.931 13.0284 347.659 12.0622L347.664 12.0554C349.397 9.77409 351.822 8.62891 354.723 8.62891C355.637 8.62891 356.502 8.76217 357.311 9.02594V1H366.408V8.98047H375.303V23.2676C375.303 23.6172 375.343 23.8467 375.386 23.986C375.406 24.0534 375.426 24.0953 375.438 24.1184C375.445 24.13 375.45 24.1375 375.453 24.1419C375.456 24.1461 375.458 24.1484 375.458 24.1484C375.458 24.1484 375.458 24.1487 375.46 24.1501C375.463 24.1517 375.47 24.1564 375.484 24.1629C375.492 24.1663 375.501 24.1702 375.513 24.1743C375.583 24.2002 375.736 24.2383 376.01 24.2383C376.868 24.2383 377.307 24.0524 377.561 23.8145V8.98047H386.658V13.7708C387.131 12.6282 387.909 11.6232 388.957 10.7774C390.801 9.28772 393.114 8.62891 395.715 8.62891C398.435 8.62891 400.844 9.27139 402.735 10.7622C402.912 10.9007 403.081 11.0438 403.242 11.1913V8.98047H406.02V4.30469H415.1V8.98047H425.86L425.867 9.09067C426.624 8.78841 427.456 8.62891 428.358 8.62891C429.102 8.62891 429.831 8.73005 430.531 8.94685L430.64 8.98047H437.705L439.743 15.8057L441.772 8.98047H451.527L442.935 33.6706L442.476 34.7594L442.463 34.7872C441.773 36.2958 440.8 37.5496 439.49 38.4173C438.175 39.2888 436.654 39.6816 435.02 39.6816C434.078 39.6816 433.139 39.5393 432.209 39.2673L430.77 38.8467V31.4521L433.564 31.5156C433.939 31.5145 434.211 31.485 434.398 31.4465C434.568 31.4118 434.632 31.3776 434.632 31.3776L434.637 31.3743L434.646 31.3686C434.658 31.3613 434.794 31.2785 434.949 30.8902C434.951 30.8868 434.952 30.8834 434.953 30.8799L435.281 30.022L431.055 17.9232L429.601 17.726C428.972 17.6407 428.455 17.6035 428.041 17.6035C426.971 17.6035 426.499 17.8432 426.262 18.1058V32H417.182V31.7912L417.13 31.8071C415.942 32.1705 414.719 32.3516 413.469 32.3516C411.371 32.3516 409.437 31.8195 408.027 30.4235C406.621 29.031 406.061 27.0994 406.02 24.9942L406.02 24.9746V16.707H405.678C405.678 16.7259 405.678 16.7448 405.678 16.7637V18.7637H402.774C403.351 19.1732 403.863 19.6486 404.296 20.1982C405.277 21.4449 405.731 22.9276 405.731 24.5332C405.731 26.9524 404.643 28.9437 402.671 30.3716L402.663 30.3777C400.749 31.749 398.386 32.3516 395.733 32.3516C393.902 32.3516 392.195 32.0278 390.654 31.3297L390.643 31.325L390.633 31.3202C389.129 30.6185 387.878 29.6301 386.951 28.3324L386.944 28.3233C386.844 28.181 386.749 28.0369 386.658 27.8909V32H378.017L377.998 31.7365C376.942 32.1499 375.779 32.3516 374.533 32.3516C372.102 32.3516 369.942 31.6398 368.386 29.9479L368.378 29.9399C367.312 28.7675 366.691 27.2954 366.408 25.6378V32H358.049L358.01 31.6807C356.999 32.1245 355.887 32.3516 354.688 32.3516C351.836 32.3516 349.45 31.1901 347.709 28.9383L347.704 28.9325L347.7 28.9266C347.068 28.0961 346.57 27.1686 346.193 26.1563V32H337.113V17.8359C337.113 17.4327 337.069 17.1723 337.022 17.0189C337.001 16.9485 336.982 16.9091 336.973 16.891C336.956 16.8825 336.925 16.8681 336.872 16.8515C336.73 16.8066 336.477 16.7598 336.072 16.7598C335.522 16.7598 335.154 16.8971 334.856 17.22ZM357.754 29.5728C358.427 29.1857 359.034 28.6543 359.574 27.9785L359.82 30H364.408V3H359.311V12.7031C358.721 12.0275 358.054 11.5169 357.311 11.1714C356.532 10.8097 355.67 10.6289 354.723 10.6289C352.414 10.6289 350.592 11.5078 349.256 13.2656C347.932 15.0234 347.27 17.3848 347.27 20.3496C347.27 23.4902 347.943 25.9453 349.291 27.7148C350.651 29.4727 352.449 30.3516 354.688 30.3516C355.829 30.3516 356.851 30.092 357.754 29.5728ZM377.844 29.6136C378.564 29.2399 379.195 28.7241 379.736 28.0664L379.877 30H384.658V10.9805H379.561V24.4453C378.916 25.6406 377.733 26.2383 376.01 26.2383C374.205 26.2383 373.303 25.248 373.303 23.2676V10.9805H368.223V23.4434C368.246 25.7051 368.791 27.4219 369.858 28.5938C370.936 29.7656 372.494 30.3516 374.533 30.3516C375.792 30.3516 376.895 30.1056 377.844 29.6136ZM386.658 21.9531H388.85C388.738 21.8674 388.629 21.7794 388.522 21.6891C387.689 20.9809 387.062 20.1519 386.658 19.2218V21.9531ZM393.438 21.9531C393.699 22.0295 393.97 22.1018 394.25 22.17C394.463 22.2218 394.682 22.2713 394.906 22.3184C396.266 22.5996 397.25 22.9219 397.859 23.2852C398.481 23.6367 398.791 24.123 398.791 24.7441C398.791 25.3418 398.539 25.8281 398.035 26.2031C397.543 26.5664 396.811 26.748 395.838 26.748C394.795 26.748 393.963 26.5078 393.342 26.0273C392.721 25.5469 392.387 24.8555 392.34 23.9531H387.524C387.524 24.6476 387.652 25.3143 387.909 25.9531C388.077 26.3706 388.3 26.7762 388.578 27.1699C389.281 28.1543 390.248 28.9336 391.479 29.5078C392.721 30.0703 394.139 30.3516 395.733 30.3516C398.088 30.3516 400.01 29.8184 401.498 28.752C402.986 27.6738 403.731 26.2676 403.731 24.5332C403.731 22.1074 402.389 20.4023 399.705 19.418C399.053 19.18 398.288 18.9619 397.41 18.7637C397.149 18.7048 396.879 18.6476 396.598 18.5922C396.567 18.5862 396.537 18.5802 396.506 18.5742C395.24 18.3164 394.338 18.0176 393.799 17.6777C393.272 17.3262 393.008 16.8691 393.008 16.3066C393.008 15.709 393.242 15.2168 393.711 14.8301C394.18 14.4434 394.842 14.25 395.697 14.25C396.693 14.25 397.426 14.4902 397.895 14.9707C398.363 15.4395 398.598 16.0371 398.598 16.7637H403.678C403.678 16.7448 403.678 16.7259 403.678 16.707C403.672 16.0086 403.558 15.3608 403.335 14.7637C403.328 14.7447 403.321 14.7259 403.314 14.707C403.291 14.648 403.267 14.5895 403.242 14.5315C402.883 13.6951 402.302 12.9626 401.498 12.334C400.057 11.1973 398.129 10.6289 395.715 10.6289C393.453 10.6289 391.619 11.1973 390.213 12.334C388.818 13.459 388.121 14.8652 388.121 16.5527C388.121 19.1151 389.894 20.9152 393.438 21.9531ZM395.501 16.2557C395.77 16.3447 396.122 16.443 396.574 16.5439C396.551 16.4594 396.515 16.4193 396.48 16.3849L396.472 16.3762L396.471 16.3753C396.438 16.3536 396.248 16.25 395.697 16.25C395.626 16.25 395.561 16.2521 395.501 16.2557ZM396.223 24.7334C395.826 24.5926 395.265 24.4349 394.501 24.2769L394.496 24.2757C394.47 24.2703 394.443 24.2647 394.417 24.2592C394.463 24.3604 394.518 24.4089 394.566 24.4454C394.737 24.5778 395.093 24.748 395.838 24.748C395.983 24.748 396.111 24.7426 396.223 24.7334ZM408.02 14.707V24.9551C408.09 28.5527 409.906 30.3516 413.469 30.3516C414.524 30.3516 415.549 30.1992 416.545 29.8945V26.0449C416.111 26.127 415.613 26.168 415.051 26.168C414.868 26.168 414.699 26.1592 414.545 26.1416C414.056 26.0861 413.709 25.9425 413.504 25.7109C413.234 25.4062 413.1 24.9023 413.1 24.1992V14.707H416.352V10.9805H413.1V6.30469H408.02V10.9805H405.242V14.707H408.02ZM415.1 16.707V24.1678C415.546 24.1655 415.9 24.1315 416.173 24.0798L417.182 23.889V16.707H415.1ZM424.262 17.5547C424.842 16.2927 426.045 15.6429 427.871 15.6052C427.927 15.6041 427.984 15.6035 428.041 15.6035C428.568 15.6035 429.178 15.6504 429.869 15.7441L429.94 10.8574C429.491 10.7187 429.014 10.6431 428.508 10.6307C428.458 10.6295 428.408 10.6289 428.358 10.6289C427.479 10.6289 426.694 10.8358 426.001 11.2496C425.271 11.6858 424.644 12.3519 424.121 13.248L423.981 10.9805H419.182V30H424.262V17.5547ZM437.41 30.0527L436.813 31.6172C436.543 32.2969 436.168 32.7832 435.688 33.0762C435.313 33.3105 434.78 33.4512 434.09 33.498C433.918 33.5098 433.735 33.5156 433.543 33.5156L432.77 33.498V37.3477C433.531 37.5703 434.281 37.6816 435.02 37.6816C437.633 37.6816 439.508 36.4395 440.645 33.9551L441.067 32.9531L448.713 10.9805H443.264L439.748 22.8105L436.215 10.9805H430.748L437.41 30.0527ZM459.07 32V16.707H456.24V8.98047H459.076C459.148 6.61209 459.891 4.52337 461.512 2.96485M459.07 32H461.07ZM470.633 2.98242C469.613 2.74805 468.752 2.63086 468.049 2.63086C465.846 2.63086 464.129 3.22266 462.899 4.40625C461.68 5.57812 461.07 7.23047 461.07 9.36328V10.9805H458.24V14.707H461.07V30H466.168V14.707H469.947V10.9805H466.168V9.45117C466.168 9.28673 466.176 9.12983 466.192 8.98047C466.337 7.63509 467.134 6.90155 468.582 6.77987C468.726 6.76777 468.876 6.76172 469.033 6.76172C469.643 6.76172 470.158 6.81445 470.58 6.91992L470.633 2.98242ZM468.22 8.98047H470.576L470.095 8.86021C469.881 8.80668 469.539 8.76172 469.033 8.76172C468.487 8.76172 468.293 8.86667 468.256 8.89118C468.247 8.90638 468.233 8.93454 468.22 8.98047ZM468.266 8.87664C468.266 8.87664 468.264 8.88136 468.257 8.88844C468.263 8.87989 468.266 8.87664 468.266 8.87664ZM471.947 9.32327L472.546 9.47297L472.654 1.39495L471.081 1.03326C469.978 0.779787 468.957 0.630859 468.049 0.630859C465.485 0.630859 463.214 1.32781 461.512 2.96485M471.947 9.32327V12.935C472.753 11.7935 473.768 10.8494 474.989 10.1229L474.996 10.1191C476.714 9.10568 478.662 8.62891 480.776 8.62891C483.783 8.62891 486.399 9.56511 488.442 11.5472C489.561 12.6267 490.386 13.9011 490.94 15.3378V8.98047H499.618L499.625 9.09067C500.382 8.78841 501.214 8.62891 502.115 8.62891C502.86 8.62891 503.588 8.73005 504.289 8.94685L505.719 9.38946L505.594 18.0292L503.358 17.726C502.729 17.6407 502.213 17.6035 501.799 17.6035C500.728 17.6035 500.257 17.8432 500.02 18.1058V32H490.94V25.6921C490.454 26.9377 489.759 28.0698 488.839 29.0694L488.834 29.0743C486.771 31.3011 484.021 32.3516 480.811 32.3516C477.6 32.3516 474.848 31.3012 472.774 29.0795L472.769 29.0743C470.715 26.857 469.793 23.9332 469.793 20.543V20.3145C469.793 19.055 469.936 17.8495 470.231 16.707H468.168V32H461.07M498.02 17.5547C498.599 16.2927 499.803 15.6429 501.629 15.6052C501.685 15.6041 501.742 15.6035 501.799 15.6035C502.326 15.6035 502.936 15.6504 503.627 15.7441L503.697 10.8574C503.205 10.7051 502.678 10.6289 502.115 10.6289C501.237 10.6289 500.451 10.8358 499.759 11.2496C499.029 11.6858 498.402 12.3519 497.879 13.248L497.738 10.9805H492.94V30H498.02V17.5547ZM487.051 12.9844C485.434 11.4141 483.342 10.6289 480.776 10.6289C478.971 10.6289 477.383 11.0332 476.012 11.8418C474.652 12.6504 473.609 13.793 472.883 15.2695C472.156 16.7461 471.793 18.4277 471.793 20.3145V20.543C471.793 23.5664 472.608 25.957 474.236 27.7148C475.877 29.4727 478.068 30.3516 480.811 30.3516C483.553 30.3516 485.738 29.4727 487.367 27.7148C488.996 25.9453 489.811 23.6016 489.811 20.6836L489.776 19.3828C489.588 16.6875 488.68 14.5547 487.051 12.9844ZM479.532 17.3468L479.526 17.3561C479.203 17.8127 478.873 18.8036 478.873 20.6836C478.873 22.2773 479.18 23.1861 479.523 23.6737C479.791 24.0452 480.13 24.2559 480.811 24.2559C481.445 24.2559 481.791 24.0575 482.081 23.6669C482.394 23.2325 482.731 22.2445 482.731 20.3145C482.731 18.7699 482.423 17.8665 482.063 17.3599C481.769 16.9459 481.421 16.7422 480.776 16.7422C480.15 16.7422 479.817 16.9386 479.532 17.3468ZM483.693 24.8496C483.002 25.7871 482.041 26.2559 480.811 26.2559C479.545 26.2559 478.572 25.7812 477.893 24.832C477.213 23.8711 476.873 22.4883 476.873 20.6836C476.873 18.6562 477.213 17.1621 477.893 16.2012C478.572 15.2285 479.533 14.7422 480.776 14.7422C482.029 14.7422 483.002 15.2285 483.693 16.2012C484.385 17.1738 484.731 18.5449 484.731 20.3145C484.731 22.3887 484.385 23.9004 483.693 24.8496ZM519.131 20.3672H524.791V11.332L524.457 11.9121L519.131 20.3672ZM529.871 4.40625V20.3672H532.772V24.4629H529.871V30H524.791V24.4629H514.297L514.068 21.2637L524.738 4.40625H529.871ZM522.791 26.4629H512.435L512.027 20.7499L523.637 2.40625H531.871V18.3672H534.772V26.4629H531.871V32H522.791V26.4629ZM522.791 18.3092L522.755 18.3672H522.791V18.3092ZM546.133 33.498C546.823 33.4512 547.356 33.3105 547.731 33.0762C548.211 32.7832 548.586 32.2969 548.856 31.6172L549.453 30.0527L542.791 10.9805H548.258L551.791 22.8105L555.307 10.9805H560.756L553.109 32.9531L552.688 33.9551C551.551 36.4395 549.676 37.6816 547.063 37.6816C546.324 37.6816 545.574 37.5703 544.813 37.3477V33.498L545.586 33.5156C545.778 33.5156 545.961 33.5098 546.133 33.498ZM545.607 31.5156C545.982 31.5145 546.254 31.485 546.441 31.4465C546.606 31.4128 546.671 31.3795 546.674 31.3777L546.68 31.3743L546.689 31.3686C546.701 31.3613 546.837 31.2785 546.992 30.8901C546.994 30.8867 546.995 30.8833 546.996 30.8799L547.324 30.022L539.974 8.98047H549.748L551.786 15.8057L553.815 8.98047H563.57L562.331 12.541C563.076 11.5836 563.978 10.7794 565.035 10.145L565.036 10.1444L566.065 11.8594M576.84 13.0898C578.34 14.7305 579.09 17.0566 579.09 20.0684V22.1426H566.979C567.079 22.901 567.301 23.5676 567.646 24.1426C567.866 24.5093 568.136 24.8388 568.455 25.1309C569.287 25.8809 570.336 26.2559 571.602 26.2559C572.794 26.2559 573.828 25.9927 574.702 25.4663C575.259 25.1315 575.751 24.6903 576.179 24.1426C576.182 24.138 576.186 24.1335 576.19 24.1289L578.686 26.9238C577.924 28.002 576.893 28.8457 575.592 29.4551C574.291 30.0527 572.85 30.3516 571.268 30.3516C568.479 30.3516 566.205 29.4961 564.447 27.7852C562.701 26.0742 561.828 23.7949 561.828 20.9473V20.4551C561.828 18.5449 562.197 16.8398 562.936 15.3398M559.847 19.6789C559.834 19.9353 559.828 20.1941 559.828 20.4551V20.9473C559.828 24.2364 560.854 27.0643 563.048 29.2137L563.052 29.2183C565.236 31.3433 568.035 32.3516 571.268 32.3516C573.107 32.3516 574.838 32.0026 576.427 31.2724L576.434 31.2693L576.44 31.2662C577.941 30.5632 579.197 29.5777 580.157 28.3C580.557 29.0077 581.085 29.6548 581.737 30.2324L581.745 30.2386C583.39 31.6807 585.427 32.3516 587.703 32.3516C589.097 32.3516 590.385 32.0718 591.537 31.5061L591.79 32H608.371V18.1059C608.608 17.8432 609.08 17.6035 610.151 17.6035C610.565 17.6035 611.081 17.6407 611.71 17.726L612.177 17.7894C612.449 19.3135 613.231 20.635 614.472 21.6891C614.578 21.7794 614.687 21.8674 614.799 21.9531H611.473V23.9531C611.473 25.5408 611.968 27.0118 612.893 28.3233L612.9 28.3324C613.827 29.6301 615.078 30.6185 616.582 31.3202L616.592 31.325L616.603 31.3297C618.144 32.0278 619.851 32.3516 621.682 32.3516C624.335 32.3516 626.698 31.749 628.612 30.3777L628.621 30.3716C630.592 28.9437 631.68 26.9524 631.68 24.5332C631.68 22.9276 631.226 21.4449 630.245 20.1982C629.813 19.6486 629.3 19.1732 628.723 18.7637H631.627V16.7637C631.627 14.3208 630.608 12.2675 628.68 10.7587C626.789 9.27038 624.383 8.62891 621.664 8.62891C619.062 8.62891 616.749 9.28809 614.905 10.7786C614.592 11.0314 614.303 11.2984 614.039 11.5791L614.07 9.38946L612.64 8.94685C611.94 8.73005 611.212 8.62891 610.467 8.62891C609.565 8.62891 608.734 8.78842 607.977 9.09068L607.97 8.98047H599.291V15.8989C599.016 13.9141 598.154 12.1923 596.614 10.8842C594.785 9.3086 592.418 8.62891 589.742 8.62891C587.963 8.62891 586.294 8.93931 584.769 9.59982C583.252 10.2453 581.981 11.1854 581.057 12.4608C580.614 13.0716 580.271 13.7215 580.036 14.405C579.607 13.4236 579.039 12.5308 578.317 11.7416L578.316 11.7403L576.84 13.0898M581.04 18.6934C581.059 18.9538 581.073 19.2176 581.081 19.4845C581.331 19.2051 581.607 18.9411 581.908 18.6934H581.04ZM586.736 16.6934C586.736 16.677 586.736 16.6607 586.736 16.6445C586.747 15.9529 586.988 15.4066 587.457 15.0059C587.949 14.5957 588.623 14.3906 589.479 14.3906C590.451 14.3906 591.16 14.6543 591.606 15.1816C591.892 15.5123 592.089 15.912 592.196 16.3809C592.259 16.6598 592.291 16.9632 592.291 17.291V18.3809H589.953C589.533 18.3826 589.127 18.3962 588.736 18.4215C588.021 18.4679 587.354 18.554 586.736 18.6796C586.714 18.6841 586.692 18.6887 586.67 18.6934C585.388 18.9616 584.32 19.4023 583.467 20.0156C581.979 21.0938 581.234 22.6406 581.234 24.6562C581.234 26.2969 581.844 27.6562 583.063 28.7344C584.293 29.8125 585.84 30.3516 587.703 30.3516C588.843 30.3516 589.859 30.1218 590.752 29.6622C591.4 29.328 591.984 28.8722 592.502 28.2949C592.608 28.9746 592.777 29.543 593.012 30H598.145V29.7012C597.901 29.2421 597.716 28.6751 597.59 28C597.462 27.3135 597.395 26.5154 597.389 25.6055V17.3613C597.389 15.2285 596.697 13.5762 595.315 12.4043C593.943 11.2207 592.086 10.6289 589.742 10.6289C588.195 10.6289 586.801 10.8984 585.559 11.4375C584.317 11.9648 583.356 12.6973 582.676 13.6348C582.428 13.9767 582.225 14.3296 582.068 14.6934C581.794 15.3269 581.656 15.9936 581.656 16.6934H586.736ZM579.248 24.1426H578.883L579.235 24.5367C579.237 24.4042 579.241 24.2728 579.248 24.1426ZM608.11 11.2496C607.38 11.6858 606.754 12.3519 606.231 13.248L606.09 10.9805H601.291V30H606.371V17.5547C606.951 16.2927 608.154 15.6429 609.98 15.6052C610.036 15.6041 610.093 15.6035 610.151 15.6035C610.678 15.6035 611.287 15.6504 611.979 15.7441L612.049 10.8574C611.557 10.7051 611.029 10.6289 610.467 10.6289C609.588 10.6289 608.803 10.8358 608.11 11.2496ZM616.162 12.334C614.768 13.459 614.07 14.8652 614.07 16.5527C614.07 19.1151 615.843 20.9152 619.388 21.9531C619.648 22.0295 619.919 22.1018 620.199 22.17C620.412 22.2218 620.631 22.2713 620.856 22.3184C622.215 22.5996 623.199 22.9219 623.809 23.2852C624.43 23.6367 624.74 24.123 624.74 24.7441C624.74 25.3418 624.488 25.8281 623.984 26.2031C623.492 26.5664 622.76 26.748 621.787 26.748C620.744 26.748 619.912 26.5078 619.291 26.0273C618.67 25.5469 618.336 24.8555 618.289 23.9531H613.473C613.473 24.6476 613.601 25.3143 613.859 25.9531C614.027 26.3706 614.25 26.7762 614.527 27.1699C615.231 28.1543 616.197 28.9336 617.428 29.5078C618.67 30.0703 620.088 30.3516 621.682 30.3516C624.037 30.3516 625.959 29.8184 627.447 28.752C628.936 27.6738 629.68 26.2676 629.68 24.5332C629.68 22.1074 628.338 20.4023 625.654 19.418C625.002 19.18 624.237 18.9619 623.359 18.7637C623.099 18.7048 622.828 18.6476 622.547 18.5922C622.517 18.5862 622.486 18.5802 622.455 18.5742C621.19 18.3164 620.287 18.0176 619.748 17.6777C619.221 17.3262 618.957 16.8691 618.957 16.3066C618.957 15.709 619.192 15.2168 619.66 14.8301C620.129 14.4434 620.791 14.25 621.647 14.25C622.643 14.25 623.375 14.4902 623.844 14.9707C624.313 15.4395 624.547 16.0371 624.547 16.7637H629.627C629.627 16.0436 629.513 15.3769 629.285 14.7637C628.937 13.83 628.324 13.0201 627.447 12.334C626.006 11.1973 624.078 10.6289 621.664 10.6289C619.402 10.6289 617.568 11.1973 616.162 12.334ZM621.451 16.2557C621.719 16.3447 622.071 16.443 622.524 16.5439C622.501 16.4594 622.464 16.4193 622.43 16.3849L622.421 16.3762L622.42 16.3753C622.388 16.3538 622.198 16.25 621.647 16.25C621.575 16.25 621.51 16.2521 621.451 16.2557ZM622.173 24.7334C621.776 24.5926 621.214 24.4349 620.45 24.2769L620.445 24.2757C620.419 24.2703 620.393 24.2647 620.367 24.2592C620.412 24.3604 620.468 24.4089 620.515 24.4454C620.686 24.5778 621.042 24.748 621.787 24.748C621.932 24.748 622.06 24.7426 622.173 24.7334ZM559.847 19.6789L554.977 33.6706L554.519 34.7594L554.506 34.7872C553.816 36.2958 552.843 37.5496 551.533 38.4173C550.218 39.2888 548.697 39.6816 547.063 39.6816C546.121 39.6816 545.182 39.5393 544.251 39.2673L542.813 38.8467V31.4521L545.586 31.5156C545.593 31.5156 545.6 31.5156 545.607 31.5156M572.688 24.1426H570.699C570.958 24.2159 571.255 24.2559 571.602 24.2559C572.001 24.2559 572.361 24.2176 572.688 24.1426ZM573.814 16.6797C573.991 17.1365 574.085 17.6684 574.098 18.2754V18.6797H567.031C567.139 17.9026 567.331 17.2359 567.607 16.6797C567.78 16.3301 567.987 16.0241 568.227 15.7617C568.859 15.082 569.68 14.7422 570.688 14.7422C571.766 14.7422 572.598 15.0527 573.184 15.6738C573.454 15.9544 573.664 16.2897 573.814 16.6797ZM113.037 20.7188C113.037 22.315 113.324 23.2323 113.642 23.7194C113.875 24.0751 114.132 24.2383 114.676 24.2383C115.178 24.2383 115.475 24.1342 115.658 24.0251C115.768 23.9596 115.883 23.864 115.998 23.7121V17.2773C115.886 17.1255 115.773 17.0317 115.667 16.9681C115.493 16.8628 115.205 16.7598 114.711 16.7598C114.139 16.7598 113.885 16.9313 113.658 17.2991C113.333 17.8259 113.037 18.873 113.037 20.7188ZM117.998 24.252C117.354 25.5762 116.246 26.2383 114.676 26.2383C113.492 26.2383 112.59 25.7637 111.969 24.8145C111.348 23.8652 111.037 22.5 111.037 20.7188C111.037 16.7461 112.262 14.7598 114.711 14.7598C116.27 14.7598 117.365 15.4219 117.998 16.7461V24.252ZM295.358 20.7188C295.358 22.315 295.644 23.2323 295.963 23.7194C296.196 24.0751 296.452 24.2383 296.996 24.2383C297.498 24.2383 297.796 24.1342 297.978 24.0251C298.088 23.9596 298.204 23.864 298.318 23.7121V17.2773C298.206 17.1255 298.093 17.0317 297.988 16.9681C297.813 16.8628 297.525 16.7598 297.031 16.7598C296.459 16.7598 296.205 16.9313 295.978 17.2991C295.654 17.8259 295.358 18.873 295.358 20.7188ZM300.318 24.252C299.674 25.5762 298.567 26.2383 296.996 26.2383C295.813 26.2383 294.91 25.7637 294.289 24.8145C293.668 23.8652 293.358 22.5 293.358 20.7188C293.358 16.7461 294.582 14.7598 297.031 14.7598C298.59 14.7598 299.686 15.4219 300.318 16.7461V24.252ZM354.35 20.7188C354.35 22.315 354.636 23.2323 354.955 23.7194C355.188 24.0751 355.444 24.2383 355.988 24.2383C356.491 24.2383 356.788 24.1342 356.97 24.0251C357.08 23.9596 357.196 23.864 357.311 23.7121V17.2773C357.198 17.1255 357.085 17.0317 356.98 16.9681C356.806 16.8628 356.518 16.7598 356.024 16.7598C355.451 16.7598 355.197 16.9313 354.971 17.2991C354.646 17.8259 354.35 18.873 354.35 20.7188ZM359.311 24.252C358.666 25.5762 357.559 26.2383 355.988 26.2383C354.805 26.2383 353.902 25.7637 353.281 24.8145C352.66 23.8652 352.35 22.5 352.35 20.7188C352.35 16.7461 353.574 14.7598 356.024 14.7598C357.582 14.7598 358.678 15.4219 359.311 16.7461V24.252ZM589.952 24.2054C590.093 24.1285 590.204 24.0498 590.291 23.9711V23.3521C589.271 23.3639 588.768 23.5525 588.56 23.6881C588.47 23.7463 588.434 23.7938 588.412 23.8324C588.388 23.8741 588.346 23.9659 588.326 24.147L588.316 24.3253C588.316 24.3335 588.317 24.3405 588.318 24.3462C588.319 24.3532 588.319 24.3584 588.32 24.362L588.32 24.3632C588.322 24.3718 588.323 24.3723 588.321 24.3675C588.32 24.3654 588.319 24.3631 588.318 24.3609L588.317 24.3594L588.316 24.3577C588.316 24.3577 588.316 24.3588 588.318 24.3609M588.32 24.3632C588.323 24.3668 588.329 24.3727 588.338 24.3805C588.341 24.3842 588.358 24.3994 588.411 24.4175C588.474 24.4384 588.598 24.4668 588.811 24.4668C589.252 24.4668 589.622 24.3743 589.952 24.2054M586.315 24.2871L586.332 23.9883C586.494 22.254 587.814 21.3753 590.291 21.352C590.325 21.3517 590.359 21.3516 590.393 21.3516H592.291V24.6211C591.986 25.1836 591.518 25.6348 590.885 25.9746C590.252 26.3027 589.561 26.4668 588.811 26.4668C588.037 26.4668 587.428 26.2617 586.983 25.8516C586.537 25.4414 586.315 24.9199 586.315 24.2871ZM141.359 30V10.9805H136.262V30H141.359ZM323.68 30V10.9805H318.582V30H323.68Z" fill="#625F5F"/>
</svg>
