<svg width="587" height="37" viewBox="0 0 587 37" fill="none" xmlns="http://www.w3.org/2000/svg">
<path fill-rule="evenodd" clip-rule="evenodd" d="M20.2832 29H0.740234V24.1239L9.28593 15.0157C10.3963 13.8019 11.1808 12.7787 11.669 11.9402L11.6738 11.932C12.1591 11.1163 12.3594 10.413 12.3594 9.80664C12.3594 8.83595 12.1164 8.20972 11.7514 7.79997L11.7454 7.7933C11.4027 7.40165 10.8851 7.15039 10.0371 7.15039C9.14968 7.15039 8.53571 7.44326 8.07911 7.98781C7.60934 8.55029 7.32812 9.34044 7.32812 10.457V11.457H0.230469V10.457C0.230469 8.733 0.64087 7.13648 1.47013 5.68856L1.47352 5.68264C2.3195 4.22861 3.51181 3.09258 5.02764 2.28175C6.54883 1.45626 8.25613 1.05469 10.125 1.05469C12.9131 1.05469 15.2224 1.72432 16.915 3.19774C18.6413 4.69003 19.457 6.7775 19.457 9.31445C19.457 10.7583 19.0817 12.1996 18.3671 13.6289C17.6523 15.0584 16.4592 16.6656 14.8362 18.4437L14.8298 18.4507L10.6059 22.9043H20.2832V29ZM8.2793 23.9043L14.0977 17.7695C15.6914 16.0234 16.8164 14.4941 17.4727 13.1816C18.1289 11.8691 18.457 10.5801 18.457 9.31445C18.457 7.00586 17.7246 5.21875 16.2598 3.95312C14.8066 2.6875 12.7617 2.05469 10.125 2.05469C8.40234 2.05469 6.86133 2.42383 5.50195 3.16211C4.14258 3.88867 3.08789 4.89648 2.33789 6.18555C1.76054 7.19362 1.40894 8.28412 1.28309 9.45703C1.24801 9.78396 1.23047 10.1173 1.23047 10.457H6.32812C6.32812 9.16797 6.65625 8.13086 7.3125 7.3457C7.98047 6.54883 8.88867 6.15039 10.0371 6.15039C11.1035 6.15039 11.9238 6.47852 12.498 7.13477C13.0723 7.7793 13.3594 8.66992 13.3594 9.80664C13.3594 10.6387 13.084 11.5176 12.5332 12.4434C11.9941 13.3691 11.1562 14.4531 10.0195 15.6953L1.74023 24.5195V28H19.2832V23.9043H8.2793ZM40.8145 5.46203L30.5734 29H22.9937L32.9078 7.51953H20.7441V1.40625H40.8145V5.46203ZM34.4707 6.51953L24.5566 28H29.918L39.8145 5.25391V2.40625H21.7441V6.51953H34.4707ZM53.3828 31.5128C54.2303 31.4912 54.8696 31.3456 55.3008 31.0762C55.7812 30.7832 56.1562 30.2969 56.4258 29.6172L57.0234 28.0527L50.3613 8.98047H55.8281L59.3613 20.8105L62.877 8.98047H68.3262L60.6797 30.9531L60.2578 31.9551C59.1211 34.4395 57.2461 35.6816 54.6328 35.6816C53.8945 35.6816 53.1445 35.5703 52.3828 35.3477V31.498L53.1562 31.5156C53.2334 31.5156 53.3089 31.5147 53.3828 31.5128ZM53.1672 30.5156C54.0551 30.5145 54.5404 30.3722 54.7708 30.2282L54.7801 30.2223C55.0256 30.0727 55.2809 29.789 55.494 29.2541L55.9588 28.0374L48.9528 7.98047H56.5731L59.3589 17.3081L62.1309 7.98047H69.733L61.6137 31.3119L61.1735 32.3572L61.1671 32.3711C60.5378 33.7465 59.6749 34.8392 58.5513 35.5836C57.4249 36.3299 56.1033 36.6816 54.6328 36.6816C53.7927 36.6816 52.9483 36.5548 52.1022 36.3075L51.3828 36.0972V30.4751L53.1672 30.5156ZM71.3201 26.5018L71.3177 26.4994C69.3479 24.5693 68.3984 22.0156 68.3984 18.9473V18.4551C68.3984 16.4138 68.7936 14.5543 69.6085 12.8986C69.6085 12.8985 69.6084 12.8987 69.6085 12.8986L70.5059 13.3398L69.6073 12.901C69.6077 12.9002 69.6081 12.8994 69.6085 12.8986C70.4251 11.2275 71.5952 9.91723 73.1192 9.00253C74.6484 8.07998 76.3767 7.62891 78.2754 7.62891C81.1045 7.62891 83.4384 8.53109 85.1495 10.4165C86.8692 12.2983 87.6602 14.8975 87.6602 18.0684V21.1426H84.2196L87.5317 24.8511L87.0726 25.5009C86.202 26.733 85.03 27.6843 83.5863 28.3606L83.5796 28.3638C82.1347 29.0277 80.5488 29.3516 78.8379 29.3516C75.827 29.3516 73.2906 28.4197 71.3201 26.5018ZM83.2597 21.1426H75.8312C76.0348 21.6392 76.3261 22.0501 76.6976 22.3905C77.3215 22.9517 78.1206 23.2559 79.1719 23.2559C80.852 23.2559 82.0767 22.6654 82.9701 21.5154L83.2597 21.1426ZM76.0254 23.1309C75.4383 22.5941 75.0193 21.9314 74.7684 21.1426C74.6687 20.8291 74.5955 20.4958 74.5488 20.1426H86.6602V18.0684C86.6602 15.0566 85.9102 12.7305 84.4102 11.0898C82.9219 9.44922 80.877 8.62891 78.2754 8.62891C76.541 8.62891 74.9941 9.03906 73.6348 9.85938M84.4354 22.8854L86.2559 24.9238C85.4941 26.002 84.4629 26.8457 83.1621 27.4551C81.8613 28.0527 80.4199 28.3516 78.8379 28.3516C76.0488 28.3516 73.7754 27.4961 72.0176 25.7852M84.4354 22.8854L83.7598 22.1289C83.5483 22.4011 83.3212 22.6471 83.0782 22.867C82.0554 23.7929 80.7533 24.2559 79.1719 24.2559C77.9062 24.2559 76.8574 23.8809 76.0254 23.1309M80.0331 14.3669L80.0265 14.3601C79.6765 13.989 79.1375 13.7422 78.2578 13.7422C77.5031 13.7422 76.9579 13.9839 76.532 14.4397C76.2594 14.7391 76.0242 15.1439 75.8471 15.6797H80.6171C80.523 15.0703 80.3092 14.6541 80.0331 14.3669ZM81.6264 15.6797C81.6498 15.8695 81.6637 16.0681 81.668 16.2754V16.6797H74.6016C74.6511 16.3231 74.7183 15.9898 74.8032 15.6797C75.0195 14.8892 75.3508 14.2499 75.7969 13.7617C76.4297 13.082 77.25 12.7422 78.2578 12.7422C79.3359 12.7422 80.168 13.0527 80.7539 13.6738C81.2319 14.1709 81.5227 14.8395 81.6264 15.6797ZM99.971 29L99.6922 28.4563C99.6337 28.3422 99.5792 28.2243 99.5284 28.1026C98.3179 28.9374 96.8881 29.3516 95.2734 29.3516C93.2036 29.3516 91.4119 28.7466 89.9738 27.4865L89.9702 27.4834C88.5349 26.2136 87.8047 24.5806 87.8047 22.6562C87.8047 20.3561 88.6746 18.4922 90.4505 17.2058L90.4535 17.2036C91.4655 16.4762 92.7027 15.9818 94.1385 15.6934H88.2266V14.6934C88.2266 13.3698 88.6398 12.1467 89.4365 11.0478C90.2387 9.94128 91.3546 9.10503 92.7343 8.51864C94.1179 7.91885 95.6495 7.62891 97.3125 7.62891C99.8222 7.62891 101.934 8.26459 103.535 9.64424C105.18 11.0402 105.959 12.9937 105.959 15.3613V23.6025C105.971 25.3448 106.218 26.5174 106.598 27.2317L106.715 27.4519V29H99.971ZM104.959 23.6055V15.3613C104.959 13.2285 104.268 11.5762 102.885 10.4043C101.514 9.2207 99.6562 8.62891 97.3125 8.62891C95.7656 8.62891 94.3711 8.89844 93.1289 9.4375C91.8867 9.96484 90.9258 10.6973 90.2461 11.6348C89.7769 12.2819 89.4697 12.9681 89.3244 13.6934C89.2592 14.0188 89.2266 14.3522 89.2266 14.6934H94.3066C94.3066 13.9785 94.5469 13.416 95.0273 13.0059C95.5195 12.5957 96.1934 12.3906 97.0488 12.3906C98.0215 12.3906 98.7305 12.6543 99.1758 13.1816C99.6328 13.709 99.8613 14.4121 99.8613 15.291V16.3809H97.5234C94.6992 16.3926 92.5371 16.9375 91.0371 18.0156C89.5488 19.0938 88.8047 20.6406 88.8047 22.6562C88.8047 24.2969 89.4141 25.6562 90.6328 26.7344C91.8633 27.8125 93.4102 28.3516 95.2734 28.3516C96.8104 28.3516 98.1224 27.9337 99.2094 27.0981C99.5148 26.8634 99.8024 26.5956 100.072 26.2949C100.138 26.7213 100.23 27.1039 100.347 27.4426C100.416 27.6439 100.495 27.8297 100.582 28H105.715V27.7012C105.603 27.4903 105.503 27.2565 105.416 27C105.12 26.1305 104.968 24.999 104.959 23.6055ZM98.8613 15.3809V15.291C98.8613 14.5883 98.682 14.1387 98.4201 13.8366L98.4117 13.8269C98.2246 13.6054 97.8524 13.3906 97.0488 13.3906C96.3525 13.3906 95.9325 13.5555 95.6721 13.7703C95.4476 13.9638 95.3066 14.2311 95.3066 14.6934V15.5087C96.0054 15.4259 96.7438 15.3841 97.5193 15.3809L97.5234 15.3808L98.8613 15.3809ZM97.9883 23.0902C98.3802 22.8786 98.6623 22.6272 98.8613 22.3409V20.3516H97.9629C96.7826 20.3516 96.0313 20.5597 95.5851 20.8494C95.1946 21.103 94.9588 21.4676 94.8995 22.0655L94.885 22.3132C94.8904 22.6666 95.0062 22.9097 95.2302 23.116C95.4439 23.3129 95.7863 23.4668 96.3809 23.4668C96.9766 23.4668 97.5069 23.3385 97.9883 23.0902ZM93.8848 22.2871L93.9023 21.9883C94.0664 20.2305 95.4199 19.3516 97.9629 19.3516H99.8613V22.6211C99.5566 23.1836 99.0879 23.6348 98.4551 23.9746C97.8223 24.3027 97.1309 24.4668 96.3809 24.4668C95.6074 24.4668 94.998 24.2617 94.5527 23.8516C94.1074 23.4414 93.8848 22.9199 93.8848 22.2871ZM120.532 14.8867L119.414 14.7351C118.754 14.6456 118.191 14.6035 117.721 14.6035C116.156 14.6035 115.352 15.0726 114.941 15.7938V29H107.861V7.98047H114.6L114.647 8.74505C115.599 8.01497 116.732 7.62891 118.037 7.62891C118.691 7.62891 119.319 7.71756 119.915 7.90214L120.63 8.12344L120.532 14.8867ZM114.726 10.0107C114.388 10.3578 114.08 10.7702 113.801 11.248L113.66 8.98047H108.861V28H113.941V15.5547C114.539 14.2539 115.799 13.6035 117.721 13.6035C117.978 13.6035 118.254 13.6147 118.55 13.6369C118.862 13.6603 119.194 13.6961 119.549 13.7441L119.619 8.85742C119.127 8.70508 118.6 8.62891 118.037 8.62891C116.726 8.62891 115.623 9.08951 114.726 10.0107ZM130.877 22.1499L130.867 22.1441C130.406 21.8695 129.557 21.5736 128.223 21.2976L128.22 21.297C125.878 20.8055 123.999 20.0398 122.689 18.9271C121.341 17.7817 120.641 16.3019 120.641 14.5527C120.641 12.542 121.491 10.857 123.105 9.55567C124.73 8.24248 126.803 7.62891 129.234 7.62891C131.801 7.62891 133.969 8.23415 135.635 9.54756C137.325 10.8702 138.197 12.6347 138.197 14.7637V15.7637H131.117V14.7637C131.117 14.2743 130.969 13.9401 130.707 13.6778L130.698 13.6691C130.492 13.458 130.073 13.25 129.217 13.25C128.5 13.25 128.096 13.4126 127.867 13.6015C127.624 13.8019 127.527 14.0132 127.527 14.3066C127.527 14.4858 127.581 14.648 127.863 14.8386C128.243 15.0749 128.992 15.3429 130.221 15.5935C131.518 15.8458 132.637 16.139 133.567 16.4785L133.569 16.4791C135.031 17.0154 136.213 17.7791 137.029 18.8166C137.855 19.8663 138.25 21.124 138.25 22.5332C138.25 24.61 137.334 26.3087 135.604 27.5618L135.6 27.5648C133.899 28.7837 131.756 29.3516 129.252 29.3516C127.54 29.3516 125.977 29.049 124.586 28.4188L124.575 28.4141C123.208 27.7761 122.099 26.8922 121.284 25.7512L121.281 25.7466C120.466 24.5928 120.043 23.3212 120.043 21.9531V20.9531H126.809L126.858 21.9012C126.892 22.5614 127.119 22.962 127.473 23.2364C127.869 23.5428 128.463 23.748 129.357 23.748C130.232 23.748 130.714 23.5803 130.959 23.3996C131.224 23.2024 131.311 23.0067 131.311 22.7441C131.311 22.5436 131.25 22.3613 130.886 22.1554L130.877 22.1499ZM131.555 24.2031C131.062 24.5664 130.33 24.748 129.357 24.748C128.314 24.748 127.482 24.5078 126.861 24.0273C126.24 23.5469 125.906 22.8555 125.859 21.9531H121.043C121.043 22.2931 121.074 22.6265 121.135 22.9531C121.282 23.7298 121.603 24.4687 122.098 25.1699C122.801 26.1543 123.768 26.9336 124.998 27.5078C126.24 28.0703 127.658 28.3516 129.252 28.3516C131.607 28.3516 133.529 27.8184 135.018 26.752C136.506 25.6738 137.25 24.2676 137.25 22.5332C137.25 20.1074 135.908 18.4023 133.225 17.418C132.357 17.1016 131.291 16.8203 130.025 16.5742C128.76 16.3164 127.857 16.0176 127.318 15.6777C126.791 15.3262 126.527 14.8691 126.527 14.3066C126.527 13.709 126.762 13.2168 127.23 12.8301C127.699 12.4434 128.361 12.25 129.217 12.25C130.213 12.25 130.945 12.4902 131.414 12.9707C131.883 13.4395 132.117 14.0371 132.117 14.7637H137.197C137.197 14.418 137.171 14.0847 137.118 13.7637C136.894 12.3976 136.194 11.2544 135.018 10.334C133.576 9.19727 131.648 8.62891 129.234 8.62891C126.973 8.62891 125.139 9.19727 123.732 10.334C122.338 11.459 121.641 12.8652 121.641 14.5527C121.641 17.4473 123.902 19.3691 128.426 20.3184C129.785 20.5996 130.77 20.9219 131.379 21.2852C132 21.6367 132.311 22.123 132.311 22.7441C132.311 23.3418 132.059 23.8281 131.555 24.2031ZM152.418 8.98235L152.422 8.98042C153.966 8.06944 155.734 7.62891 157.693 7.62891C160.48 7.62891 162.834 8.48954 164.664 10.2657C166.504 12.0399 167.49 14.4224 167.691 17.3134L167.692 17.3346L167.729 18.6701V18.6836C167.729 21.7961 166.854 24.4003 165.021 26.3921L165.019 26.3945C163.172 28.3869 160.705 29.3516 157.729 29.3516C154.752 29.3516 152.28 28.3869 150.423 26.3972L150.421 26.3945C148.579 24.407 147.711 21.7498 147.711 18.543V18.3145C147.711 16.2971 148.1 14.4608 148.904 12.828C149.712 11.1851 150.886 9.89408 152.418 8.98235ZM163.969 10.9844C162.352 9.41406 160.26 8.62891 157.693 8.62891C155.889 8.62891 154.301 9.0332 152.93 9.8418C151.57 10.6504 150.527 11.793 149.801 13.2695C149.074 14.7461 148.711 16.4277 148.711 18.3145V18.543C148.711 21.5664 149.525 23.957 151.154 25.7148C152.795 27.4727 154.986 28.3516 157.729 28.3516C160.471 28.3516 162.656 27.4727 164.285 25.7148C165.914 23.9453 166.729 21.6016 166.729 18.6836L166.693 17.3828C166.506 14.6875 165.598 12.5547 163.969 10.9844ZM155.63 14.774L155.627 14.7786C155.126 15.4874 154.791 16.7299 154.791 18.6836C154.791 20.3836 155.115 21.5293 155.626 22.2532C156.1 22.9132 156.755 23.2559 157.729 23.2559C158.661 23.2559 159.315 22.9222 159.805 22.2579C160.307 21.5668 160.648 20.3176 160.648 18.3145C160.648 16.6574 160.322 15.5202 159.796 14.7806C159.303 14.0872 158.643 13.7422 157.693 13.7422C156.76 13.7422 156.113 14.0836 155.63 14.774ZM160.611 22.8496C159.92 23.7871 158.959 24.2559 157.729 24.2559C156.463 24.2559 155.49 23.7812 154.811 22.832C154.131 21.8711 153.791 20.4883 153.791 18.6836C153.791 16.6562 154.131 15.1621 154.811 14.2012C155.49 13.2285 156.451 12.7422 157.693 12.7422C158.947 12.7422 159.92 13.2285 160.611 14.2012C161.303 15.1738 161.648 16.5449 161.648 18.3145C161.648 20.3887 161.303 21.9004 160.611 22.8496ZM176.219 29H169.121V0H176.219V29ZM179.817 10.6639L179.819 10.6605C181.354 8.64095 183.478 7.62891 186.082 7.62891C187.413 7.62891 188.615 7.94446 189.67 8.56939V0H196.768V29H190.294L190.181 28.0729C188.998 28.9198 187.612 29.3516 186.047 29.3516C183.502 29.3516 181.41 28.3314 179.859 26.3266L179.855 26.3207C178.33 24.3181 177.629 21.6213 177.629 18.3496C177.629 15.2423 178.323 12.6465 179.817 10.6639ZM190.04 26.9126C190.356 26.64 190.654 26.3286 190.934 25.9785L191.18 28H195.768V1H190.67V10.7031C190.358 10.3459 190.025 10.0348 189.67 9.76985C188.651 9.00922 187.455 8.62891 186.082 8.62891C183.773 8.62891 181.951 9.50781 180.615 11.2656C179.291 13.0234 178.629 15.3848 178.629 18.3496C178.629 21.4902 179.303 23.9453 180.65 25.7148C182.01 27.4727 183.809 28.3516 186.047 28.3516C187.598 28.3516 188.929 27.8719 190.04 26.9126ZM184.709 18.7188C184.709 20.4075 185.008 21.5488 185.477 22.2669C185.904 22.9194 186.484 23.2383 187.348 23.2383C187.991 23.2383 188.475 23.1035 188.843 22.8834C189.16 22.694 189.438 22.4133 189.67 22.0061V14.988C189.442 14.5801 189.168 14.3003 188.856 14.1122C188.495 13.8941 188.019 13.7598 187.383 13.7598C186.484 13.7598 185.898 14.0938 185.479 14.7743C185.01 15.5343 184.709 16.8027 184.709 18.7188ZM190.67 14.7461V22.252C190.025 23.5762 188.918 24.2383 187.348 24.2383C186.164 24.2383 185.262 23.7637 184.641 22.8145C184.02 21.8652 183.709 20.5 183.709 18.7188C183.709 14.7461 184.934 12.7598 187.383 12.7598C188.941 12.7598 190.037 13.4219 190.67 14.7461ZM230.171 18.4746L230.093 19.5468C229.878 22.5255 228.76 24.9553 226.691 26.7352C226.69 26.7357 226.69 26.7362 226.689 26.7367L226.037 25.9785L226.691 26.7352C226.691 26.7354 226.691 26.735 226.691 26.7352C224.64 28.5094 221.975 29.3516 218.795 29.3516C215.264 29.3516 212.386 28.1529 210.283 25.6973L210.28 25.693C208.208 23.2456 207.23 19.955 207.23 15.9414V14.377C207.23 11.7984 207.685 9.4826 208.624 7.45327C209.565 5.41876 210.925 3.82642 212.711 2.71772C214.506 1.59954 216.568 1.05469 218.865 1.05469C222.003 1.05469 224.635 1.89925 226.661 3.67576C228.693 5.45725 229.825 7.93266 230.126 10.992L230.234 12.0898H222.932L222.86 11.1676C222.741 9.63815 222.325 8.73409 221.789 8.23747L221.784 8.23228L221.778 8.22702C221.253 7.72504 220.349 7.37891 218.865 7.37891C217.382 7.37891 216.396 7.89202 215.732 8.84693C215.036 9.85369 214.598 11.5594 214.574 14.1346V16.0645C214.574 18.7707 214.989 20.5511 215.659 21.581C216.282 22.5226 217.258 23.0449 218.795 23.0449C220.295 23.0449 221.216 22.7025 221.754 22.2039C222.313 21.6856 222.719 20.8112 222.825 19.3996L222.895 18.4746H230.171ZM222.434 22.9375C221.637 23.6758 220.424 24.0449 218.795 24.0449C216.99 24.0449 215.666 23.4062 214.822 22.1289C213.99 20.8516 213.574 18.8301 213.574 16.0645V14.1309C213.598 11.4824 214.043 9.53125 214.91 8.27734C215.789 7.01172 217.107 6.37891 218.865 6.37891C220.482 6.37891 221.684 6.75391 222.469 7.50391C223.266 8.24219 223.729 9.4375 223.857 11.0898H229.131C229.097 10.7473 229.053 10.414 228.997 10.0898C228.589 7.70764 227.59 5.82027 226.002 4.42773C224.197 2.8457 221.818 2.05469 218.865 2.05469C216.732 2.05469 214.857 2.55859 213.24 3.56641C211.635 4.5625 210.398 5.99805 209.531 7.87305C208.664 9.74805 208.23 11.916 208.23 14.377V15.9414C208.23 19.7969 209.168 22.832 211.043 25.0469M228.983 20.4746H229.096V19.4746L228.098 19.4025C228.097 19.4266 228.095 19.4506 228.093 19.4746H229.096C229.071 19.817 229.033 20.1503 228.983 20.4746ZM249.537 15.8061L249.537 15.8184L249.537 29H242.457V15.959C242.457 14.9835 242.243 14.4752 242.014 14.2235L242.006 14.2152C241.811 13.9946 241.375 13.7598 240.416 13.7598C239.342 13.7598 238.648 14.1114 238.182 14.7733V29H231.102V0H238.182V8.81352C239.371 8.02937 240.737 7.62891 242.262 7.62891C244.522 7.62891 246.389 8.29236 247.678 9.76868C248.942 11.2173 249.506 13.2882 249.537 15.8061ZM238.182 10.0546C239.338 9.10413 240.699 8.62891 242.262 8.62891C246.387 8.62891 248.479 11.0254 248.537 15.8184V28H243.457V15.959C243.457 14.8691 243.223 14.0664 242.754 13.5508C242.285 13.0234 241.506 12.7598 240.416 12.7598C238.928 12.7598 237.85 13.334 237.182 14.4824V28H232.102V1H237.182V11.0547C237.496 10.6773 237.829 10.3439 238.182 10.0546ZM258.73 29H251.633V7.98047H258.73V29ZM252.391 1.46236L252.399 1.45433C253.142 0.745358 254.109 0.439453 255.182 0.439453C256.247 0.439453 257.206 0.747725 257.946 1.45438C258.674 2.14923 259.029 3.04451 259.029 4.05859C259.029 5.08435 258.668 5.98766 257.926 6.68307C257.189 7.38541 256.238 7.69531 255.182 7.69531C254.123 7.69531 253.171 7.38447 252.425 6.68809L252.417 6.68043C251.686 5.98239 251.334 5.07949 251.334 4.05859C251.334 3.05186 251.678 2.15903 252.391 1.46236ZM257.238 5.95703C257.766 5.46484 258.029 4.83203 258.029 4.05859C258.029 3.29688 257.771 2.66992 257.256 2.17773C256.74 1.68555 256.049 1.43945 255.182 1.43945C254.303 1.43945 253.605 1.68555 253.09 2.17773C252.586 2.66992 252.334 3.29688 252.334 4.05859C252.334 4.83203 252.592 5.46484 253.107 5.95703C253.635 6.44922 254.326 6.69531 255.182 6.69531C256.037 6.69531 256.723 6.44922 257.238 5.95703ZM267.538 7.98047L267.612 9.0074C268.916 8.08827 270.467 7.62891 272.232 7.62891C274.447 7.62891 276.272 8.28659 277.501 9.76486C278.693 11.1979 279.22 13.2335 279.244 15.7029L279.244 15.7129L279.244 29H272.164V15.8359C272.164 14.8674 271.948 14.4042 271.745 14.1964L271.737 14.1878C271.544 13.9855 271.099 13.7598 270.123 13.7598C269.133 13.7598 268.427 14.1177 267.906 14.877V29H260.826V7.98047H267.538ZM266.906 14.5879C267.621 13.3691 268.693 12.7598 270.123 12.7598C271.213 12.7598 271.992 13.0059 272.461 13.498C272.93 13.9785 273.164 14.7578 273.164 15.8359V28H278.244V15.7129C278.221 13.3574 277.717 11.5879 276.732 10.4043C275.748 9.2207 274.248 8.62891 272.232 8.62891C270.435 8.62891 268.923 9.15484 267.698 10.2067C267.366 10.4918 267.055 10.8154 266.766 11.1777L266.607 8.98047H261.826V28H266.906V14.5879ZM283.347 26.5018L283.345 26.4994C281.375 24.5693 280.426 22.0156 280.426 18.9473V18.4551C280.426 16.4137 280.821 14.554 281.636 12.8982L282.533 13.3398L281.635 12.901C281.635 12.9001 281.636 12.8992 281.636 12.8982C282.453 11.2273 283.623 9.91717 285.147 9.00253C286.676 8.07998 288.404 7.62891 290.303 7.62891C293.132 7.62891 295.466 8.53109 297.177 10.4165C298.897 12.2983 299.688 14.8975 299.688 18.0684V20.9531H306.387L306.436 21.9012C306.47 22.5614 306.697 22.962 307.051 23.2364C307.447 23.5428 308.042 23.748 308.936 23.748C309.809 23.748 310.29 23.5807 310.537 23.4003C310.801 23.2029 310.889 23.0071 310.889 22.7441C310.889 22.5436 310.828 22.3613 310.464 22.1554L310.455 22.1499L310.445 22.1441C309.984 21.8695 309.135 21.5736 307.801 21.2976L307.799 21.297C305.456 20.8055 303.577 20.0398 302.268 18.9271C300.92 17.7817 300.219 16.3019 300.219 14.5527C300.219 12.5423 301.069 10.8576 302.682 9.55629C304.307 8.24268 306.381 7.62891 308.812 7.62891C311.379 7.62891 313.546 8.23372 315.212 9.54635C316.903 10.8691 317.775 12.634 317.775 14.7637V15.7637H310.695V14.7637C310.695 14.2743 310.547 13.9401 310.285 13.6778L310.276 13.6691C310.07 13.458 309.651 13.25 308.795 13.25C308.078 13.25 307.674 13.4126 307.445 13.6015C307.202 13.8019 307.105 14.0132 307.105 14.3066C307.105 14.4858 307.159 14.648 307.441 14.8385C307.822 15.0749 308.57 15.3429 309.8 15.5936C311.096 15.8459 312.215 16.1391 313.146 16.4785L313.147 16.4791C314.609 17.0154 315.791 17.7791 316.608 18.8166C317.434 19.8663 317.828 21.124 317.828 22.5332C317.828 24.61 316.912 26.3087 315.182 27.5618L315.178 27.5648C313.477 28.7837 311.335 29.3516 308.83 29.3516C307.118 29.3516 305.556 29.049 304.164 28.4188L304.153 28.4141C302.786 27.776 301.677 26.8922 300.862 25.7512L300.859 25.7466C300.044 24.5928 299.621 23.3212 299.621 21.9531V21.1426H296.247L299.559 24.8511L299.1 25.5009C298.229 26.733 297.057 27.6843 295.614 28.3606L295.607 28.3638C294.162 29.0277 292.576 29.3516 290.865 29.3516C287.854 29.3516 285.318 28.4197 283.347 26.5018ZM295.287 21.1426H287.859C288.062 21.639 288.353 22.0498 288.725 22.3901C289.348 22.9515 290.148 23.2559 291.199 23.2559C292.879 23.2559 294.104 22.6654 294.997 21.5154L295.287 21.1426ZM288.053 23.1309C287.466 22.5941 287.047 21.9314 286.796 21.1426C286.696 20.8291 286.623 20.4958 286.576 20.1426H298.688V18.0684C298.688 15.0566 297.938 12.7305 296.438 11.0898C294.949 9.44922 292.904 8.62891 290.303 8.62891C288.568 8.62891 287.021 9.03906 285.662 9.85938M296.463 22.8854L298.283 24.9238C297.521 26.002 296.49 26.8457 295.189 27.4551C293.889 28.0527 292.447 28.3516 290.865 28.3516C288.076 28.3516 285.803 27.4961 284.045 25.7852M296.463 22.8854L295.787 22.1289C295.576 22.4011 295.349 22.6471 295.106 22.867C294.083 23.7929 292.781 24.2559 291.199 24.2559C289.934 24.2559 288.885 23.8809 288.053 23.1309M309.604 16.5742C308.338 16.3164 307.436 16.0176 306.896 15.6777C306.369 15.3262 306.105 14.8691 306.105 14.3066C306.105 13.709 306.34 13.2168 306.809 12.8301C307.277 12.4434 307.939 12.25 308.795 12.25C309.791 12.25 310.523 12.4902 310.992 12.9707C311.461 13.4395 311.695 14.0371 311.695 14.7637H316.775C316.775 14.418 316.749 14.0847 316.696 13.7637C316.473 12.3976 315.772 11.2544 314.596 10.334C313.154 9.19727 311.227 8.62891 308.812 8.62891C306.551 8.62891 304.717 9.19727 303.311 10.334C301.916 11.459 301.219 12.8652 301.219 14.5527C301.219 17.4473 303.48 19.3691 308.004 20.3184C309.363 20.5996 310.348 20.9219 310.957 21.2852C311.578 21.6367 311.889 22.123 311.889 22.7441C311.889 23.3418 311.637 23.8281 311.133 24.2031C310.641 24.5664 309.908 24.748 308.936 24.748C307.893 24.748 307.061 24.5078 306.439 24.0273C305.818 23.5469 305.484 22.8555 305.438 21.9531H300.621C300.621 22.2931 300.652 22.6265 300.714 22.9531C300.86 23.7298 301.181 24.4687 301.676 25.1699C302.379 26.1543 303.346 26.9336 304.576 27.5078C305.818 28.0703 307.236 28.3516 308.83 28.3516C311.186 28.3516 313.107 27.8184 314.596 26.752C316.084 25.6738 316.828 24.2676 316.828 22.5332C316.828 20.1074 315.486 18.4023 312.803 17.418C311.936 17.1016 310.869 16.8203 309.604 16.5742ZM292.06 14.3669L292.054 14.3601C291.704 13.989 291.165 13.7422 290.285 13.7422C289.53 13.7422 288.985 13.9839 288.559 14.4397C288.287 14.7391 288.052 15.1439 287.874 15.6797H292.644C292.55 15.0703 292.337 14.6541 292.06 14.3669ZM293.654 15.6797C293.677 15.8695 293.691 16.0681 293.695 16.2754V16.6797H286.629C286.678 16.3231 286.746 15.9898 286.831 15.6797C287.047 14.8892 287.378 14.2499 287.824 13.7617C288.457 13.082 289.277 12.7422 290.285 12.7422C291.363 12.7422 292.195 13.0527 292.781 13.6738C293.259 14.1709 293.55 14.8395 293.654 15.6797ZM321.351 26.5018L321.349 26.4994C319.379 24.5693 318.43 22.0156 318.43 18.9473V18.4551C318.43 16.4137 318.825 14.554 319.64 12.8982L320.537 13.3398L319.639 12.901C319.639 12.9001 319.639 12.8992 319.64 12.8982C320.457 11.2273 321.627 9.91717 323.15 9.00253C324.68 8.07998 326.408 7.62891 328.307 7.62891C331.136 7.62891 333.47 8.53109 335.181 10.4165C336.9 12.2983 337.691 14.8975 337.691 18.0684V21.1426H334.251L337.563 24.8511L337.104 25.5009C336.233 26.733 335.061 27.6843 333.618 28.3606L333.611 28.3638C332.166 29.0277 330.58 29.3516 328.869 29.3516C325.858 29.3516 323.322 28.4197 321.351 26.5018ZM333.291 21.1426H325.862C326.066 21.639 326.357 22.0498 326.728 22.3901C327.352 22.9515 328.152 23.2559 329.203 23.2559C330.883 23.2559 332.108 22.6654 333.001 21.5154L333.291 21.1426ZM326.057 23.1309C325.47 22.5941 325.051 21.9314 324.8 21.1426C324.7 20.8291 324.627 20.4958 324.58 20.1426H336.691V18.0684C336.691 15.0566 335.941 12.7305 334.441 11.0898C332.953 9.44922 330.908 8.62891 328.307 8.62891C326.572 8.62891 325.025 9.03906 323.666 9.85938M334.467 22.8854L336.287 24.9238C335.525 26.002 334.494 26.8457 333.193 27.4551C331.893 28.0527 330.451 28.3516 328.869 28.3516C326.08 28.3516 323.807 27.4961 322.049 25.7852M334.467 22.8854L333.791 22.1289C333.58 22.4011 333.352 22.6471 333.109 22.867C332.087 23.7929 330.785 24.2559 329.203 24.2559C327.938 24.2559 326.889 23.8809 326.057 23.1309M330.064 14.3669L330.058 14.3601C329.708 13.989 329.169 13.7422 328.289 13.7422C327.534 13.7422 326.989 13.9839 326.563 14.4397C326.291 14.7391 326.055 15.1439 325.878 15.6797H330.648C330.554 15.0703 330.34 14.6541 330.064 14.3669ZM331.658 15.6797C331.681 15.8695 331.695 16.0681 331.699 16.2754V16.6797H324.633C324.682 16.3231 324.75 15.9898 324.834 15.6797C325.051 14.8892 325.382 14.2499 325.828 13.7617C326.461 13.082 327.281 12.7422 328.289 12.7422C329.367 12.7422 330.199 13.0527 330.785 13.6738C331.263 14.1709 331.554 14.8395 331.658 15.6797ZM364.54 26.408L364.538 26.4106C363.029 28.3815 360.906 29.3516 358.295 29.3516C356.704 29.3516 355.303 28.9313 354.122 28.096L354.02 29H347.557V0H354.637V8.55093C355.692 7.93546 356.908 7.62891 358.26 7.62891C360.863 7.62891 362.983 8.60722 364.5 10.584C366.008 12.5207 366.695 15.1645 366.695 18.3848V18.666C366.695 21.8427 366.018 24.4635 364.54 26.408ZM363.709 11.1953C362.396 9.48438 360.58 8.62891 358.26 8.62891C356.851 8.62891 355.644 9.00157 354.637 9.7469C354.278 10.0125 353.945 10.3254 353.637 10.6855V1H348.557V28H353.127L353.355 25.9785C353.634 26.3363 353.933 26.6537 354.254 26.9306C355.352 27.8779 356.699 28.3516 358.295 28.3516C360.627 28.3516 362.443 27.502 363.744 25.8027C365.045 24.0918 365.695 21.7129 365.695 18.666V18.3848C365.695 15.291 365.033 12.8945 363.709 11.1953ZM358.879 14.6655L358.876 14.6604C358.477 14.0779 357.899 13.7598 356.977 13.7598C356.304 13.7598 355.808 13.897 355.44 14.1158C355.125 14.3033 354.854 14.5797 354.637 14.9808V22.0153C354.859 22.4229 355.135 22.7042 355.457 22.895C355.831 23.1173 356.333 23.2559 357.012 23.2559C357.664 23.2559 358.12 23.0977 358.451 22.8494C358.785 22.5989 359.082 22.1886 359.293 21.5263C359.491 20.9047 359.615 19.8537 359.615 18.2969C359.615 16.437 359.312 15.2896 358.879 14.6655ZM360.246 21.8301C359.73 23.4473 358.652 24.2559 357.012 24.2559C355.383 24.2559 354.258 23.5879 353.637 22.252V14.7461C354.246 13.4219 355.359 12.7598 356.977 12.7598C358.184 12.7598 359.092 13.2051 359.701 14.0957C360.311 14.9746 360.615 16.375 360.615 18.2969C360.615 19.8789 360.492 21.0566 360.246 21.8301ZM371.758 8.98235L371.762 8.98042C373.306 8.06944 375.074 7.62891 377.033 7.62891C379.82 7.62891 382.174 8.48954 384.004 10.2657C384.004 10.2661 384.005 10.2665 384.005 10.2669L383.309 10.9844C384.938 12.5547 385.846 14.6875 386.033 17.3828L386.068 18.6836C386.068 21.6016 385.254 23.9453 383.625 25.7148C381.996 27.4727 379.811 28.3516 377.068 28.3516C374.326 28.3516 372.135 27.4727 370.494 25.7148C368.865 23.957 368.051 21.5664 368.051 18.543V18.3145C368.051 16.4277 368.414 14.7461 369.141 13.2695C369.867 11.793 370.91 10.6504 372.27 9.8418C373.641 9.0332 375.229 8.62891 377.033 8.62891C379.6 8.62891 381.691 9.41406 383.309 10.9844M374.97 14.774L374.967 14.7786C374.465 15.4874 374.131 16.7299 374.131 18.6836C374.131 20.3826 374.454 21.5279 374.965 22.2519C375.439 22.9128 376.095 23.2559 377.068 23.2559C378.001 23.2559 378.654 22.9226 379.144 22.2591C379.646 21.5683 379.988 20.3188 379.988 18.3145C379.988 16.6574 379.662 15.5202 379.136 14.7806C378.643 14.0872 377.983 13.7422 377.033 13.7422C376.099 13.7422 375.453 14.0836 374.97 14.774ZM379.951 22.8496C379.26 23.7871 378.299 24.2559 377.068 24.2559C375.803 24.2559 374.83 23.7812 374.15 22.832C373.471 21.8711 373.131 20.4883 373.131 18.6836C373.131 16.6562 373.471 15.1621 374.15 14.2012C374.83 13.2285 375.791 12.7422 377.033 12.7422C378.287 12.7422 379.26 13.2285 379.951 14.2012C380.643 15.1738 380.988 16.5449 380.988 18.3145C380.988 20.3887 380.643 21.9004 379.951 22.8496ZM400.868 14.8867L399.75 14.7351C399.09 14.6456 398.527 14.6035 398.057 14.6035C396.492 14.6035 395.688 15.0726 395.277 15.7938V29H388.197V7.98047H394.936L394.983 8.74506C395.935 8.01497 397.068 7.62891 398.373 7.62891C399.027 7.62891 399.654 7.71756 400.251 7.90214L400.966 8.12344L400.868 14.8867ZM395.062 10.0107C394.724 10.3578 394.416 10.7702 394.137 11.248L393.996 8.98047H389.197V28H394.277V15.5547C394.875 14.2539 396.135 13.6035 398.057 13.6035C398.314 13.6035 398.59 13.6147 398.886 13.6369C399.198 13.6603 399.53 13.6961 399.885 13.7441L399.955 8.85742C399.463 8.70508 398.936 8.62891 398.373 8.62891C397.062 8.62891 395.958 9.08951 395.062 10.0107ZM407.952 7.98047L408.026 9.0074C409.33 8.08827 410.881 7.62891 412.646 7.62891C414.861 7.62891 416.686 8.28659 417.915 9.76486C419.107 11.1979 419.634 13.2335 419.658 15.7029L419.658 15.7129L419.658 29H412.578V15.8359C412.578 14.8674 412.362 14.4042 412.159 14.1964L412.151 14.1878C411.958 13.9855 411.513 13.7598 410.537 13.7598C409.547 13.7598 408.841 14.1177 408.32 14.877V29H401.24V7.98047H407.952ZM407.32 14.5879C408.035 13.3691 409.107 12.7598 410.537 12.7598C411.627 12.7598 412.406 13.0059 412.875 13.498C413.344 13.9785 413.578 14.7578 413.578 15.8359V28H418.658V15.7129C418.635 13.3574 418.131 11.5879 417.146 10.4043C416.162 9.2207 414.662 8.62891 412.646 8.62891C410.849 8.62891 409.337 9.15484 408.112 10.2067C407.78 10.4918 407.47 10.8154 407.18 11.1777L407.021 8.98047H402.24V28H407.32V14.5879ZM437.852 29H430.754V7.98047H437.852V29ZM431.512 1.46236L431.52 1.45433C432.263 0.745358 433.23 0.439453 434.303 0.439453C435.368 0.439453 436.327 0.747725 437.067 1.45438C437.795 2.14923 438.15 3.04451 438.15 4.05859C438.15 5.08435 437.789 5.98766 437.047 6.68307C436.31 7.38541 435.359 7.69531 434.303 7.69531C433.244 7.69531 432.292 7.38447 431.546 6.68809L431.538 6.68043C430.807 5.98239 430.455 5.07949 430.455 4.05859C430.455 3.05186 430.799 2.15903 431.512 1.46236ZM436.359 5.95703C436.887 5.46484 437.15 4.83203 437.15 4.05859C437.15 3.29688 436.893 2.66992 436.377 2.17773C435.861 1.68555 435.17 1.43945 434.303 1.43945C433.424 1.43945 432.727 1.68555 432.211 2.17773C431.707 2.66992 431.455 3.29688 431.455 4.05859C431.455 4.83203 431.713 5.46484 432.229 5.95703C432.756 6.44922 433.447 6.69531 434.303 6.69531C435.158 6.69531 435.844 6.44922 436.359 5.95703ZM446.659 7.98047L446.733 9.0074C448.037 8.08827 449.588 7.62891 451.354 7.62891C453.568 7.62891 455.393 8.28659 456.622 9.76486C457.814 11.1979 458.341 13.2335 458.365 15.7029L458.365 15.7129L458.365 29H451.285V15.8359C451.285 14.8674 451.069 14.4042 450.866 14.1964L450.858 14.1878C450.665 13.9855 450.22 13.7598 449.244 13.7598C448.254 13.7598 447.548 14.1177 447.027 14.877V29H439.947V7.98047H446.659ZM446.027 14.5879C446.742 13.3691 447.814 12.7598 449.244 12.7598C450.334 12.7598 451.113 13.0059 451.582 13.498C452.051 13.9785 452.285 14.7578 452.285 15.8359V28H457.365V15.7129C457.342 13.3574 456.838 11.5879 455.854 10.4043C454.869 9.2207 453.369 8.62891 451.354 8.62891C449.556 8.62891 448.044 9.15484 446.819 10.2067C446.487 10.4918 446.177 10.8154 445.887 11.1777L445.729 8.98047H440.947V28H446.027V14.5879ZM486.93 18.541H476.805V29H469.531V1.40625H488.195V7.67773H476.805V12.2871H486.93V18.541ZM475.805 13.2871V6.67773H487.195V2.40625H470.531V28H475.805V17.541H485.93V13.2871H475.805ZM500.75 14.8346L500.016 14.7351C499.356 14.6456 498.793 14.6035 498.322 14.6035C496.758 14.6035 495.953 15.0726 495.543 15.7938V29H488.463V7.98047H495.202L495.249 8.74506C496.2 8.01497 497.334 7.62891 498.639 7.62891C499.292 7.62891 499.92 7.71756 500.516 7.90214L501.231 8.12344L501.169 12.4773C501.365 11.9806 501.63 11.5035 501.96 11.0478C502.762 9.94128 503.878 9.10503 505.258 8.51864C506.641 7.91885 508.173 7.62891 509.836 7.62891C512.345 7.62891 514.456 8.26409 516.056 9.64261C517.703 11.0387 518.482 12.9928 518.482 15.3613V23.599C518.494 25.3433 518.741 26.517 519.121 27.2317L519.238 27.4519V29H512.494L512.216 28.4563C512.157 28.3422 512.103 28.2243 512.052 28.1026C510.841 28.9375 509.411 29.3516 507.797 29.3516C505.727 29.3516 503.935 28.7466 502.497 27.4865L502.494 27.4834C501.058 26.2136 500.328 24.5806 500.328 22.6562C500.328 20.3561 501.198 18.4922 502.974 17.2058L502.977 17.2036C503.989 16.4762 505.226 15.9818 506.662 15.6934H500.75V14.8346ZM507.83 15.5087C508.529 15.4259 509.267 15.3841 510.043 15.3809L510.047 15.3808L511.385 15.3809V15.291C511.385 14.5883 511.205 14.1387 510.944 13.8366L510.935 13.8269C510.748 13.6053 510.376 13.3906 509.572 13.3906C508.876 13.3906 508.456 13.5556 508.195 13.7705C507.971 13.9641 507.83 14.2314 507.83 14.6934V15.5087ZM507.551 13.0059C508.043 12.5957 508.717 12.3906 509.572 12.3906C510.545 12.3906 511.254 12.6543 511.699 13.1816C512.156 13.709 512.385 14.4121 512.385 15.291V16.3809H510.047C507.223 16.3926 505.061 16.9375 503.561 18.0156C502.072 19.0938 501.328 20.6406 501.328 22.6562C501.328 24.2969 501.938 25.6562 503.156 26.7344C504.387 27.8125 505.934 28.3516 507.797 28.3516C509.334 28.3516 510.646 27.9337 511.733 27.0981C512.038 26.8634 512.326 26.5956 512.596 26.2949C512.662 26.7213 512.753 27.1039 512.87 27.4427C512.94 27.6439 513.018 27.8297 513.105 28H518.238V27.7012C518.126 27.4903 518.026 27.2565 517.939 27C517.644 26.1305 517.491 24.999 517.482 23.6055V15.3613C517.482 13.2285 516.791 11.5762 515.408 10.4043C514.037 9.2207 512.18 8.62891 509.836 8.62891C508.289 8.62891 506.895 8.89844 505.652 9.4375C504.41 9.96484 503.449 10.6973 502.77 11.6348C502.3 12.2819 501.993 12.9681 501.848 13.6934C501.783 14.0188 501.75 14.3522 501.75 14.6934H506.83C506.83 13.9785 507.07 13.416 507.551 13.0059ZM495.328 10.0107C494.99 10.3578 494.681 10.7702 494.402 11.248L494.262 8.98047H489.463V28H494.543V15.5547C495.141 14.2539 496.4 13.6035 498.322 13.6035C498.579 13.6035 498.856 13.6147 499.152 13.6369C499.463 13.6603 499.796 13.6961 500.15 13.7441L500.221 8.85742C499.729 8.70508 499.201 8.62891 498.639 8.62891C497.328 8.62891 496.224 9.08951 495.328 10.0107ZM510.512 23.0899C510.904 22.8784 511.186 22.6271 511.385 22.3409V20.3516H510.486C509.306 20.3516 508.555 20.5597 508.109 20.8494C507.718 21.103 507.482 21.4677 507.423 22.0656L507.408 22.313C507.414 22.6665 507.53 22.9097 507.754 23.116C507.967 23.3129 508.31 23.4668 508.904 23.4668C509.5 23.4668 510.031 23.3384 510.512 23.0899ZM506.408 22.2871L506.426 21.9883C506.59 20.2305 507.943 19.3516 510.486 19.3516H512.385V22.6211C512.08 23.1836 511.611 23.6348 510.979 23.9746C510.346 24.3027 509.654 24.4668 508.904 24.4668C508.131 24.4668 507.521 24.2617 507.076 23.8516C506.631 23.4414 506.408 22.9199 506.408 22.2871ZM526.991 7.98047L527.065 9.00738C528.369 8.08826 529.92 7.62891 531.686 7.62891C533.9 7.62891 535.725 8.28659 536.954 9.76486C538.146 11.1979 538.673 13.2335 538.697 15.7029L538.697 15.7129L538.697 29H531.617V15.8359C531.617 14.8674 531.401 14.4042 531.198 14.1964L531.19 14.1878C530.997 13.9855 530.552 13.7598 529.576 13.7598C528.586 13.7598 527.88 14.1176 527.359 14.877V29H520.279V7.98047H526.991ZM526.359 14.5879C527.074 13.3691 528.146 12.7598 529.576 12.7598C530.666 12.7598 531.445 13.0059 531.914 13.498C532.383 13.9785 532.617 14.7578 532.617 15.8359V28H537.697V15.7129C537.674 13.3574 537.17 11.5879 536.186 10.4043C535.201 9.2207 533.701 8.62891 531.686 8.62891C529.888 8.62891 528.376 9.15483 527.151 10.2067C526.819 10.4917 526.509 10.8154 526.219 11.1777L526.061 8.98047H521.279V28H526.359V14.5879ZM551.701 20.4258H558.447L558.437 21.4349C558.424 22.9109 558.018 24.2787 557.225 25.5164L557.222 25.5206C556.427 26.7469 555.337 27.6964 553.979 28.3688L553.975 28.3706C552.631 29.0297 551.154 29.3516 549.562 29.3516C546.614 29.3516 544.182 28.4069 542.39 26.4413L542.388 26.4388C540.606 24.4705 539.773 21.8137 539.773 18.5957V18.2617C539.773 15.1506 540.605 12.5543 542.365 10.5821C544.145 8.58838 546.574 7.62891 549.527 7.62891C552.107 7.62891 554.277 8.37201 555.929 9.94327C557.595 11.5037 558.412 13.5758 558.437 16.054L558.448 17.0645H551.697L551.674 16.0883C551.656 15.3101 551.423 14.7666 551.039 14.3669L551.032 14.3601C550.66 13.9653 550.163 13.7422 549.439 13.7422C548.539 13.7422 547.968 14.0506 547.57 14.6157C547.153 15.2119 546.854 16.3474 546.854 18.2266V18.7539C546.854 20.6596 547.154 21.8051 547.57 22.3999C547.947 22.9399 548.52 23.2559 549.475 23.2559C550.22 23.2559 550.731 23.0557 551.099 22.7317C551.455 22.4184 551.658 22.0059 551.674 21.3984L551.701 20.4258ZM546.75 14.043C547.359 13.1758 548.256 12.7422 549.439 12.7422C550.4 12.7422 551.174 13.0527 551.76 13.6738C552.346 14.2832 552.65 15.0801 552.674 16.0645H557.438C557.434 15.7206 557.414 15.3872 557.377 15.0645C557.174 13.2752 556.461 11.8097 555.24 10.668C553.811 9.30859 551.906 8.62891 549.527 8.62891C546.809 8.62891 544.67 9.50195 543.111 11.248C541.553 12.9941 540.773 15.332 540.773 18.2617V18.5957C540.773 21.6426 541.559 24.0332 543.129 25.7676C544.699 27.4902 546.844 28.3516 549.562 28.3516C551.016 28.3516 552.34 28.0586 553.535 27.4727C554.742 26.875 555.691 26.043 556.383 24.9766C556.891 24.1834 557.216 23.3331 557.357 22.4258C557.408 22.0998 557.434 21.7665 557.438 21.4258H552.674C552.65 22.2812 552.346 22.9668 551.76 23.4824C551.174 23.998 550.412 24.2559 549.475 24.2559C548.256 24.2559 547.348 23.8281 546.75 22.9727C546.152 22.1172 545.854 20.7109 545.854 18.7539V18.2266C545.854 16.293 546.152 14.8984 546.75 14.043ZM561.574 26.5018L561.572 26.4994C559.602 24.5693 558.652 22.0156 558.652 18.9473V18.4551C558.652 16.4137 559.048 14.554 559.863 12.8982L560.76 13.3398L559.861 12.901C559.862 12.9001 559.862 12.8992 559.863 12.8982C560.679 11.2277 561.849 9.91779 563.372 9.00319C564.902 8.0802 566.63 7.62891 568.529 7.62891C571.358 7.62891 573.692 8.53109 575.403 10.4165C577.123 12.2983 577.914 14.8975 577.914 18.0684V21.1426H574.474L577.786 24.8511L577.326 25.5009C576.456 26.733 575.284 27.6843 573.84 28.3606L573.834 28.3638C572.389 29.0277 570.803 29.3516 569.092 29.3516C566.081 29.3516 563.544 28.4197 561.574 26.5018ZM573.514 21.1426H566.085C566.288 21.6383 566.579 22.0486 566.949 22.3886C567.574 22.951 568.373 23.2559 569.426 23.2559C571.106 23.2559 572.331 22.6654 573.224 21.5154L573.514 21.1426ZM566.279 23.1309C565.692 22.5941 565.273 21.9314 565.022 21.1426C564.923 20.8291 564.849 20.4958 564.803 20.1426H576.914V18.0684C576.914 15.0566 576.164 12.7305 574.664 11.0898C573.176 9.44922 571.131 8.62891 568.529 8.62891C566.795 8.62891 565.248 9.03906 563.889 9.85938M576.51 24.9238L574.014 22.1289C573.802 22.4011 573.575 22.6471 573.332 22.867C572.309 23.7929 571.007 24.2559 569.426 24.2559C568.16 24.2559 567.111 23.8809 566.279 23.1309M571.008 13.6738C571.486 14.1709 571.777 14.8395 571.88 15.6797H570.871C570.899 15.8633 570.917 16.0645 570.922 16.2851V16.6797H565.866C565.925 16.3045 566.004 15.9725 566.101 15.6797H565.057C565.273 14.8892 565.605 14.2499 566.051 13.7617L566.783 14.4431C566.784 14.4415 566.786 14.4399 566.787 14.4383C566.788 14.4375 566.788 14.437 566.789 14.4363L566.051 13.7617C566.684 13.082 567.504 12.7422 568.512 12.7422C569.59 12.7422 570.422 13.0527 571.008 13.6738ZM571.922 16.2754L570.922 16.2962C570.922 16.2925 570.922 16.2888 570.922 16.2851V16.2754H571.922ZM580.204 22.8046L580.212 22.7973C580.966 22.1075 581.9 21.7793 582.943 21.7793C583.992 21.7793 584.931 22.104 585.679 22.8012C586.453 23.511 586.826 24.4427 586.826 25.5039C586.826 26.553 586.459 27.4764 585.7 28.1856L585.692 28.1936C584.94 28.88 583.995 29.1934 582.943 29.1934C581.899 29.1934 580.962 28.8776 580.212 28.1936L580.204 28.1857C579.445 27.4764 579.078 26.553 579.078 25.5039C579.078 24.4479 579.442 23.5169 580.204 22.8046ZM585 23.5352C584.461 23.0312 583.775 22.7793 582.943 22.7793C582.123 22.7793 581.438 23.0312 580.887 23.5352C580.348 24.0391 580.078 24.6953 580.078 25.5039C580.078 26.3008 580.348 26.9512 580.887 27.4551C581.426 27.9473 582.111 28.1934 582.943 28.1934C583.787 28.1934 584.479 27.9473 585.018 27.4551C585.557 26.9512 585.826 26.3008 585.826 25.5039C585.826 24.6953 585.551 24.0391 585 23.5352ZM175.219 28V1H170.121V28H175.219ZM222.434 22.9375C223.242 22.1875 223.705 21.0332 223.822 19.4746ZM257.73 28V8.98047H252.633V28H257.73ZM436.852 28V8.98047H431.754V28H436.852ZM562.271 25.7852C564.029 27.4961 566.303 28.3516 569.092 28.3516C570.674 28.3516 572.115 28.0527 573.416 27.4551C574.717 26.8457 575.748 26.002 576.51 24.9238" fill="#4E4D4D"/>
</svg>
