<svg width="716" height="37" viewBox="0 0 716 37" fill="none" xmlns="http://www.w3.org/2000/svg">
<path fill-rule="evenodd" clip-rule="evenodd" d="M7.55859 29H0.285156V1.40625H11.2695C13.3131 1.40625 15.154 1.78034 16.766 2.56002C18.3925 3.34101 19.6696 4.47038 20.5622 5.94851C21.451 7.40849 21.8848 9.06182 21.8848 10.8789C21.8848 13.644 20.9206 15.9187 18.9456 17.5847C16.9989 19.2246 14.3683 19.9824 11.1816 19.9824H7.55859V29ZM6.55859 18.9824H11.1816C14.2168 18.9824 16.5898 18.2617 18.3008 16.8203C20.0234 15.3672 20.8848 13.3867 20.8848 10.8789C20.8848 9.22656 20.4922 7.75586 19.707 6.4668C18.9219 5.16602 17.7969 4.16406 16.332 3.46094C14.8789 2.75781 13.1914 2.40625 11.2695 2.40625H1.28516V28H6.55859V18.9824ZM13.7868 12.9792C14.263 12.5559 14.5586 11.9194 14.5586 10.9141C14.5586 9.86978 14.2582 9.11918 13.7278 8.56352C13.214 8.02519 12.474 7.69903 11.3832 7.67773H7.55859V13.7109H11.2695C12.5208 13.7109 13.3031 13.416 13.7809 12.9845L13.7868 12.9792ZM6.55859 14.7109V6.67773H11.3926C12.6934 6.70117 13.7129 7.09961 14.4512 7.87305C15.1895 8.64648 15.5586 9.66016 15.5586 10.9141C15.5586 12.1328 15.1895 13.0703 14.4512 13.7266C13.7246 14.3828 12.6641 14.7109 11.2695 14.7109H6.55859ZM34.6447 26.9918C34.9816 26.7232 35.2934 26.4147 35.5801 26.0664L35.7207 28H40.502V8.98047H35.4043V22.4453C34.7598 23.6406 33.5762 24.2383 31.8535 24.2383C30.0488 24.2383 29.1465 23.248 29.1465 21.2676V8.98047H24.0664V21.4434C24.0898 23.7051 24.6348 25.4219 25.7012 26.5938C26.7793 27.7656 28.3379 28.3516 30.377 28.3516C32.0854 28.3516 33.508 27.8983 34.6447 26.9918ZM34.7299 28.1624C33.5027 28.9606 32.0388 29.3516 30.377 29.3516C28.1415 29.3516 26.2826 28.7027 24.9652 27.2708L24.9616 27.2668C23.6714 25.849 23.0914 23.8569 23.0665 21.4537L23.0664 21.4434L23.0664 7.98047H30.1465V21.2676C30.1465 22.1255 30.3439 22.5823 30.5624 22.8221C30.7648 23.0442 31.1305 23.2383 31.8535 23.2383C33.1949 23.2383 33.9605 22.8337 34.4043 22.1701V7.98047H41.502V29H34.7908L34.7299 28.1624ZM56.0051 14.8867L54.8871 14.7351C54.227 14.6456 53.6641 14.6035 53.1934 14.6035C51.6291 14.6035 50.8243 15.0726 50.4141 15.7938V29H43.334V7.98047H50.0727L50.1201 8.74505C51.0713 8.01497 52.2049 7.62891 53.5098 7.62891C54.1634 7.62891 54.7912 7.71756 55.3875 7.90214L56.1025 8.12344L56.0051 14.8867ZM50.1986 10.0107C49.8608 10.3578 49.5524 10.7702 49.2734 11.248L49.1328 8.98047H44.334V28H49.4141V15.5547C50.0117 14.2539 51.2715 13.6035 53.1934 13.6035C53.4504 13.6035 53.7269 13.6147 54.0229 13.6369C54.3342 13.6603 54.6671 13.6961 55.0215 13.7441L55.0918 8.85742C54.5996 8.70508 54.0723 8.62891 53.5098 8.62891C52.1989 8.62891 51.0952 9.08951 50.1986 10.0107ZM66.3492 22.1499L66.3395 22.1441C65.8788 21.8695 65.0297 21.5736 63.6958 21.2976L63.6931 21.297C61.3507 20.8055 59.4716 20.0398 58.162 18.9271C56.8141 17.7817 56.1133 16.3019 56.1133 14.5527C56.1133 12.5423 56.9638 10.8576 58.5764 9.55629C60.2015 8.24268 62.2753 7.62891 64.707 7.62891C67.2739 7.62891 69.4416 8.23415 71.1079 9.54756C72.7979 10.8702 73.6699 12.6347 73.6699 14.7637V15.7637H66.5898V14.7637C66.5898 14.2743 66.4419 13.9401 66.1796 13.6778L66.1709 13.6691C65.965 13.458 65.546 13.25 64.6895 13.25C63.9729 13.25 63.5684 13.4126 63.3395 13.6015C63.0965 13.8019 63 14.0132 63 14.3066C63 14.4858 63.0539 14.648 63.3352 14.8386C63.7161 15.0749 64.4645 15.3429 65.6936 15.5935C66.9903 15.8458 68.1094 16.139 69.04 16.4785L69.0416 16.4791C70.5035 17.0154 71.6857 17.7791 72.5022 18.8166C73.3281 19.8663 73.7227 21.124 73.7227 22.5332C73.7227 24.61 72.8066 26.3087 71.0769 27.5618L71.0727 27.5648C69.3716 28.7837 67.2291 29.3516 64.7246 29.3516C63.0124 29.3516 61.45 29.049 60.0582 28.4188L60.0478 28.4141C58.6807 27.7761 57.5716 26.8922 56.7566 25.7512L56.7533 25.7466C55.9389 24.5928 55.5156 23.3212 55.5156 21.9531V20.9531H62.2814L62.3307 21.9012C62.365 22.5614 62.5912 22.962 62.9459 23.2364C63.3419 23.5428 63.936 23.748 64.8301 23.748C65.7042 23.748 66.1863 23.5803 66.4321 23.3996C66.6962 23.2024 66.7832 23.0067 66.7832 22.7441C66.7832 22.5436 66.7227 22.3613 66.359 22.1554L66.3492 22.1499ZM67.0273 24.2031C66.5352 24.5664 65.8027 24.748 64.8301 24.748C63.7871 24.748 62.9551 24.5078 62.334 24.0273C61.7129 23.5469 61.3789 22.8555 61.332 21.9531H56.5156C56.5156 22.2931 56.5464 22.6265 56.6081 22.9531C56.7546 23.7298 57.0754 24.4687 57.5703 25.1699C58.2734 26.1543 59.2402 26.9336 60.4707 27.5078C61.7129 28.0703 63.1309 28.3516 64.7246 28.3516C67.0801 28.3516 69.002 27.8184 70.4902 26.752C71.9785 25.6738 72.7227 24.2676 72.7227 22.5332C72.7227 20.1074 71.3809 18.4023 68.6973 17.418C67.8301 17.1016 66.7637 16.8203 65.498 16.5742C64.2324 16.3164 63.3301 16.0176 62.791 15.6777C62.2637 15.3262 62 14.8691 62 14.3066C62 13.709 62.2344 13.2168 62.7031 12.8301C63.1719 12.4434 63.834 12.25 64.6895 12.25C65.6855 12.25 66.418 12.4902 66.8867 12.9707C67.3555 13.4395 67.5898 14.0371 67.5898 14.7637H72.6699C72.6699 14.418 72.6436 14.0847 72.591 13.7637C72.3671 12.3976 71.6668 11.2544 70.4902 10.334C69.0488 9.19727 67.1211 8.62891 64.707 8.62891C62.4453 8.62891 60.6113 9.19727 59.2051 10.334C57.8105 11.459 57.1133 12.8652 57.1133 14.5527C57.1133 17.4473 59.375 19.3691 63.8984 20.3184C65.2578 20.5996 66.2422 20.9219 66.8516 21.2852C67.4727 21.6367 67.7832 22.123 67.7832 22.7441C67.7832 23.3418 67.5312 23.8281 67.0273 24.2031ZM86.465 26.9918C85.3283 27.8983 83.9058 28.3516 82.1973 28.3516C80.1582 28.3516 78.5996 27.7656 77.5215 26.5938C76.4551 25.4219 75.9102 23.7051 75.8867 21.4434V8.98047H80.9668V21.2676C80.9668 23.248 81.8691 24.2383 83.6738 24.2383C85.3965 24.2383 86.5801 23.6406 87.2246 22.4453V8.98047H92.3223V28H87.541L87.4004 26.0664C87.1137 26.4147 86.8019 26.7232 86.465 26.9918ZM96.1763 1.46236L96.1845 1.45433C96.9273 0.74531 97.8938 0.439453 98.9668 0.439453C100.032 0.439453 100.991 0.747725 101.731 1.45438C102.459 2.14923 102.814 3.04451 102.814 4.05859C102.814 5.08499 102.453 5.9888 101.71 6.68438C100.973 7.38579 100.023 7.69531 98.9668 7.69531C97.9081 7.69531 96.9564 7.38447 96.2103 6.68809L96.2021 6.68043C95.4708 5.98243 95.1191 5.07949 95.1191 4.05859C95.1191 3.05186 95.463 2.15903 96.1763 1.46236ZM101.023 5.95703C101.551 5.46484 101.814 4.83203 101.814 4.05859C101.814 3.29688 101.557 2.66992 101.041 2.17773C100.525 1.68555 99.834 1.43945 98.9668 1.43945C98.0879 1.43945 97.3906 1.68555 96.875 2.17773C96.3711 2.66992 96.1191 3.29688 96.1191 4.05859C96.1191 4.83203 96.377 5.46484 96.8926 5.95703C97.4199 6.44922 98.1113 6.69531 98.9668 6.69531C99.8223 6.69531 100.508 6.44922 101.023 5.95703ZM110.691 14.5879C111.406 13.3691 112.479 12.7598 113.908 12.7598C114.998 12.7598 115.777 13.0059 116.246 13.498C116.715 13.9785 116.949 14.7578 116.949 15.8359V28H122.029V15.7129C122.006 13.3574 121.502 11.5879 120.518 10.4043C119.533 9.2207 118.033 8.62891 116.018 8.62891C114.22 8.62891 112.708 9.15483 111.483 10.2067C111.152 10.4917 110.841 10.8154 110.551 11.1777L110.393 8.98047H105.611V28H110.691V14.5879ZM141.4 31.709C142.162 30.4785 142.543 29.0312 142.543 27.3672V8.98047H137.938L137.727 10.7734C137.452 10.435 137.151 10.1367 136.825 9.8784C135.772 9.0454 134.45 8.62891 132.857 8.62891C130.502 8.62891 128.627 9.51953 127.232 11.3008C125.85 13.082 125.158 15.4316 125.158 18.3496V18.5605C125.158 21.5137 125.861 23.8867 127.268 25.6797C128.686 27.4609 130.537 28.3516 132.822 28.3516C134.231 28.3516 135.438 27.9916 136.445 27.2718C136.804 27.0153 137.137 26.7131 137.445 26.3652V27.3848C137.445 27.5161 137.442 27.6444 137.434 27.7697C137.367 28.9082 136.996 29.7994 136.32 30.4434C135.57 31.1699 134.521 31.5332 133.174 31.5332C131.699 31.5332 130.405 31.06 129.29 30.1136C129.041 29.9016 128.8 29.6658 128.568 29.4062L126.318 32.5C126.998 33.3789 128 34.0938 129.324 34.6445C130.648 35.207 132.008 35.4883 133.402 35.4883C135.242 35.4883 136.848 35.166 138.219 34.5215C139.59 33.877 140.65 32.9395 141.4 31.709ZM132.092 22.2017C131.561 21.4441 131.238 20.319 131.238 18.7188C131.238 16.8271 131.573 15.5802 132.095 14.827C132.61 14.0987 133.266 13.7598 134.158 13.7598C135.257 13.7598 135.968 14.1188 136.445 14.7924V22.2091C135.98 22.873 135.264 23.2383 134.123 23.2383C133.236 23.2383 132.593 22.9057 132.092 22.2017ZM137.445 22.498C136.777 23.6582 135.67 24.2383 134.123 24.2383C132.916 24.2383 131.967 23.752 131.275 22.7793C130.584 21.7949 130.238 20.4414 130.238 18.7188C130.238 16.7383 130.584 15.25 131.275 14.2539C131.979 13.2578 132.939 12.7598 134.158 12.7598C135.67 12.7598 136.766 13.3398 137.445 14.5V22.498ZM160.191 8.98047H155.428V28H160.508V14.5527C161.152 13.3574 162.195 12.7598 163.637 12.7598C164.68 12.7598 165.418 13.0059 165.852 13.498C166.285 13.9902 166.502 14.7871 166.502 15.8887V28H171.582L171.564 14.9395C172.15 13.4863 173.205 12.7598 174.729 12.7598C175.795 12.7598 176.539 13.0117 176.961 13.5156C177.383 14.0078 177.594 14.793 177.594 15.8711V28H182.691V15.8535C182.691 13.4395 182.188 11.6348 181.18 10.4395C180.172 9.23242 178.637 8.62891 176.574 8.62891C174.497 8.62891 172.821 9.31123 171.546 10.6759C171.303 10.9356 171.075 11.2201 170.861 11.5293C170.7 11.1878 170.514 10.8764 170.305 10.5952C169.329 9.28434 167.833 8.62891 165.816 8.62891C164.012 8.62891 162.5 9.13881 161.282 10.1586C160.949 10.4369 160.639 10.7532 160.35 11.1074L160.191 8.98047ZM187.734 31.5128C188.582 31.4912 189.221 31.3456 189.652 31.0762C190.133 30.7832 190.508 30.2969 190.777 29.6172L191.375 28.0527L184.713 8.98047H190.18L193.713 20.8105L197.229 8.98047H202.678L195.031 30.9531L194.609 31.9551C193.473 34.4395 191.598 35.6816 188.984 35.6816C188.246 35.6816 187.496 35.5703 186.734 35.3477V31.498L187.508 31.5156C187.585 31.5156 187.66 31.5147 187.734 31.5128ZM219.452 9.93394C219.125 10.1973 218.819 10.5006 218.533 10.8438L218.357 8.98047H213.646V35.3125H218.727V26.3477C219.035 26.6956 219.368 26.9983 219.727 27.2556C220.744 27.9862 221.963 28.3516 223.385 28.3516C225.646 28.3516 227.439 27.4727 228.764 25.7148C230.1 23.9453 230.768 21.5957 230.768 18.666V18.4023C230.768 15.3555 230.117 12.9648 228.816 11.2305C227.516 9.49609 225.693 8.62891 223.35 8.62891C221.829 8.62891 220.53 9.06392 219.452 9.93394ZM223.903 14.7512L223.898 14.744C223.471 14.0831 222.888 13.7598 222.014 13.7598C221.342 13.7598 220.847 13.8882 220.483 14.0907C220.181 14.2584 219.929 14.499 219.727 14.839V22.1229C219.941 22.4852 220.205 22.7398 220.516 22.9154C220.886 23.1249 221.382 23.2559 222.049 23.2559C222.931 23.2559 223.509 22.9257 223.924 22.245C224.389 21.484 224.688 20.214 224.688 18.2969C224.688 16.6253 224.385 15.4829 223.903 14.7512ZM218.727 22.375V14.5879C219.324 13.3691 220.42 12.7598 222.014 12.7598C223.209 12.7598 224.117 13.2402 224.738 14.2012C225.371 15.1621 225.688 16.5273 225.688 18.2969C225.688 22.2695 224.475 24.2559 222.049 24.2559C220.455 24.2559 219.348 23.6289 218.727 22.375ZM239.398 13.0059C239.891 12.5957 240.564 12.3906 241.42 12.3906C242.393 12.3906 243.102 12.6543 243.547 13.1816C244.004 13.709 244.232 14.4121 244.232 15.291V16.3809H241.895C239.07 16.3926 236.908 16.9375 235.408 18.0156C233.92 19.0938 233.176 20.6406 233.176 22.6562C233.176 24.2969 233.785 25.6562 235.004 26.7344C236.234 27.8125 237.781 28.3516 239.645 28.3516C241.182 28.3516 242.493 27.9337 243.581 27.0981C243.886 26.8634 244.173 26.5956 244.443 26.2949C244.51 26.7213 244.601 27.1039 244.718 27.4426C244.787 27.6439 244.866 27.8297 244.953 28H250.086V27.7012C249.974 27.4903 249.874 27.2565 249.787 27C249.491 26.1305 249.339 24.999 249.33 23.6055V15.3613C249.33 13.2285 248.639 11.5762 247.256 10.4043C245.885 9.2207 244.027 8.62891 241.684 8.62891C240.137 8.62891 238.742 8.89844 237.5 9.4375C236.258 9.96484 235.297 10.6973 234.617 11.6348C234.148 12.2819 233.841 12.9681 233.695 13.6934C233.63 14.0188 233.598 14.3522 233.598 14.6934H238.678C238.678 13.9785 238.918 13.416 239.398 13.0059ZM242.359 23.0903C242.751 22.8787 243.033 22.6273 243.232 22.3409V20.3516H242.334C241.154 20.3516 240.402 20.5597 239.956 20.8494C239.566 21.103 239.33 21.4676 239.271 22.0653L239.256 22.3132C239.261 22.6666 239.377 22.9097 239.601 23.116C239.815 23.3129 240.157 23.4668 240.752 23.4668C241.348 23.4668 241.878 23.3385 242.359 23.0903ZM238.256 22.2871L238.273 21.9883C238.438 20.2305 239.791 19.3516 242.334 19.3516H244.232V22.6211C243.928 23.1836 243.459 23.6348 242.826 23.9746C242.193 24.3027 241.502 24.4668 240.752 24.4668C239.979 24.4668 239.369 24.2617 238.924 23.8516C238.479 23.4414 238.256 22.9199 238.256 22.2871ZM262.099 22.1499L262.09 22.1441C261.629 21.8695 260.78 21.5736 259.446 21.2976L259.443 21.297C257.101 20.8055 255.222 20.0398 253.912 18.9271C252.564 17.7817 251.863 16.3019 251.863 14.5527C251.863 12.542 252.714 10.857 254.327 9.55567C254.327 9.55547 254.327 9.55588 254.327 9.55567C255.952 8.24248 258.026 7.62891 260.457 7.62891C263.023 7.62891 265.19 8.23372 266.856 9.54635C268.547 10.8691 269.42 12.634 269.42 14.7637V15.7637H262.34V14.7637C262.34 14.2743 262.192 13.9401 261.93 13.6778L261.921 13.6691C261.715 13.458 261.296 13.25 260.439 13.25C259.723 13.25 259.318 13.4126 259.09 13.6015C258.847 13.8019 258.75 14.0132 258.75 14.3066C258.75 14.4858 258.804 14.648 259.085 14.8385C259.466 15.0749 260.215 15.3429 261.444 15.5936C262.741 15.8459 263.86 16.1391 264.79 16.4785L264.792 16.4791C266.254 17.0154 267.436 17.7791 268.252 18.8166C269.078 19.8663 269.473 21.124 269.473 22.5332C269.473 24.61 268.557 26.3087 266.827 27.5618L266.823 27.5648C265.122 28.7837 262.979 29.3516 260.475 29.3516C258.762 29.3516 257.2 29.049 255.808 28.4188L255.798 28.4141C254.431 27.776 253.322 26.8922 252.507 25.7512L252.503 25.7466C251.689 24.5928 251.266 23.3212 251.266 21.9531V20.9531H258.031L258.081 21.9012C258.115 22.5614 258.341 22.962 258.696 23.2364C259.092 23.5428 259.686 23.748 260.58 23.748C261.453 23.748 261.935 23.5807 262.181 23.4003M262.777 24.2031C262.285 24.5664 261.553 24.748 260.58 24.748C259.537 24.748 258.705 24.5078 258.084 24.0273C257.463 23.5469 257.129 22.8555 257.082 21.9531H252.266C252.266 22.2931 252.296 22.6265 252.358 22.9531C252.505 23.7298 252.825 24.4687 253.32 25.1699C254.023 26.1543 254.99 26.9336 256.221 27.5078C257.463 28.0703 258.881 28.3516 260.475 28.3516C262.83 28.3516 264.752 27.8184 266.24 26.752C267.729 25.6738 268.473 24.2676 268.473 22.5332C268.473 20.1074 267.131 18.4023 264.447 17.418C263.58 17.1016 262.514 16.8203 261.248 16.5742C259.982 16.3164 259.08 16.0176 258.541 15.6777C258.014 15.3262 257.75 14.8691 257.75 14.3066C257.75 13.709 257.984 13.2168 258.453 12.8301C258.922 12.4434 259.584 12.25 260.439 12.25C261.436 12.25 262.168 12.4902 262.637 12.9707C263.105 13.4395 263.34 14.0371 263.34 14.7637H268.42C268.42 14.418 268.394 14.0847 268.341 13.7637C268.117 12.3976 267.417 11.2544 266.24 10.334C264.799 9.19727 262.871 8.62891 260.457 8.62891C258.195 8.62891 256.361 9.19727 254.955 10.334C253.561 11.459 252.863 12.8652 252.863 14.5527C252.863 17.4473 255.125 19.3691 259.648 20.3184C261.008 20.5996 261.992 20.9219 262.602 21.2852C263.223 21.6367 263.533 22.123 263.533 22.7441C263.533 23.3418 263.281 23.8281 262.777 24.2031ZM280.627 22.1499L280.617 22.1441C280.156 21.8695 279.307 21.5736 277.973 21.2976L277.97 21.297C275.628 20.8055 273.749 20.0398 272.439 18.9271C271.091 17.7817 270.391 16.3019 270.391 14.5527C270.391 12.5423 271.241 10.8576 272.854 9.55629C274.479 8.24268 276.553 7.62891 278.984 7.62891C281.551 7.62891 283.718 8.23372 285.384 9.54635C287.075 10.8691 287.947 12.634 287.947 14.7637V15.7637H280.867V14.7637C280.867 14.2743 280.719 13.9401 280.457 13.6778L280.448 13.6691C280.242 13.458 279.823 13.25 278.967 13.25C278.25 13.25 277.846 13.4126 277.617 13.6015C277.374 13.8019 277.277 14.0132 277.277 14.3066C277.277 14.4858 277.331 14.648 277.612 14.8385C277.993 15.0749 278.742 15.3429 279.971 15.5936C281.268 15.8459 282.387 16.1391 283.317 16.4785L283.319 16.4791C284.781 17.0154 285.963 17.7791 286.78 18.8166C287.605 19.8663 288 21.124 288 22.5332C288 24.61 287.084 26.3087 285.354 27.5618L285.35 27.5648C283.649 28.7837 281.507 29.3516 279.002 29.3516C277.29 29.3516 275.727 29.049 274.336 28.4188L274.325 28.4141C272.958 27.776 271.849 26.8922 271.034 25.7512L271.031 25.7466C270.216 24.5928 269.793 23.3212 269.793 21.9531V20.9531H276.559L276.608 21.9012C276.642 22.5614 276.869 22.962 277.223 23.2364C277.619 23.5428 278.213 23.748 279.107 23.748C279.98 23.748 280.462 23.5807 280.708 23.4003M281.305 24.2031C280.812 24.5664 280.08 24.748 279.107 24.748C278.064 24.748 277.232 24.5078 276.611 24.0273C275.99 23.5469 275.656 22.8555 275.609 21.9531H270.793C270.793 22.2931 270.824 22.6265 270.885 22.9531C271.032 23.7298 271.353 24.4687 271.848 25.1699C272.551 26.1543 273.518 26.9336 274.748 27.5078C275.99 28.0703 277.408 28.3516 279.002 28.3516C281.357 28.3516 283.279 27.8184 284.768 26.752C286.256 25.6738 287 24.2676 287 22.5332C287 20.1074 285.658 18.4023 282.975 17.418C282.107 17.1016 281.041 16.8203 279.775 16.5742C278.51 16.3164 277.607 16.0176 277.068 15.6777C276.541 15.3262 276.277 14.8691 276.277 14.3066C276.277 13.709 276.512 13.2168 276.98 12.8301C277.449 12.4434 278.111 12.25 278.967 12.25C279.963 12.25 280.695 12.4902 281.164 12.9707C281.633 13.4395 281.867 14.0371 281.867 14.7637H286.947C286.947 14.418 286.921 14.0847 286.868 13.7637C286.644 12.3976 285.944 11.2544 284.768 10.334C283.326 9.19727 281.398 8.62891 278.984 8.62891C276.723 8.62891 274.889 9.19727 273.482 10.334C272.088 11.459 271.391 12.8652 271.391 14.5527C271.391 17.4473 273.652 19.3691 278.176 20.3184C279.535 20.5996 280.52 20.9219 281.129 21.2852C281.75 21.6367 282.061 22.123 282.061 22.7441C282.061 23.3418 281.809 23.8281 281.305 24.2031ZM290.309 1.46236L290.317 1.45433C291.06 0.745358 292.027 0.439453 293.1 0.439453C294.165 0.439453 295.124 0.747725 295.864 1.45438C296.592 2.14923 296.947 3.04451 296.947 4.05859C296.947 5.08435 296.586 5.98766 295.844 6.68307C295.107 7.38541 294.156 7.69531 293.1 7.69531C292.041 7.69531 291.089 7.38447 290.343 6.68809L290.335 6.68043C289.604 5.98239 289.252 5.07949 289.252 4.05859C289.252 3.05186 289.596 2.15903 290.309 1.46236ZM295.156 5.95703C295.684 5.46484 295.947 4.83203 295.947 4.05859C295.947 3.29688 295.689 2.66992 295.174 2.17773C294.658 1.68555 293.967 1.43945 293.1 1.43945C292.221 1.43945 291.523 1.68555 291.008 2.17773C290.504 2.66992 290.252 3.29688 290.252 4.05859C290.252 4.83203 290.51 5.46484 291.025 5.95703C291.553 6.44922 292.244 6.69531 293.1 6.69531C293.955 6.69531 294.641 6.44922 295.156 5.95703ZM315.012 10.2657C315.012 10.2661 315.013 10.2665 315.013 10.2669L314.316 10.9844L315.01 10.2644C315.011 10.2649 315.011 10.2653 315.012 10.2657ZM317.041 17.3828L317.076 18.6836C317.076 21.6016 316.262 23.9453 314.633 25.7148C313.004 27.4727 310.818 28.3516 308.076 28.3516C305.334 28.3516 303.143 27.4727 301.502 25.7148C299.873 23.957 299.059 21.5664 299.059 18.543V18.3145C299.059 16.4277 299.422 14.7461 300.148 13.2695C300.875 11.793 301.918 10.6504 303.277 9.8418M305.978 14.774L305.975 14.7786C305.473 15.4874 305.139 16.7299 305.139 18.6836C305.139 20.3826 305.462 21.5279 305.973 22.2519C306.447 22.9128 307.102 23.2559 308.076 23.2559C309.009 23.2559 309.661 22.9226 310.152 22.2591C310.654 21.5683 310.996 20.3188 310.996 18.3145C310.996 16.6574 310.67 15.5202 310.144 14.7806C309.651 14.0872 308.991 13.7422 308.041 13.7422C307.107 13.7422 306.46 14.0836 305.978 14.774ZM310.959 22.8496C310.268 23.7871 309.307 24.2559 308.076 24.2559C306.811 24.2559 305.838 23.7812 305.158 22.832C304.479 21.8711 304.139 20.4883 304.139 18.6836C304.139 16.6562 304.479 15.1621 305.158 14.2012C305.838 13.2285 306.799 12.7422 308.041 12.7422C309.295 12.7422 310.268 13.2285 310.959 14.2012C311.65 15.1738 311.996 16.5449 311.996 18.3145C311.996 20.3887 311.65 21.9004 310.959 22.8496ZM325.18 14.5879C325.895 13.3691 326.967 12.7598 328.396 12.7598C329.486 12.7598 330.266 13.0059 330.734 13.498C331.203 13.9785 331.438 14.7578 331.438 15.8359V28H336.518V15.7129C336.494 13.3574 335.99 11.5879 335.006 10.4043C334.021 9.2207 332.521 8.62891 330.506 8.62891C328.708 8.62891 327.197 9.15484 325.972 10.2067C325.64 10.4918 325.329 10.8154 325.039 11.1777L324.881 8.98047H320.1V28H325.18V14.5879ZM354.816 13.0059C355.309 12.5957 355.982 12.3906 356.838 12.3906C357.811 12.3906 358.52 12.6543 358.965 13.1816C359.422 13.709 359.65 14.4121 359.65 15.291V16.3809H357.312C354.488 16.3926 352.326 16.9375 350.826 18.0156C349.338 19.0938 348.594 20.6406 348.594 22.6562C348.594 24.2969 349.203 25.6562 350.422 26.7344C351.652 27.8125 353.199 28.3516 355.062 28.3516C356.599 28.3516 357.911 27.9337 358.998 27.0981C359.304 26.8634 359.591 26.5956 359.861 26.2949C359.927 26.7213 360.019 27.1039 360.136 27.4426C360.205 27.6439 360.284 27.8297 360.371 28H365.504V27.7012C365.392 27.4903 365.292 27.2565 365.205 27C364.909 26.1305 364.757 24.999 364.748 23.6055V15.3613C364.748 13.2285 364.057 11.5762 362.674 10.4043C361.303 9.2207 359.445 8.62891 357.102 8.62891C355.555 8.62891 354.16 8.89844 352.918 9.4375C351.676 9.96484 350.715 10.6973 350.035 11.6348C349.566 12.2819 349.259 12.9681 349.113 13.6934C349.048 14.0188 349.016 14.3522 349.016 14.6934H354.096C354.096 13.9785 354.336 13.416 354.816 13.0059ZM357.778 23.0899C358.17 22.8784 358.451 22.6271 358.65 22.3409V20.3516H357.752C356.572 20.3516 355.82 20.5597 355.374 20.8494C354.984 21.103 354.748 21.4677 354.689 22.0656L354.674 22.313C354.679 22.6665 354.795 22.9097 355.019 23.116C355.233 23.3129 355.575 23.4668 356.17 23.4668C356.766 23.4668 357.296 23.3384 357.778 23.0899ZM353.674 22.2871L353.691 21.9883C353.855 20.2305 355.209 19.3516 357.752 19.3516H359.65V22.6211C359.346 23.1836 358.877 23.6348 358.244 23.9746C357.611 24.3027 356.92 24.4668 356.17 24.4668C355.396 24.4668 354.787 24.2617 354.342 23.8516C353.896 23.4414 353.674 22.9199 353.674 22.2871ZM373.73 1H368.65V28H373.221L373.449 25.9785C373.728 26.3363 374.027 26.6537 374.348 26.9306C375.446 27.8779 376.793 28.3516 378.389 28.3516C380.721 28.3516 382.537 27.502 383.838 25.8027C385.139 24.0918 385.789 21.7129 385.789 18.666V18.3848C385.789 15.291 385.127 12.8945 383.803 11.1953C382.49 9.48438 380.674 8.62891 378.354 8.62891C376.945 8.62891 375.737 9.00157 374.73 9.7469C374.372 10.0125 374.038 10.3254 373.73 10.6855V1ZM378.973 14.6655L378.97 14.6604C378.571 14.0779 377.993 13.7598 377.07 13.7598C376.397 13.7598 375.902 13.897 375.534 14.1158C375.218 14.3033 374.948 14.5797 374.73 14.9808V22.0153C374.953 22.4229 375.229 22.7042 375.551 22.895C375.925 23.1173 376.427 23.2559 377.105 23.2559C377.758 23.2559 378.214 23.0977 378.545 22.8494C378.879 22.5989 379.176 22.1886 379.387 21.5263C379.585 20.9047 379.709 19.8537 379.709 18.2969C379.709 16.437 379.406 15.2896 378.973 14.6655ZM380.34 21.8301C379.824 23.4473 378.746 24.2559 377.105 24.2559C375.477 24.2559 374.352 23.5879 373.73 22.252V14.7461C374.34 13.4219 375.453 12.7598 377.07 12.7598C378.277 12.7598 379.186 13.2051 379.795 14.0957C380.404 14.9746 380.709 16.375 380.709 18.2969C380.709 19.8789 380.586 21.0566 380.34 21.8301ZM404.098 10.2657C404.098 10.2661 404.099 10.2665 404.099 10.2669L403.402 10.9844L404.096 10.2644C404.097 10.2649 404.097 10.2653 404.098 10.2657ZM406.127 17.3828L406.162 18.6836C406.162 21.6016 405.348 23.9453 403.719 25.7148C402.09 27.4727 399.904 28.3516 397.162 28.3516C394.42 28.3516 392.229 27.4727 390.588 25.7148C388.959 23.957 388.145 21.5664 388.145 18.543V18.3145C388.145 16.4277 388.508 14.7461 389.234 13.2695C389.961 11.793 391.004 10.6504 392.363 9.8418M395.064 14.774L395.061 14.7786C394.559 15.4874 394.225 16.7299 394.225 18.6836C394.225 20.3826 394.548 21.5279 395.059 22.2519C395.533 22.9128 396.188 23.2559 397.162 23.2559C398.094 23.2559 398.747 22.9226 399.238 22.2591C399.74 21.5683 400.082 20.3188 400.082 18.3145C400.082 16.6574 399.756 15.5202 399.23 14.7806C398.737 14.0872 398.077 13.7422 397.127 13.7422C396.193 13.7422 395.546 14.0836 395.064 14.774ZM400.045 22.8496C399.354 23.7871 398.393 24.2559 397.162 24.2559C395.896 24.2559 394.924 23.7812 394.244 22.832C393.564 21.8711 393.225 20.4883 393.225 18.6836C393.225 16.6562 393.564 15.1621 394.244 14.2012C394.924 13.2285 395.885 12.7422 397.127 12.7422C398.381 12.7422 399.354 13.2285 400.045 14.2012C400.736 15.1738 401.082 16.5449 401.082 18.3145C401.082 20.3887 400.736 21.9004 400.045 22.8496ZM419.746 26.9918C418.61 27.8983 417.187 28.3516 415.479 28.3516C413.439 28.3516 411.881 27.7656 410.803 26.5938C409.736 25.4219 409.191 23.7051 409.168 21.4434V8.98047H414.248V21.2676C414.248 23.248 415.15 24.2383 416.955 24.2383C418.678 24.2383 419.861 23.6406 420.506 22.4453V8.98047H425.604V28H420.822L420.682 26.0664C420.395 26.4147 420.083 26.7232 419.746 26.9918ZM419.831 28.1624L419.892 29H426.604V7.98047H419.506V22.1701M424.604 9.98047H421.506V22.6977L421.386 22.9199C420.518 24.5295 418.93 25.2383 416.955 25.2383C415.873 25.2383 414.886 24.9372 414.186 24.1691C413.502 23.4187 413.248 22.3901 413.248 21.2676V9.98047H410.168V21.4388C410.191 23.5536 410.699 24.9924 411.54 25.9176C412.378 26.8289 413.636 27.3516 415.479 27.3516C417.436 27.3516 418.87 26.6934 419.91 25.4309L421.498 23.5013M436.518 3.30469V7.98047H439.77V13.707H436.518V22.1992C436.518 22.7863 436.632 22.9963 436.666 23.042C436.678 23.0498 436.714 23.0712 436.794 23.0947C436.93 23.135 437.147 23.168 437.469 23.168C437.985 23.168 438.419 23.1301 438.777 23.0624L439.963 22.838V28.6344L439.255 28.8508C438.163 29.1848 437.039 29.3516 435.887 29.3516C433.947 29.3516 432.308 28.8607 431.149 27.713C429.992 26.567 429.476 24.9266 429.438 22.9746L429.438 22.9648V13.707H426.66V7.98047H429.438V3.30469H436.518ZM430.438 8.98047H427.66V12.707H430.438V22.9551C430.508 26.5527 432.324 28.3516 435.887 28.3516C436.941 28.3516 437.967 28.1992 438.963 27.8945V24.0449C438.661 24.1021 438.328 24.1393 437.963 24.1566C437.804 24.1642 437.639 24.168 437.469 24.168C436.707 24.168 436.191 24.0156 435.922 23.7109C435.652 23.4062 435.518 22.9023 435.518 22.1992V12.707H438.77V8.98047H435.518V4.30469H430.438V8.98047ZM457.646 3.30469V7.98047H460.898V13.707H457.646V22.1992C457.646 22.7864 457.761 22.9963 457.795 23.042C457.806 23.0499 457.843 23.0711 457.923 23.0947C458.059 23.135 458.276 23.168 458.598 23.168C459.114 23.168 459.548 23.1301 459.906 23.0624L461.092 22.838V28.6344L460.384 28.8508C459.292 29.1848 458.168 29.3516 457.016 29.3516C455.076 29.3516 453.437 28.8607 452.278 27.713C451.121 26.567 450.605 24.9266 450.567 22.9746L450.566 22.9648V13.707H447.789V7.98047H450.566V3.30469H457.646ZM451.566 8.98047H448.789V12.707H451.566V22.9551C451.637 26.5527 453.453 28.3516 457.016 28.3516C458.07 28.3516 459.096 28.1992 460.092 27.8945V24.0449C459.79 24.1021 459.456 24.1393 459.092 24.1566C458.933 24.1642 458.768 24.168 458.598 24.168C457.836 24.168 457.32 24.0156 457.051 23.7109C456.781 23.4062 456.646 22.9023 456.646 22.1992V12.707H459.898V8.98047H456.646V4.30469H451.566V8.98047ZM463.965 26.5018L463.962 26.4994C461.992 24.5693 461.043 22.0156 461.043 18.9473V18.4551C461.043 16.4137 461.438 14.554 462.253 12.8982L463.15 13.3398L462.252 12.901C462.252 12.9001 462.253 12.8992 462.253 12.8982C463.07 11.2273 464.24 9.91717 465.764 9.00253C467.293 8.07998 469.021 7.62891 470.92 7.62891C473.749 7.62891 476.083 8.53109 477.794 10.4165C477.794 10.416 477.793 10.4156 477.793 10.4151L477.055 11.0898L477.795 10.418C477.795 10.4175 477.794 10.417 477.794 10.4165C479.514 12.2983 480.305 14.8975 480.305 18.0684V21.1426H476.864L476.351 20.5677L475.904 21.1426H468.476C468.352 20.8418 468.261 20.5096 468.204 20.1426H467.193C467.24 20.4958 467.313 20.8291 467.413 21.1426H468.476C468.679 21.639 468.97 22.0498 469.342 22.3901C469.341 22.3894 469.34 22.3888 469.339 22.3881L468.67 23.1309L469.345 22.3928C469.344 22.3919 469.343 22.391 469.342 22.3901C469.966 22.9515 470.765 23.2559 471.816 23.2559C473.497 23.2559 474.721 22.6654 475.615 21.5154L475.904 21.1426H476.864L480.176 24.8511L479.717 25.5009C478.847 26.733 477.674 27.6843 476.231 28.3606L476.224 28.3638C474.779 29.0277 473.193 29.3516 471.482 29.3516C468.471 29.3516 465.935 28.4197 463.965 26.5018ZM478.9 24.9238C478.139 26.002 477.107 26.8457 475.807 27.4551C474.506 28.0527 473.064 28.3516 471.482 28.3516C468.693 28.3516 466.42 27.4961 464.662 25.7852M477.08 22.8854L476.404 22.1289L477.194 22.7424C477.156 22.7908 477.118 22.8385 477.08 22.8854ZM475.723 22.867L475.658 22.795L476.404 22.1289C476.193 22.4011 475.966 22.6471 475.723 22.867ZM472.678 14.3669L472.671 14.3601C472.321 13.989 471.782 13.7422 470.902 13.7422C470.148 13.7422 469.602 13.9839 469.177 14.4397C468.904 14.7391 468.669 15.1439 468.492 15.6797H473.262C473.168 15.0703 472.954 14.6541 472.678 14.3669ZM474.271 15.6797C474.294 15.8695 474.308 16.0681 474.312 16.2754V16.6797H467.246C467.296 16.3231 467.363 15.9898 467.448 15.6797C467.664 14.8892 467.995 14.2499 468.441 13.7617C469.074 13.082 469.895 12.7422 470.902 12.7422C471.98 12.7422 472.812 13.0527 473.398 13.6738C473.876 14.1709 474.167 14.8395 474.271 15.6797ZM492.341 20.4258H499.087L499.078 21.4349C499.065 22.9109 498.659 24.2787 497.865 25.5164L497.863 25.5206C497.067 26.7469 495.978 27.6964 494.62 28.3688L494.616 28.3706C493.271 29.0297 491.795 29.3516 490.203 29.3516C487.254 29.3516 484.822 28.4069 483.03 26.4413L483.028 26.4388C481.246 24.4705 480.414 21.8137 480.414 18.5957V18.2617C480.414 15.1506 481.246 12.5543 483.006 10.5821C484.786 8.58838 487.215 7.62891 490.168 7.62891C492.746 7.62891 494.914 8.371 496.567 9.94007C498.234 11.5009 499.052 13.5741 499.078 16.054L499.089 17.0645H492.338L492.315 16.0883C492.296 15.3101 492.064 14.7666 491.68 14.3669L491.673 14.3601C491.301 13.9653 490.804 13.7422 490.08 13.7422C489.178 13.7422 488.607 14.0514 488.209 14.6179C487.793 15.2147 487.494 16.3497 487.494 18.2266V18.7539C487.494 20.6596 487.795 21.8051 488.21 22.3999C488.588 22.9399 489.16 23.2559 490.115 23.2559C490.861 23.2559 491.372 23.0557 491.74 22.7317C492.096 22.4184 492.298 22.0059 492.315 21.3984L492.341 20.4258ZM487.391 14.043C488 13.1758 488.896 12.7422 490.08 12.7422C491.041 12.7422 491.814 13.0527 492.4 13.6738C492.986 14.2832 493.291 15.0801 493.314 16.0645H498.078C498.075 15.7206 498.054 15.3872 498.018 15.0645C497.814 13.2752 497.102 11.8097 495.881 10.668C494.451 9.30859 492.547 8.62891 490.168 8.62891C487.449 8.62891 485.311 9.50195 483.752 11.248C482.193 12.9941 481.414 15.332 481.414 18.2617V18.5957C481.414 21.6426 482.199 24.0332 483.77 25.7676C485.34 27.4902 487.484 28.3516 490.203 28.3516C491.656 28.3516 492.98 28.0586 494.176 27.4727C495.383 26.875 496.332 26.043 497.023 24.9766C497.532 24.1834 497.857 23.3331 497.998 22.4258C498.048 22.0998 498.075 21.7665 498.078 21.4258H493.314C493.291 22.2812 492.986 22.9668 492.4 23.4824C491.814 23.998 491.053 24.2559 490.115 24.2559C488.896 24.2559 487.988 23.8281 487.391 22.9727C486.793 22.1172 486.494 20.7109 486.494 18.7539V18.2266C486.494 16.293 486.793 14.8984 487.391 14.043ZM517.291 15.8184V28H512.211V15.959C512.211 14.8691 511.977 14.0664 511.508 13.5508C511.039 13.0234 510.26 12.7598 509.17 12.7598C507.682 12.7598 506.604 13.334 505.936 14.4824V28H500.855V1H505.936V11.0547C506.25 10.6773 506.583 10.3439 506.936 10.0546C508.092 9.10413 509.452 8.62891 511.016 8.62891C515.141 8.62891 517.232 11.0254 517.291 15.8184ZM506.936 8.81352C508.125 8.02937 509.491 7.62891 511.016 7.62891C513.276 7.62891 515.143 8.29236 516.432 9.76868C517.696 11.2173 518.26 13.2882 518.291 15.8061L518.291 15.8184L518.291 29H511.211V15.959C511.211 14.9835 510.997 14.4752 510.768 14.2235L510.76 14.2152C510.564 13.9946 510.129 13.7598 509.17 13.7598C508.096 13.7598 507.402 14.1114 506.936 14.7733V29H499.855V0H506.936V8.81352ZM101.516 28V8.98047H96.418V28H101.516ZM295.648 28V8.98047H290.551V28H295.648Z" fill="#4E4D4D"/>
<path fill-rule="evenodd" clip-rule="evenodd" d="M551.362 29L551.083 28.4563C551.024 28.3422 550.97 28.2243 550.919 28.1026C549.708 28.9374 548.279 29.3516 546.664 29.3516C544.594 29.3516 542.803 28.7466 541.364 27.4865L541.361 27.4834C539.926 26.2136 539.195 24.5806 539.195 22.6562C539.195 20.3561 540.065 18.4922 541.841 17.2058L541.844 17.2036C542.856 16.4762 544.093 15.9818 545.529 15.6934H539.617V14.6934C539.617 13.3698 540.03 12.1467 540.827 11.0478C541.629 9.94123 542.745 9.10495 544.125 8.51856C545.509 7.91883 547.04 7.62891 548.703 7.62891C551.213 7.62891 553.325 8.26462 554.925 9.64434C556.57 11.0403 557.35 12.9938 557.35 15.3613V23.6022C557.361 25.3447 557.609 26.5174 557.988 27.2317L558.105 27.4519V29H551.362ZM556.35 23.6055V15.3613C556.35 13.2285 555.658 11.5762 554.275 10.4043C552.904 9.2207 551.047 8.62891 548.703 8.62891C547.156 8.62891 545.762 8.89844 544.52 9.4375C543.277 9.96484 542.316 10.6973 541.637 11.6348C541.168 12.2819 540.86 12.9681 540.715 13.6934C540.65 14.0188 540.617 14.3522 540.617 14.6934H545.697C545.697 13.9785 545.938 13.416 546.418 13.0059C546.91 12.5957 547.584 12.3906 548.439 12.3906C549.412 12.3906 550.121 12.6543 550.566 13.1816C551.023 13.709 551.252 14.4121 551.252 15.291V16.3809H548.914C546.09 16.3926 543.928 16.9375 542.428 18.0156C540.939 19.0938 540.195 20.6406 540.195 22.6562C540.195 24.2969 540.805 25.6562 542.023 26.7344C543.254 27.8125 544.801 28.3516 546.664 28.3516C548.201 28.3516 549.513 27.9337 550.6 27.0981C550.905 26.8634 551.193 26.5956 551.463 26.2949C551.529 26.7213 551.621 27.1039 551.737 27.4426C551.807 27.6439 551.885 27.8297 551.973 28H557.105V27.7012C556.993 27.4903 556.894 27.2565 556.806 27C556.511 26.1305 556.359 24.999 556.35 23.6055ZM550.252 15.3809V15.291C550.252 14.5883 550.073 14.1387 549.811 13.8366L549.802 13.8269C549.615 13.6054 549.243 13.3906 548.439 13.3906C547.743 13.3906 547.323 13.5555 547.063 13.7703C546.838 13.9638 546.697 14.2311 546.697 14.6934V15.5087C547.396 15.4259 548.134 15.3841 548.91 15.3809L548.914 15.3808L550.252 15.3809ZM549.379 23.0902C549.771 22.8786 550.053 22.6272 550.252 22.3409V20.3516H549.354C548.173 20.3516 547.422 20.5597 546.976 20.8494C546.585 21.103 546.349 21.4676 546.29 22.0655L546.276 22.3131C546.281 22.6666 546.397 22.9097 546.621 23.116C546.835 23.3129 547.177 23.4668 547.771 23.4668C548.367 23.4668 548.898 23.3385 549.379 23.0902ZM545.275 22.2871L545.293 21.9883C545.457 20.2305 546.811 19.3516 549.354 19.3516H551.252V22.6211C550.947 23.1836 550.479 23.6348 549.846 23.9746C549.213 24.3027 548.521 24.4668 547.771 24.4668C546.998 24.4668 546.389 24.2617 545.943 23.8516C545.498 23.4414 545.275 22.9199 545.275 22.2871ZM565.858 7.98047L565.932 9.0074C567.236 8.08827 568.787 7.62891 570.553 7.62891C572.767 7.62891 574.592 8.28659 575.822 9.76486C577.013 11.1979 577.54 13.2335 577.564 15.7029L577.565 15.7129L577.564 29H570.484V15.8359C570.484 14.8674 570.268 14.4042 570.065 14.1964L570.057 14.1878C569.865 13.9856 569.42 13.7598 568.443 13.7598C567.453 13.7598 566.748 14.1177 566.227 14.877V29H559.146V7.98047H565.858ZM565.227 14.5879C565.941 13.3691 567.014 12.7598 568.443 12.7598C569.533 12.7598 570.312 13.0059 570.781 13.498C571.25 13.9785 571.484 14.7578 571.484 15.8359V28H576.564V15.7129C576.541 13.3574 576.037 11.5879 575.053 10.4043C574.068 9.2207 572.568 8.62891 570.553 8.62891C568.755 8.62891 567.243 9.15483 566.019 10.2067C565.687 10.4917 565.376 10.8154 565.086 11.1777L564.928 8.98047H560.146V28H565.227V14.5879ZM580.828 10.6639L580.831 10.6605C582.366 8.64095 584.489 7.62891 587.094 7.62891C588.425 7.62891 589.626 7.94446 590.682 8.56939V0H597.779V29H591.306L591.193 28.0729C590.01 28.9198 588.624 29.3516 587.059 29.3516C584.513 29.3516 582.421 28.3314 580.871 26.3266L580.867 26.3207C579.341 24.3181 578.641 21.6213 578.641 18.3496C578.641 15.2423 579.335 12.6465 580.828 10.6639ZM591.052 26.9126C591.367 26.64 591.665 26.3286 591.945 25.9785L592.191 28H596.779V1H591.682V10.7031C591.37 10.3459 591.036 10.0348 590.682 9.76985C589.663 9.00922 588.467 8.62891 587.094 8.62891C584.785 8.62891 582.963 9.50781 581.627 11.2656C580.303 13.0234 579.641 15.3848 579.641 18.3496C579.641 21.4902 580.314 23.9453 581.662 25.7148C583.021 27.4727 584.82 28.3516 587.059 28.3516C588.61 28.3516 589.941 27.8719 591.052 26.9126ZM585.721 18.7188C585.721 20.4075 586.019 21.5488 586.489 22.2669C586.916 22.9194 587.496 23.2383 588.359 23.2383C589.003 23.2383 589.486 23.1035 589.855 22.8834C590.171 22.694 590.45 22.4133 590.682 22.0061V14.988C590.454 14.5801 590.179 14.3003 589.868 14.1122C589.507 13.8941 589.031 13.7598 588.395 13.7598C587.496 13.7598 586.91 14.0938 586.49 14.7743C586.022 15.5343 585.721 16.8027 585.721 18.7188ZM591.682 14.7461V22.252C591.037 23.5762 589.93 24.2383 588.359 24.2383C587.176 24.2383 586.273 23.7637 585.652 22.8145C585.031 21.8652 584.721 20.5 584.721 18.7188C584.721 14.7461 585.945 12.7598 588.395 12.7598C589.953 12.7598 591.049 13.4219 591.682 14.7461ZM610.078 10.6639L610.081 10.6605C611.616 8.64095 613.739 7.62891 616.344 7.62891C617.675 7.62891 618.876 7.94446 619.932 8.56939V0H627.029V29H620.556L620.443 28.0729C619.26 28.9198 617.874 29.3516 616.309 29.3516C613.763 29.3516 611.671 28.3314 610.121 26.3266L610.117 26.3207C608.591 24.3181 607.891 21.6213 607.891 18.3496C607.891 15.2423 608.585 12.6465 610.078 10.6639ZM620.302 26.9126C620.617 26.64 620.915 26.3286 621.195 25.9785L621.441 28H626.029V1H620.932V10.7031C620.62 10.3459 620.286 10.0348 619.932 9.76985C618.913 9.00922 617.717 8.62891 616.344 8.62891C614.035 8.62891 612.213 9.50781 610.877 11.2656C609.553 13.0234 608.891 15.3848 608.891 18.3496C608.891 21.4902 609.564 23.9453 610.912 25.7148C612.271 27.4727 614.07 28.3516 616.309 28.3516C617.86 28.3516 619.191 27.8719 620.302 26.9126ZM614.971 18.7188C614.971 20.4075 615.269 21.5488 615.739 22.2669C616.166 22.9194 616.746 23.2383 617.609 23.2383C618.253 23.2383 618.736 23.1035 619.105 22.8834C619.421 22.694 619.7 22.4133 619.932 22.0061V14.988C619.704 14.5801 619.429 14.3003 619.118 14.1122C618.757 13.8941 618.281 13.7598 617.645 13.7598C616.746 13.7598 616.16 14.0938 615.74 14.7743C615.272 15.5343 614.971 16.8027 614.971 18.7188ZM620.932 14.7461V22.252C620.287 23.5762 619.18 24.2383 617.609 24.2383C616.426 24.2383 615.523 23.7637 614.902 22.8145C614.281 21.8652 613.971 20.5 613.971 18.7188C613.971 14.7461 615.195 12.7598 617.645 12.7598C619.203 12.7598 620.299 13.4219 620.932 14.7461ZM631.203 26.5018L631.201 26.4994C629.231 24.5693 628.281 22.0156 628.281 18.9473V18.4551C628.281 16.4138 628.676 14.5543 629.491 12.8986C629.491 12.8985 629.491 12.8987 629.491 12.8986L630.389 13.3398L629.49 12.901C629.491 12.9002 629.491 12.8994 629.491 12.8986C630.308 11.2275 631.478 9.91723 633.002 9.00253C634.531 8.07998 636.26 7.62891 638.158 7.62891C640.987 7.62891 643.321 8.53109 645.032 10.4165C646.752 12.2983 647.543 14.8975 647.543 18.0684V20.9531H654.242L654.292 21.9012C654.326 22.5614 654.552 22.962 654.907 23.2364C655.303 23.5428 655.897 23.748 656.791 23.748C657.665 23.748 658.147 23.5803 658.393 23.3996C658.657 23.2024 658.744 23.0067 658.744 22.7441C658.744 22.5436 658.684 22.3613 658.32 22.1554L658.31 22.1499L658.3 22.1441C657.84 21.8695 656.991 21.5736 655.657 21.2976L655.654 21.297C653.312 20.8055 651.432 20.0398 650.123 18.9271C648.775 17.7817 648.074 16.3019 648.074 14.5527C648.074 12.542 648.925 10.857 650.538 9.55567C652.163 8.24248 654.237 7.62891 656.668 7.62891C659.235 7.62891 661.403 8.23415 663.069 9.54756C664.759 10.8702 665.631 12.6347 665.631 14.7637V15.7637H658.551V14.7637C658.551 14.2743 658.403 13.9401 658.141 13.6778L658.132 13.6691C657.926 13.458 657.507 13.25 656.65 13.25C655.934 13.25 655.529 13.4126 655.3 13.6015C655.057 13.8019 654.961 14.0132 654.961 14.3066C654.961 14.4858 655.015 14.648 655.296 14.8386C655.677 15.0749 656.425 15.3429 657.655 15.5935C658.951 15.8458 660.07 16.139 661.001 16.4785L661.003 16.4791C662.464 17.0154 663.647 17.7791 664.463 18.8166C665.289 19.8663 665.684 21.124 665.684 22.5332C665.684 24.61 664.768 26.3087 663.038 27.5618L663.034 27.5648C661.333 28.7837 659.19 29.3516 656.686 29.3516C654.973 29.3516 653.411 29.049 652.019 28.4188L652.009 28.4141C650.642 27.7761 649.533 26.8922 648.718 25.7512L648.714 25.7466C647.9 24.5928 647.477 23.3212 647.477 21.9531V21.1426H644.102L647.414 24.8511L646.955 25.5009C646.085 26.733 644.913 27.6843 643.469 28.3606L643.462 28.3638C642.017 29.0277 640.432 29.3516 638.721 29.3516C635.71 29.3516 633.173 28.4197 631.203 26.5018ZM643.143 21.1426H635.714C635.918 21.6392 636.209 22.0501 636.58 22.3905C637.204 22.9517 638.003 23.2559 639.055 23.2559C640.735 23.2559 641.96 22.6654 642.853 21.5154L643.143 21.1426ZM635.908 23.1309C635.321 22.5941 634.902 21.9314 634.651 21.1426C634.551 20.8291 634.478 20.4958 634.432 20.1426H646.543V18.0684C646.543 15.0566 645.793 12.7305 644.293 11.0898C642.805 9.44922 640.76 8.62891 638.158 8.62891C636.424 8.62891 634.877 9.03906 633.518 9.85938M644.318 22.8854L646.139 24.9238C645.377 26.002 644.346 26.8457 643.045 27.4551C641.744 28.0527 640.303 28.3516 638.721 28.3516C635.932 28.3516 633.658 27.4961 631.9 25.7852M644.318 22.8854L643.643 22.1289C643.431 22.4011 643.204 22.6471 642.961 22.867C641.938 23.7929 640.636 24.2559 639.055 24.2559C637.789 24.2559 636.74 23.8809 635.908 23.1309M657.459 16.5742C656.193 16.3164 655.291 16.0176 654.752 15.6777C654.225 15.3262 653.961 14.8691 653.961 14.3066C653.961 13.709 654.195 13.2168 654.664 12.8301C655.133 12.4434 655.795 12.25 656.65 12.25C657.646 12.25 658.379 12.4902 658.848 12.9707C659.316 13.4395 659.551 14.0371 659.551 14.7637H664.631C664.631 14.418 664.605 14.0847 664.552 13.7637C664.328 12.3976 663.628 11.2544 662.451 10.334C661.01 9.19727 659.082 8.62891 656.668 8.62891C654.406 8.62891 652.572 9.19727 651.166 10.334C649.771 11.459 649.074 12.8652 649.074 14.5527C649.074 17.4473 651.336 19.3691 655.859 20.3184C657.219 20.5996 658.203 20.9219 658.812 21.2852C659.434 21.6367 659.744 22.123 659.744 22.7441C659.744 23.3418 659.492 23.8281 658.988 24.2031C658.496 24.5664 657.764 24.748 656.791 24.748C655.748 24.748 654.916 24.5078 654.295 24.0273C653.674 23.5469 653.34 22.8555 653.293 21.9531H648.477C648.477 22.2931 648.507 22.6265 648.569 22.9531C648.716 23.7298 649.036 24.4687 649.531 25.1699C650.234 26.1543 651.201 26.9336 652.432 27.5078C653.674 28.0703 655.092 28.3516 656.686 28.3516C659.041 28.3516 660.963 27.8184 662.451 26.752C663.939 25.6738 664.684 24.2676 664.684 22.5332C664.684 20.1074 663.342 18.4023 660.658 17.418C659.791 17.1016 658.725 16.8203 657.459 16.5742ZM639.916 14.3669L639.909 14.3601C639.559 13.989 639.02 13.7422 638.141 13.7422C637.386 13.7422 636.841 13.9839 636.415 14.4397C636.142 14.7391 635.907 15.1439 635.73 15.6797H640.5C640.406 15.0703 640.192 14.6541 639.916 14.3669ZM641.509 15.6797C641.533 15.8695 641.546 16.0681 641.551 16.2754V16.6797H634.484C634.534 16.3231 634.601 15.9898 634.686 15.6797C634.902 14.8892 635.234 14.2499 635.68 13.7617C636.312 13.082 637.133 12.7422 638.141 12.7422C639.219 12.7422 640.051 13.0527 640.637 13.6738C641.115 14.1709 641.405 14.8395 641.509 15.6797ZM674.332 29H667.234V7.98047H674.332V29ZM667.993 1.46236L668.001 1.45433C668.744 0.745358 669.71 0.439453 670.783 0.439453C671.849 0.439453 672.808 0.747725 673.548 1.45438C674.276 2.14923 674.631 3.04451 674.631 4.05859C674.631 5.08478 674.269 5.98842 673.527 6.68394C672.789 7.38566 671.839 7.69531 670.783 7.69531C669.725 7.69531 668.773 7.38447 668.027 6.68809L668.018 6.68043C667.287 5.98239 666.936 5.07949 666.936 4.05859C666.936 3.05186 667.279 2.15903 667.993 1.46236ZM672.84 5.95703C673.367 5.46484 673.631 4.83203 673.631 4.05859C673.631 3.29688 673.373 2.66992 672.857 2.17773C672.342 1.68555 671.65 1.43945 670.783 1.43945C669.904 1.43945 669.207 1.68555 668.691 2.17773C668.188 2.66992 667.936 3.29688 667.936 4.05859C667.936 4.83203 668.193 5.46484 668.709 5.95703C669.236 6.44922 669.928 6.69531 670.783 6.69531C671.639 6.69531 672.324 6.44922 672.84 5.95703ZM678.079 10.6876L678.082 10.6843C679.675 8.64961 681.846 7.62891 684.494 7.62891C686.06 7.62891 687.441 7.99456 688.595 8.74415L688.685 7.98047H695.18V27.3672C695.18 29.1877 694.761 30.8223 693.889 32.2329C693.032 33.6379 691.819 34.7036 690.281 35.4265C688.751 36.1455 686.995 36.4883 685.039 36.4883C683.507 36.4883 682.016 36.1788 680.574 35.5665C679.136 34.9681 677.976 34.1617 677.164 33.1117L676.705 32.5184L679.967 28.0337C679.291 27.575 678.675 26.9974 678.122 26.3025L678.117 26.2968C676.537 24.2816 675.795 21.6707 675.795 18.5605V18.3496C675.795 15.2754 676.525 12.6899 678.079 10.6876ZM680.723 28.4849L680.951 28.7404C682.038 29.9586 683.308 30.5332 684.811 30.5332C685.977 30.5332 686.747 30.2229 687.261 29.7251L687.267 29.7195C687.573 29.4282 687.809 29.0438 687.947 28.5311C686.921 29.0798 685.752 29.3516 684.459 29.3516C683.083 29.3516 681.833 29.0608 680.723 28.4849ZM688.082 27.2718C688.441 27.0153 688.774 26.7131 689.082 26.3652V27.3848C689.082 27.5161 689.078 27.6444 689.071 27.7697C689.004 28.9082 688.633 29.7994 687.957 30.4434C687.207 31.1699 686.158 31.5332 684.811 31.5332C683.336 31.5332 682.042 31.06 680.927 30.1136C680.677 29.9016 680.437 29.6658 680.205 29.4062L677.955 32.5C678.635 33.3789 679.637 34.0938 680.961 34.6445C682.285 35.207 683.645 35.4883 685.039 35.4883C686.879 35.4883 688.484 35.166 689.855 34.5215C691.227 33.877 692.287 32.9395 693.037 31.709C693.799 30.4785 694.18 29.0312 694.18 27.3672V8.98047H689.574L689.363 10.7734C689.089 10.435 688.788 10.1367 688.462 9.8784C687.409 9.0454 686.086 8.62891 684.494 8.62891C682.139 8.62891 680.264 9.51953 678.869 11.3008C677.486 13.082 676.795 15.4316 676.795 18.3496V18.5605C676.795 21.5137 677.498 23.8867 678.904 25.6797C680.322 27.4609 682.174 28.3516 684.459 28.3516C685.867 28.3516 687.075 27.9916 688.082 27.2718ZM683.728 22.2017C683.198 21.4441 682.875 20.319 682.875 18.7188C682.875 16.8271 683.21 15.5802 683.732 14.827C684.247 14.0987 684.903 13.7598 685.795 13.7598C686.894 13.7598 687.605 14.1188 688.082 14.7924V22.2091C687.617 22.873 686.9 23.2383 685.76 23.2383C684.873 23.2383 684.23 22.9057 683.728 22.2017ZM689.082 22.498C688.414 23.6582 687.307 24.2383 685.76 24.2383C684.553 24.2383 683.604 23.752 682.912 22.7793C682.221 21.7949 681.875 20.4414 681.875 18.7188C681.875 16.7383 682.221 15.25 682.912 14.2539C683.615 13.2578 684.576 12.7598 685.795 12.7598C687.307 12.7598 688.402 13.3398 689.082 14.5V22.498ZM703.706 7.98047L703.78 9.0074C705.084 8.08827 706.635 7.62891 708.4 7.62891C710.615 7.62891 712.44 8.28659 713.669 9.76486C714.861 11.1979 715.387 13.2335 715.412 15.7029L715.412 15.7129L715.412 29H708.332V15.8359C708.332 14.8674 708.116 14.4042 707.913 14.1964L707.905 14.1878C707.712 13.9855 707.267 13.7598 706.291 13.7598C705.301 13.7598 704.595 14.1177 704.074 14.877V29H696.994V7.98047H703.706ZM703.074 14.5879C703.789 13.3691 704.861 12.7598 706.291 12.7598C707.381 12.7598 708.16 13.0059 708.629 13.498C709.098 13.9785 709.332 14.7578 709.332 15.8359V28H714.412V15.7129C714.389 13.3574 713.885 11.5879 712.9 10.4043C711.916 9.2207 710.416 8.62891 708.4 8.62891C706.602 8.62891 705.091 9.15483 703.866 10.2067C703.534 10.4917 703.223 10.8154 702.934 11.1777L702.775 8.98047H697.994V28H703.074V14.5879ZM673.332 28V8.98047H668.234V28H673.332Z" fill="#4E4D4D"/>
</svg>
